<svg width="1200" height="630" viewBox="0 0 1200 630" xmlns="http://www.w3.org/2000/svg"><rect x="0" y="0" width="1200" height="630" fill="#fefbfb"/><defs><clipPath id="satori_bc-id-0"><path x="105" y="39" width="1056" height="504" d="M109,39 h1048 a4,4 0 0 1 4,4 v496 a4,4 0 0 1 -4,4 h-1048 a4,4 0 0 1 -4,-4 v-496 a4,4 0 0 1 4,-4"/></clipPath></defs><g opacity="0.9"><path x="105" y="39" width="1056" height="504" fill="#ecebeb" d="M109,39 h1048 a4,4 0 0 1 4,4 v496 a4,4 0 0 1 -4,4 h-1048 a4,4 0 0 1 -4,-4 v-496 a4,4 0 0 1 4,-4"/><path width="1056" height="504" clip-path="url(#satori_bc-id-0)" fill="none" stroke="#000" stroke-width="8" d="M106.172,40.172 A4,4 0 0 1 109,39 h1048 a4,4 0 0 1 4,4 v496 a4,4 0 0 1 -4,4 h-1048 a4,4 0 0 1 -4,-4 v-496 A4,4 0 0 1 106.172,40.172"/></g><defs><clipPath id="satori_bc-id-1"><path x="72" y="63" width="1056" height="504" d="M76,63 h1048 a4,4 0 0 1 4,4 v496 a4,4 0 0 1 -4,4 h-1048 a4,4 0 0 1 -4,-4 v-496 a4,4 0 0 1 4,-4"/></clipPath></defs><path x="72" y="63" width="1056" height="504" fill="#fefbfb" d="M76,63 h1048 a4,4 0 0 1 4,4 v496 a4,4 0 0 1 -4,4 h-1048 a4,4 0 0 1 -4,-4 v-496 a4,4 0 0 1 4,-4"/><path width="1056" height="504" clip-path="url(#satori_bc-id-1)" fill="none" stroke="#000" stroke-width="8" d="M73.172,64.172 A4,4 0 0 1 76,63 h1048 a4,4 0 0 1 4,4 v496 a4,4 0 0 1 -4,4 h-1048 a4,4 0 0 1 -4,-4 v-496 A4,4 0 0 1 73.172,64.172"/><clipPath id="satori_cp-id-1-0-0"><rect x="128" y="103" width="944" height="94"/></clipPath><mask id="satori_om-id-1-0-0"><rect x="128" y="103" width="944" height="94" fill="#fff"/></mask><path fill="black" d="M170.8 183.0L159.3 183.0L156.2 170.9L142.4 170.9L139.3 183.0L128.4 183.0L142.0 132.7L157.2 132.7L170.8 183.0ZM154.5 162.1L149.6 143.1L149.0 143.1L144.1 162.1L154.5 162.1ZM199.5 183.0L199.5 176.2L199.0 176.2Q197.6 179.6 195.0 181.7Q192.4 183.8 188.0 183.8L188.0 183.8Q184.9 183.8 182.3 182.7Q179.8 181.5 177.9 179.1Q176.1 176.8 175.1 173.1Q174.0 169.4 174.0 164.4L174.0 164.4Q174.0 159.3 175.1 155.7Q176.1 152.0 177.9 149.6Q179.8 147.2 182.3 146.1Q184.9 144.9 188.0 144.9L188.0 144.9Q190.2 144.9 191.9 145.5Q193.7 146.1 195.0 147.1Q196.3 148.1 197.3 149.5Q198.3 150.9 199.0 152.6L199.0 152.6L199.5 152.6L199.5 129.7L210.2 129.7L210.2 183.0L199.5 183.0ZM192.6 175.5L192.6 175.5Q195.4 175.5 197.4 174.2Q199.5 172.8 199.5 169.8L199.5 169.8L199.5 158.9Q199.5 156.0 197.4 154.6Q195.4 153.2 192.6 153.2L192.6 153.2Q189.0 153.2 187.0 155.4Q185.1 157.6 185.1 161.5L185.1 161.5L185.1 167.3Q185.1 171.1 187.0 173.3Q189.0 175.5 192.6 175.5ZM255.6 183.0L249.5 183.0Q246.2 183.0 244.1 181.3Q242.1 179.6 241.8 176.4L241.8 176.4L241.4 176.4Q240.4 180.1 237.4 181.9Q234.4 183.8 230.1 183.8L230.1 183.8Q224.7 183.8 221.4 180.9Q218.1 178.0 218.1 172.7L218.1 172.7Q218.1 166.9 222.4 164.1Q226.6 161.3 234.8 161.3L234.8 161.3L240.8 161.3L240.8 159.4Q240.8 156.1 239.3 154.4Q237.7 152.7 234.1 152.7L234.1 152.7Q230.7 152.7 228.6 154.0Q226.5 155.3 225.0 157.4L225.0 157.4L219.2 152.2Q221.0 149.0 225.0 147.0Q229.0 144.9 235.3 144.9L235.3 144.9Q242.9 144.9 247.2 148.4Q251.5 151.9 251.5 159.0L251.5 159.0L251.5 175.2L255.6 175.2L255.6 183.0ZM234.1 176.8L234.1 176.8Q236.9 176.8 238.9 175.5Q240.8 174.1 240.8 171.5L240.8 171.5L240.8 167.0L235.1 167.0Q228.6 167.0 228.6 171.4L228.6 171.4L228.6 172.9Q228.6 174.8 230.1 175.8Q231.6 176.8 234.1 176.8ZM261.8 197.4L261.8 145.8L272.5 145.8L272.5 152.6L273.0 152.6Q274.4 149.3 277.0 147.1Q279.6 144.9 284.0 144.9L284.0 144.9Q287.1 144.9 289.7 146.1Q292.2 147.2 294.1 149.6Q295.9 152.0 296.9 155.7Q298.0 159.3 298.0 164.4L298.0 164.4Q298.0 169.4 296.9 173.1Q295.9 176.8 294.1 179.1Q292.2 181.5 289.7 182.7Q287.1 183.8 284.0 183.8L284.0 183.8Q279.6 183.8 277.0 181.7Q274.4 179.6 273.0 176.2L273.0 176.2L272.5 176.2L272.5 197.4L261.8 197.4ZM279.4 175.5L279.4 175.5Q283.0 175.5 285.0 173.3Q286.9 171.1 286.9 167.3L286.9 167.3L286.9 161.5Q286.9 157.6 285.0 155.4Q283.0 153.2 279.4 153.2L279.4 153.2Q276.6 153.2 274.6 154.6Q272.5 156.0 272.5 158.9L272.5 158.9L272.5 169.8Q272.5 172.8 274.6 174.2Q276.6 175.5 279.4 175.5ZM339.0 183.0L325.3 183.0Q319.5 183.0 316.7 179.9Q313.9 176.9 313.9 172.2L313.9 172.2L313.9 154.1L303.8 154.1L303.8 145.8L310.4 145.8Q312.8 145.8 313.8 144.9Q314.8 143.9 314.8 141.4L314.8 141.4L314.8 132.7L324.6 132.7L324.6 145.8L339.0 145.8L339.0 154.1L324.6 154.1L324.6 174.7L339.0 174.7L339.0 183.0ZM428.4 183.0L422.3 183.0Q419.0 183.0 416.9 181.3Q414.9 179.6 414.6 176.4L414.6 176.4L414.2 176.4Q413.2 180.1 410.2 181.9Q407.2 183.8 402.9 183.8L402.9 183.8Q397.5 183.8 394.2 180.9Q390.9 178.0 390.9 172.7L390.9 172.7Q390.9 166.9 395.2 164.1Q399.4 161.3 407.6 161.3L407.6 161.3L413.6 161.3L413.6 159.4Q413.6 156.1 412.1 154.4Q410.5 152.7 406.9 152.7L406.9 152.7Q403.5 152.7 401.4 154.0Q399.3 155.3 397.8 157.4L397.8 157.4L392.0 152.2Q393.8 149.0 397.8 147.0Q401.8 144.9 408.1 144.9L408.1 144.9Q415.7 144.9 420.0 148.4Q424.3 151.9 424.3 159.0L424.3 159.0L424.3 175.2L428.4 175.2L428.4 183.0ZM406.9 176.8L406.9 176.8Q409.7 176.8 411.7 175.5Q413.6 174.1 413.6 171.5L413.6 171.5L413.6 167.0L407.9 167.0Q401.4 167.0 401.4 171.4L401.4 171.4L401.4 172.9Q401.4 174.8 402.9 175.8Q404.4 176.8 406.9 176.8ZM445.7 183.0L435.1 183.0L435.1 145.8L445.7 145.8L445.7 152.6L446.2 152.6Q446.8 151.0 447.8 149.6Q448.7 148.2 450.0 147.2Q451.4 146.2 453.1 145.5Q454.9 144.9 457.1 144.9L457.1 144.9Q459.8 144.9 462.0 145.8Q464.2 146.7 465.8 148.5Q467.4 150.3 468.3 152.9Q469.2 155.5 469.2 158.9L469.2 158.9L469.2 183.0L458.6 183.0L458.6 160.3Q458.6 153.1 452.3 153.1L452.3 153.1Q451.1 153.1 449.9 153.5Q448.7 153.8 447.8 154.5Q446.8 155.2 446.3 156.2Q445.7 157.2 445.7 158.5L445.7 158.5L445.7 183.0ZM501.9 183.0L501.9 176.2L501.4 176.2Q500.0 179.6 497.4 181.7Q494.8 183.8 490.4 183.8L490.4 183.8Q487.3 183.8 484.7 182.7Q482.2 181.5 480.3 179.1Q478.5 176.8 477.5 173.1Q476.4 169.4 476.4 164.4L476.4 164.4Q476.4 159.3 477.5 155.7Q478.5 152.0 480.3 149.6Q482.2 147.2 484.7 146.1Q487.3 144.9 490.4 144.9L490.4 144.9Q492.6 144.9 494.3 145.5Q496.1 146.1 497.4 147.1Q498.7 148.1 499.7 149.5Q500.7 150.9 501.4 152.6L501.4 152.6L501.9 152.6L501.9 129.7L512.6 129.7L512.6 183.0L501.9 183.0ZM495.0 175.5L495.0 175.5Q497.8 175.5 499.8 174.2Q501.9 172.8 501.9 169.8L501.9 169.8L501.9 158.9Q501.9 156.0 499.8 154.6Q497.8 153.2 495.0 153.2L495.0 153.2Q491.4 153.2 489.4 155.4Q487.5 157.6 487.5 161.5L487.5 161.5L487.5 167.3Q487.5 171.1 489.4 173.3Q491.4 175.5 495.0 175.5ZM581.6 183.8L581.6 183.8Q571.5 183.8 566.7 177.0Q561.9 170.1 561.9 157.8L561.9 157.8Q561.9 145.5 566.7 138.7Q571.5 131.8 581.6 131.8L581.6 131.8Q591.7 131.8 596.5 138.7Q601.3 145.5 601.3 157.8L601.3 157.8Q601.3 170.1 596.5 177.0Q591.7 183.8 581.6 183.8ZM581.6 175.1L581.6 175.1Q586.2 175.1 588.0 171.7Q589.7 168.3 589.7 162.1L589.7 162.1L589.7 153.4Q589.7 147.4 588.0 144.0Q586.2 140.5 581.6 140.5L581.6 140.5Q577.0 140.5 575.2 144.0Q573.5 147.4 573.5 153.4L573.5 153.4L573.5 162.2Q573.5 168.3 575.2 171.7Q577.0 175.1 581.6 175.1ZM631.1 183.0L618.5 183.0L605.1 145.8L616.4 145.8L621.2 161.7L624.7 174.1L625.3 174.1L628.8 161.7L633.7 145.8L644.5 145.8L631.1 183.0ZM669.0 183.8L669.0 183.8Q659.6 183.8 654.8 178.6Q650.0 173.4 650.0 164.5L650.0 164.5Q650.0 160.0 651.3 156.3Q652.5 152.7 654.9 150.2Q657.2 147.6 660.5 146.3Q663.9 144.9 668.1 144.9L668.1 144.9Q672.2 144.9 675.6 146.3Q678.9 147.6 681.2 150.0Q683.5 152.5 684.7 156.0Q686.0 159.5 686.0 163.8L686.0 163.8L686.0 167.0L660.6 167.0L660.6 167.6Q660.6 171.2 662.8 173.4Q665.0 175.6 669.4 175.6L669.4 175.6Q672.7 175.6 675.1 174.3Q677.4 173.1 679.2 171.0L679.2 171.0L684.9 177.3Q682.8 179.9 678.9 181.9Q675.0 183.8 669.0 183.8ZM668.1 152.6L668.1 152.6Q664.7 152.6 662.6 154.7Q660.6 156.8 660.6 160.4L660.6 160.4L660.6 161.0L675.6 161.0L675.6 160.4Q675.6 156.7 673.6 154.7Q671.6 152.6 668.1 152.6ZM694.9 183.0L694.9 174.7L703.5 174.7L703.5 154.1L694.9 154.1L694.9 145.8L714.2 145.8L714.2 156.3L714.7 156.3Q715.2 154.3 716.1 152.4Q717.0 150.5 718.4 149.0Q719.8 147.5 721.8 146.7Q723.8 145.8 726.5 145.8L726.5 145.8L730.1 145.8L730.1 155.6L722.1 155.6Q718.2 155.6 716.2 157.9Q714.2 160.3 714.2 163.7L714.2 163.7L714.2 174.7L726.4 174.7L726.4 183.0L694.9 183.0ZM755.9 183.8L755.9 183.8Q751.5 183.8 748.0 182.5Q744.5 181.2 742.1 178.6Q739.7 176.1 738.4 172.5Q737.1 168.9 737.1 164.4L737.1 164.4Q737.1 159.8 738.4 156.2Q739.7 152.6 742.1 150.1Q744.5 147.6 748.0 146.3Q751.5 144.9 755.8 144.9L755.8 144.9Q762.0 144.9 765.7 147.4Q769.4 149.9 771.3 154.0L771.3 154.0L763.1 158.5Q762.1 156.3 760.5 154.9Q758.9 153.4 755.8 153.4L755.8 153.4Q752.2 153.4 750.2 155.6Q748.2 157.7 748.2 161.4L748.2 161.4L748.2 167.4Q748.2 171.1 750.2 173.2Q752.2 175.3 756.0 175.3L756.0 175.3Q759.1 175.3 760.8 173.9Q762.6 172.4 763.8 170.1L763.8 170.1L771.9 174.7Q769.9 178.8 766.0 181.3Q762.2 183.8 755.9 183.8ZM797.6 183.8L797.6 183.8Q793.3 183.8 789.8 182.5Q786.4 181.2 784.0 178.6Q781.5 176.1 780.2 172.5Q779.0 168.9 779.0 164.4L779.0 164.4Q779.0 159.8 780.2 156.2Q781.5 152.6 784.0 150.1Q786.4 147.6 789.8 146.3Q793.3 144.9 797.6 144.9L797.6 144.9Q801.9 144.9 805.4 146.3Q808.8 147.6 811.2 150.1Q813.7 152.6 815.0 156.2Q816.2 159.8 816.2 164.4L816.2 164.4Q816.2 168.9 815.0 172.5Q813.7 176.1 811.2 178.6Q808.8 181.2 805.4 182.5Q801.9 183.8 797.6 183.8ZM797.6 175.9L797.6 175.9Q801.2 175.9 803.2 173.7Q805.2 171.4 805.2 167.3L805.2 167.3L805.2 161.4Q805.2 157.3 803.2 155.1Q801.2 152.9 797.6 152.9L797.6 152.9Q794.0 152.9 792.0 155.1Q790.0 157.3 790.0 161.4L790.0 161.4L790.0 167.3Q790.0 171.4 792.0 173.7Q794.0 175.9 797.6 175.9ZM829.9 183.0L821.4 183.0L821.4 145.8L829.9 145.8L829.9 151.3L830.4 151.3Q831.3 148.7 832.9 146.8Q834.5 144.9 837.5 144.9L837.5 144.9Q842.9 144.9 844.1 151.3L844.1 151.3L844.5 151.3Q845.0 150.0 845.6 148.8Q846.3 147.7 847.2 146.8Q848.1 145.9 849.4 145.4Q850.7 144.9 852.5 144.9L852.5 144.9Q860.2 144.9 860.2 156.4L860.2 156.4L860.2 183.0L851.7 183.0L851.7 157.5Q851.7 154.9 850.8 153.8Q849.9 152.8 848.4 152.8L848.4 152.8Q847.1 152.8 846.1 153.7Q845.1 154.6 845.1 156.5L845.1 156.5L845.1 183.0L836.5 183.0L836.5 157.5Q836.5 154.9 835.7 153.8Q834.8 152.8 833.4 152.8L833.4 152.8Q831.9 152.8 830.9 153.7Q829.9 154.6 829.9 156.5L829.9 156.5L829.9 183.0ZM885.0 183.8L885.0 183.8Q875.6 183.8 870.8 178.6Q866.0 173.4 866.0 164.5L866.0 164.5Q866.0 160.0 867.3 156.3Q868.5 152.7 870.9 150.2Q873.2 147.6 876.5 146.3Q879.9 144.9 884.1 144.9L884.1 144.9Q888.2 144.9 891.6 146.3Q894.9 147.6 897.2 150.0Q899.5 152.5 900.7 156.0Q902.0 159.5 902.0 163.8L902.0 163.8L902.0 167.0L876.6 167.0L876.6 167.6Q876.6 171.2 878.8 173.4Q881.0 175.6 885.4 175.6L885.4 175.6Q888.7 175.6 891.1 174.3Q893.4 173.1 895.2 171.0L895.2 171.0L900.9 177.3Q898.8 179.9 894.9 181.9Q891.0 183.8 885.0 183.8ZM884.1 152.6L884.1 152.6Q880.7 152.6 878.6 154.7Q876.6 156.8 876.6 160.4L876.6 160.4L876.6 161.0L891.6 161.0L891.6 160.4Q891.6 156.7 889.6 154.7Q887.6 152.6 884.1 152.6ZM928.9 165.5L925.5 165.5L921.4 147.3L921.4 132.7L933.0 132.7L933.0 147.3L928.9 165.5ZM927.2 183.8L927.2 183.8Q923.3 183.8 921.7 182.2Q920.1 180.5 920.1 178.2L920.1 178.2L920.1 175.9Q920.1 173.7 921.8 172.0Q923.4 170.4 927.2 170.4L927.2 170.4Q931.0 170.4 932.6 172.0Q934.3 173.7 934.3 175.9L934.3 175.9L934.3 178.2Q934.3 180.5 932.7 182.2Q931.1 183.8 927.2 183.8Z " clip-path="url(#satori_cp-id-1-0-0)" mask="url(#satori_om-id-1-0-0)"/><path fill="black" d="M130.7 520.3L130.7 499.6L132.9 499.6L132.9 508.2L133.0 508.2Q134.4 505.5 137.5 505.5L137.5 505.5Q140.1 505.5 141.6 507.5Q143.1 509.5 143.1 513.0L143.1 513.0Q143.1 516.6 141.6 518.6Q140.1 520.6 137.5 520.6L137.5 520.6Q134.4 520.6 133.0 517.9L133.0 517.9L132.9 517.9L132.9 520.3L130.7 520.3ZM136.6 518.6L136.6 518.6Q138.6 518.6 139.6 517.4Q140.7 516.2 140.7 514.3L140.7 514.3L140.7 511.8Q140.7 509.9 139.6 508.7Q138.6 507.5 136.6 507.5L136.6 507.5Q135.8 507.5 135.2 507.7Q134.5 507.9 134.0 508.2Q133.5 508.6 133.2 509.2Q132.9 509.7 132.9 510.4L132.9 510.4L132.9 515.7Q132.9 516.4 133.2 516.9Q133.5 517.5 134.0 517.8Q134.5 518.2 135.2 518.4Q135.8 518.6 136.6 518.6ZM155.4 511.9L157.9 505.8L160.1 505.8L152.9 523.4Q152.7 524.1 152.4 524.5Q152.1 525.0 151.7 525.3Q151.2 525.6 150.7 525.7Q150.1 525.9 149.3 525.9L149.3 525.9L147.1 525.9L147.1 524.0L150.5 524.0L152.1 520.0L146.3 505.8L148.6 505.8L151.0 511.9L153.2 517.4L153.3 517.4L155.4 511.9Z "/><clipPath id="satori_cp-id-1-0-1-0-2"><rect x="178" y="489" width="151" height="36"/></clipPath><mask id="satori_om-id-1-0-1-0-2"><rect x="178" y="489" width="151" height="36" fill="#fff"/></mask><path fill="black" d="M186.4 520.4L186.4 520.4Q182.5 520.4 180.6 517.8Q178.8 515.1 178.8 510.3L178.8 510.3Q178.8 505.5 180.6 502.9Q182.5 500.2 186.4 500.2L186.4 500.2Q190.3 500.2 192.2 502.9Q194.0 505.5 194.0 510.3L194.0 510.3Q194.0 515.1 192.2 517.8Q190.3 520.4 186.4 520.4ZM186.4 517.0L186.4 517.0Q188.2 517.0 188.9 515.7Q189.6 514.4 189.6 512.0L189.6 512.0L189.6 508.6Q189.6 506.3 188.9 504.9Q188.2 503.6 186.4 503.6L186.4 503.6Q184.6 503.6 183.9 504.9Q183.2 506.3 183.2 508.6L183.2 508.6L183.2 512.0Q183.2 514.4 183.9 515.7Q184.6 517.0 186.4 517.0ZM196.5 525.7L196.5 505.6L200.6 505.6L200.6 508.3L200.8 508.3Q201.3 507.0 202.3 506.1Q203.3 505.3 205.1 505.3L205.1 505.3Q206.3 505.3 207.3 505.8Q208.3 506.2 209.0 507.1Q209.7 508.1 210.1 509.5Q210.5 510.9 210.5 512.9L210.5 512.9Q210.5 514.8 210.1 516.3Q209.7 517.7 209.0 518.6Q208.3 519.5 207.3 520.0Q206.3 520.4 205.1 520.4L205.1 520.4Q203.3 520.4 202.3 519.6Q201.3 518.8 200.8 517.5L200.8 517.5L200.6 517.5L200.6 525.7L196.5 525.7ZM203.3 517.2L203.3 517.2Q204.7 517.2 205.4 516.4Q206.2 515.5 206.2 514.0L206.2 514.0L206.2 511.7Q206.2 510.2 205.4 509.4Q204.7 508.5 203.3 508.5L203.3 508.5Q202.2 508.5 201.4 509.1Q200.6 509.6 200.6 510.7L200.6 510.7L200.6 515.0Q200.6 516.1 201.4 516.7Q202.2 517.2 203.3 517.2ZM220.4 520.4L220.4 520.4Q216.8 520.4 214.9 518.4Q213.0 516.4 213.0 512.9L213.0 512.9Q213.0 511.2 213.5 509.7Q214.0 508.3 214.9 507.3Q215.8 506.3 217.1 505.8Q218.4 505.3 220.0 505.3L220.0 505.3Q221.7 505.3 222.9 505.8Q224.2 506.3 225.1 507.3Q226.0 508.2 226.5 509.6Q227.0 511.0 227.0 512.6L227.0 512.6L227.0 513.9L217.1 513.9L217.1 514.1Q217.1 515.5 218.0 516.4Q218.9 517.2 220.5 517.2L220.5 517.2Q221.8 517.2 222.7 516.7Q223.7 516.3 224.3 515.4L224.3 515.4L226.6 517.9Q225.7 518.9 224.2 519.7Q222.7 520.4 220.4 520.4ZM220.1 508.3L220.1 508.3Q218.7 508.3 217.9 509.1Q217.1 509.9 217.1 511.3L217.1 511.3L217.1 511.6L222.9 511.6L222.9 511.3Q222.9 509.9 222.2 509.1Q221.4 508.3 220.1 508.3ZM234.4 520.1L230.2 520.1L230.2 505.6L234.4 505.6L234.4 508.3L234.5 508.3Q234.8 507.7 235.1 507.1Q235.5 506.6 236.0 506.2Q236.5 505.8 237.2 505.5Q237.9 505.3 238.8 505.3L238.8 505.3Q239.8 505.3 240.7 505.7Q241.6 506.0 242.2 506.7Q242.8 507.4 243.1 508.4Q243.5 509.4 243.5 510.7L243.5 510.7L243.5 520.1L239.3 520.1L239.3 511.3Q239.3 508.5 236.9 508.5L236.9 508.5Q236.4 508.5 236.0 508.6Q235.5 508.8 235.1 509.0Q234.8 509.3 234.6 509.7Q234.4 510.1 234.4 510.6L234.4 510.6L234.4 520.1ZM247.4 520.1L247.4 500.5L254.2 500.5Q257.1 500.5 258.6 501.9Q260.2 503.3 260.2 505.8L260.2 505.8Q260.2 507.4 259.3 508.4Q258.5 509.4 257.0 509.9L257.0 509.9L257.0 510.0Q258.8 510.5 259.8 511.6Q260.8 512.7 260.8 514.7L260.8 514.7Q260.8 517.2 259.2 518.6Q257.7 520.1 254.9 520.1L254.9 520.1L247.4 520.1ZM251.4 517.2L253.6 517.2Q255.1 517.2 255.8 516.6Q256.5 516.1 256.5 514.8L256.5 514.8L256.5 514.0Q256.5 512.6 255.8 512.1Q255.1 511.6 253.6 511.6L253.6 511.6L251.4 511.6L251.4 517.2ZM251.4 508.8L253.0 508.8Q254.5 508.8 255.2 508.3Q255.9 507.9 255.9 506.6L255.9 506.6L255.9 505.7Q255.9 504.4 255.2 504.0Q254.5 503.5 253.0 503.5L253.0 503.5L251.4 503.5L251.4 508.8ZM271.9 511.7L274.0 505.6L278.3 505.6L271.5 522.4Q270.8 524.0 269.8 524.9Q268.7 525.7 266.8 525.7L266.8 525.7L264.0 525.7L264.0 522.5L267.5 522.5L268.4 520.0L262.5 505.6L267.0 505.6L269.1 511.7L270.4 515.9L270.6 515.9L271.9 511.7ZM293.7 520.1L288.3 520.1Q286.1 520.1 285.0 518.9Q283.9 517.7 283.9 515.9L283.9 515.9L283.9 508.9L280.0 508.9L280.0 505.6L282.5 505.6Q283.4 505.6 283.8 505.3Q284.2 504.9 284.2 503.9L284.2 503.9L284.2 500.5L288.0 500.5L288.0 505.6L293.7 505.6L293.7 508.9L288.0 508.9L288.0 516.9L293.7 516.9L293.7 520.1ZM304.4 520.4L304.4 520.4Q300.8 520.4 298.9 518.4Q297.0 516.4 297.0 512.9L297.0 512.9Q297.0 511.2 297.5 509.7Q298.0 508.3 298.9 507.3Q299.8 506.3 301.1 505.8Q302.4 505.3 304.0 505.3L304.0 505.3Q305.7 505.3 306.9 505.8Q308.2 506.3 309.1 507.3Q310.0 508.2 310.5 509.6Q311.0 511.0 311.0 512.6L311.0 512.6L311.0 513.9L301.1 513.9L301.1 514.1Q301.1 515.5 302.0 516.4Q302.9 517.2 304.5 517.2L304.5 517.2Q305.8 517.2 306.7 516.7Q307.7 516.3 308.3 515.4L308.3 515.4L310.6 517.9Q309.7 518.9 308.2 519.7Q306.7 520.4 304.4 520.4ZM304.1 508.3L304.1 508.3Q302.7 508.3 301.9 509.1Q301.1 509.9 301.1 511.3L301.1 511.3L301.1 511.6L306.9 511.6L306.9 511.3Q306.9 509.9 306.2 509.1Q305.4 508.3 304.1 508.3ZM320.6 520.4L320.6 520.4Q318.2 520.4 316.4 519.7Q314.7 519.0 313.8 517.7L313.8 517.7L316.1 515.6Q316.9 516.5 318.1 517.0Q319.2 517.5 320.7 517.5L320.7 517.5Q321.9 517.5 322.6 517.1Q323.3 516.8 323.3 516.0L323.3 516.0Q323.3 515.4 322.8 515.1Q322.3 514.9 321.5 514.7L321.5 514.7L319.2 514.4Q318.2 514.2 317.4 513.9Q316.5 513.7 315.9 513.1Q315.3 512.6 314.9 511.9Q314.6 511.2 314.6 510.2L314.6 510.2Q314.6 507.9 316.3 506.6Q318.0 505.3 321.2 505.3L321.2 505.3Q323.3 505.3 324.8 505.9Q326.3 506.5 327.2 507.5L327.2 507.5L325.1 509.9Q324.5 509.2 323.5 508.7Q322.5 508.2 321.0 508.2L321.0 508.2Q318.6 508.2 318.6 509.7L318.6 509.7Q318.6 510.3 319.1 510.6Q319.6 510.8 320.4 510.9L320.4 510.9L322.7 511.3Q323.7 511.4 324.5 511.7Q325.4 512.0 326.0 512.5Q326.6 513.0 327.0 513.8Q327.4 514.5 327.4 515.5L327.4 515.5Q327.4 517.8 325.6 519.1Q323.9 520.4 320.6 520.4Z " clip-path="url(#satori_cp-id-1-0-1-0-2)" mask="url(#satori_om-id-1-0-1-0-2)"/><clipPath id="satori_cp-id-1-0-1-1"><rect x="886" y="489" width="185" height="36"/></clipPath><mask id="satori_om-id-1-0-1-1"><rect x="886" y="489" width="185" height="36" fill="#fff"/></mask><path fill="black" d="M894.4 520.4L894.4 520.4Q890.5 520.4 888.6 517.8Q886.8 515.1 886.8 510.3L886.8 510.3Q886.8 505.5 888.6 502.9Q890.5 500.2 894.4 500.2L894.4 500.2Q898.3 500.2 900.2 502.9Q902.0 505.5 902.0 510.3L902.0 510.3Q902.0 515.1 900.2 517.8Q898.3 520.4 894.4 520.4ZM894.4 517.1L894.4 517.1Q896.3 517.1 897.0 515.8Q897.8 514.5 897.8 512.1L897.8 512.1L897.8 508.5Q897.8 506.1 897.0 504.8Q896.3 503.5 894.4 503.5L894.4 503.5Q892.5 503.5 891.8 504.8Q891.0 506.1 891.0 508.5L891.0 508.5L891.0 512.1Q891.0 514.5 891.8 515.8Q892.5 517.1 894.4 517.1ZM894.4 512.0L894.4 512.0Q893.4 512.0 893.0 511.6Q892.7 511.2 892.7 510.6L892.7 510.6L892.7 510.0Q892.7 509.5 893.0 509.1Q893.4 508.7 894.4 508.7L894.4 508.7Q895.4 508.7 895.8 509.1Q896.1 509.5 896.1 510.0L896.1 510.0L896.1 510.6Q896.1 511.2 895.8 511.6Q895.4 512.0 894.4 512.0ZM907.8 520.1L903.4 520.1L908.8 512.8L903.8 505.6L908.5 505.6L910.1 508.0L911.3 509.8L911.5 509.8L912.7 508.0L914.3 505.6L918.6 505.6L913.6 512.5L919.0 520.1L914.2 520.1L912.4 517.4L911.1 515.4L910.9 515.4L909.7 517.4L907.8 520.1ZM928.0 520.4L928.0 520.4Q924.1 520.4 922.2 517.8Q920.4 515.1 920.4 510.3L920.4 510.3Q920.4 505.5 922.2 502.9Q924.1 500.2 928.0 500.2L928.0 500.2Q931.9 500.2 933.8 502.9Q935.6 505.5 935.6 510.3L935.6 510.3Q935.6 515.1 933.8 517.8Q931.9 520.4 928.0 520.4ZM928.0 517.0L928.0 517.0Q929.8 517.0 930.5 515.7Q931.2 514.4 931.2 512.0L931.2 512.0L931.2 508.6Q931.2 506.3 930.5 504.9Q929.8 503.6 928.0 503.6L928.0 503.6Q926.2 503.6 925.5 504.9Q924.8 506.3 924.8 508.6L924.8 508.6L924.8 512.0Q924.8 514.4 925.5 515.7Q926.2 517.0 928.0 517.0ZM938.1 525.7L938.1 505.6L942.2 505.6L942.2 508.3L942.4 508.3Q942.9 507.0 943.9 506.1Q944.9 505.3 946.7 505.3L946.7 505.3Q947.9 505.3 948.9 505.8Q949.9 506.2 950.6 507.1Q951.3 508.1 951.7 509.5Q952.1 510.9 952.1 512.9L952.1 512.9Q952.1 514.8 951.7 516.3Q951.3 517.7 950.6 518.6Q949.9 519.5 948.9 520.0Q947.9 520.4 946.7 520.4L946.7 520.4Q944.9 520.4 943.9 519.6Q942.9 518.8 942.4 517.5L942.4 517.5L942.2 517.5L942.2 525.7L938.1 525.7ZM944.9 517.2L944.9 517.2Q946.3 517.2 947.0 516.4Q947.8 515.5 947.8 514.0L947.8 514.0L947.8 511.7Q947.8 510.2 947.0 509.4Q946.3 508.5 944.9 508.5L944.9 508.5Q943.8 508.5 943.0 509.1Q942.2 509.6 942.2 510.7L942.2 510.7L942.2 515.0Q942.2 516.1 943.0 516.7Q943.8 517.2 944.9 517.2ZM962.0 520.4L962.0 520.4Q958.4 520.4 956.5 518.4Q954.6 516.4 954.6 512.9L954.6 512.9Q954.6 511.2 955.1 509.7Q955.6 508.3 956.5 507.3Q957.4 506.3 958.7 505.8Q960.0 505.3 961.6 505.3L961.6 505.3Q963.3 505.3 964.5 505.8Q965.8 506.3 966.7 507.3Q967.6 508.2 968.1 509.6Q968.6 511.0 968.6 512.6L968.6 512.6L968.6 513.9L958.7 513.9L958.7 514.1Q958.7 515.5 959.6 516.4Q960.5 517.2 962.1 517.2L962.1 517.2Q963.4 517.2 964.3 516.7Q965.3 516.3 965.9 515.4L965.9 515.4L968.2 517.9Q967.3 518.9 965.8 519.7Q964.3 520.4 962.0 520.4ZM961.7 508.3L961.7 508.3Q960.3 508.3 959.5 509.1Q958.7 509.9 958.7 511.3L958.7 511.3L958.7 511.6L964.5 511.6L964.5 511.3Q964.5 509.9 963.8 509.1Q963.0 508.3 961.7 508.3ZM976.0 520.1L971.8 520.1L971.8 505.6L976.0 505.6L976.0 508.3L976.1 508.3Q976.4 507.7 976.7 507.1Q977.1 506.6 977.6 506.2Q978.1 505.8 978.8 505.5Q979.5 505.3 980.4 505.3L980.4 505.3Q981.4 505.3 982.3 505.7Q983.2 506.0 983.8 506.7Q984.4 507.4 984.7 508.4Q985.1 509.4 985.1 510.7L985.1 510.7L985.1 520.1L980.9 520.1L980.9 511.3Q980.9 508.5 978.5 508.5L978.5 508.5Q978.0 508.5 977.6 508.6Q977.1 508.8 976.7 509.0Q976.4 509.3 976.2 509.7Q976.0 510.1 976.0 510.6L976.0 510.6L976.0 520.1ZM989.0 520.1L989.0 500.5L995.8 500.5Q998.7 500.5 1000.2 501.9Q1001.8 503.3 1001.8 505.8L1001.8 505.8Q1001.8 507.4 1000.9 508.4Q1000.1 509.4 998.6 509.9L998.6 509.9L998.6 510.0Q1000.4 510.5 1001.4 511.6Q1002.4 512.7 1002.4 514.7L1002.4 514.7Q1002.4 517.2 1000.8 518.6Q999.3 520.1 996.5 520.1L996.5 520.1L989.0 520.1ZM993.0 517.2L995.2 517.2Q996.7 517.2 997.4 516.6Q998.1 516.1 998.1 514.8L998.1 514.8L998.1 514.0Q998.1 512.6 997.4 512.1Q996.7 511.6 995.2 511.6L995.2 511.6L993.0 511.6L993.0 517.2ZM993.0 508.8L994.6 508.8Q996.1 508.8 996.8 508.3Q997.5 507.9 997.5 506.6L997.5 506.6L997.5 505.7Q997.5 504.4 996.8 504.0Q996.1 503.5 994.6 503.5L994.6 503.5L993.0 503.5L993.0 508.8ZM1013.5 511.7L1015.6 505.6L1019.9 505.6L1013.1 522.4Q1012.4 524.0 1011.4 524.9Q1010.3 525.7 1008.4 525.7L1008.4 525.7L1005.6 525.7L1005.6 522.5L1009.1 522.5L1010.0 520.0L1004.1 505.6L1008.6 505.6L1010.7 511.7L1012.0 515.9L1012.2 515.9L1013.5 511.7ZM1035.3 520.1L1029.9 520.1Q1027.7 520.1 1026.6 518.9Q1025.5 517.7 1025.5 515.9L1025.5 515.9L1025.5 508.9L1021.6 508.9L1021.6 505.6L1024.1 505.6Q1025.0 505.6 1025.4 505.3Q1025.8 504.9 1025.8 503.9L1025.8 503.9L1025.8 500.5L1029.6 500.5L1029.6 505.6L1035.3 505.6L1035.3 508.9L1029.6 508.9L1029.6 516.9L1035.3 516.9L1035.3 520.1ZM1046.0 520.4L1046.0 520.4Q1042.4 520.4 1040.5 518.4Q1038.6 516.4 1038.6 512.9L1038.6 512.9Q1038.6 511.2 1039.1 509.7Q1039.6 508.3 1040.5 507.3Q1041.4 506.3 1042.7 505.8Q1044.0 505.3 1045.6 505.3L1045.6 505.3Q1047.3 505.3 1048.5 505.8Q1049.8 506.3 1050.7 507.3Q1051.6 508.2 1052.1 509.6Q1052.6 511.0 1052.6 512.6L1052.6 512.6L1052.6 513.9L1042.7 513.9L1042.7 514.1Q1042.7 515.5 1043.6 516.4Q1044.5 517.2 1046.1 517.2L1046.1 517.2Q1047.4 517.2 1048.3 516.7Q1049.3 516.3 1049.9 515.4L1049.9 515.4L1052.2 517.9Q1051.3 518.9 1049.8 519.7Q1048.3 520.4 1046.0 520.4ZM1045.7 508.3L1045.7 508.3Q1044.3 508.3 1043.5 509.1Q1042.7 509.9 1042.7 511.3L1042.7 511.3L1042.7 511.6L1048.5 511.6L1048.5 511.3Q1048.5 509.9 1047.8 509.1Q1047.0 508.3 1045.7 508.3ZM1062.2 520.4L1062.2 520.4Q1059.8 520.4 1058.0 519.7Q1056.3 519.0 1055.4 517.7L1055.4 517.7L1057.7 515.6Q1058.5 516.5 1059.7 517.0Q1060.8 517.5 1062.3 517.5L1062.3 517.5Q1063.5 517.5 1064.2 517.1Q1064.9 516.8 1064.9 516.0L1064.9 516.0Q1064.9 515.4 1064.4 515.1Q1063.9 514.9 1063.1 514.7L1063.1 514.7L1060.8 514.4Q1059.8 514.2 1059.0 513.9Q1058.1 513.7 1057.5 513.1Q1056.9 512.6 1056.5 511.9Q1056.2 511.2 1056.2 510.2L1056.2 510.2Q1056.2 507.9 1057.9 506.6Q1059.6 505.3 1062.8 505.3L1062.8 505.3Q1064.9 505.3 1066.4 505.9Q1067.9 506.5 1068.8 507.5L1068.8 507.5L1066.7 509.9Q1066.1 509.2 1065.1 508.7Q1064.1 508.2 1062.6 508.2L1062.6 508.2Q1060.2 508.2 1060.2 509.7L1060.2 509.7Q1060.2 510.3 1060.7 510.6Q1061.2 510.8 1062.0 510.9L1062.0 510.9L1064.3 511.3Q1065.3 511.4 1066.1 511.7Q1067.0 512.0 1067.6 512.5Q1068.2 513.0 1068.6 513.8Q1069.0 514.5 1069.0 515.5L1069.0 515.5Q1069.0 517.8 1067.2 519.1Q1065.5 520.4 1062.2 520.4Z " clip-path="url(#satori_cp-id-1-0-1-1)" mask="url(#satori_om-id-1-0-1-1)"/></svg>