<svg width="1200" height="630" viewBox="0 0 1200 630" xmlns="http://www.w3.org/2000/svg"><rect x="0" y="0" width="1200" height="630" fill="#fefbfb"/><defs><clipPath id="satori_bc-id-0"><path x="105" y="39" width="1056" height="504" d="M109,39 h1048 a4,4 0 0 1 4,4 v496 a4,4 0 0 1 -4,4 h-1048 a4,4 0 0 1 -4,-4 v-496 a4,4 0 0 1 4,-4"/></clipPath></defs><g opacity="0.9"><path x="105" y="39" width="1056" height="504" fill="#ecebeb" d="M109,39 h1048 a4,4 0 0 1 4,4 v496 a4,4 0 0 1 -4,4 h-1048 a4,4 0 0 1 -4,-4 v-496 a4,4 0 0 1 4,-4"/><path width="1056" height="504" clip-path="url(#satori_bc-id-0)" fill="none" stroke="#000" stroke-width="8" d="M106.172,40.172 A4,4 0 0 1 109,39 h1048 a4,4 0 0 1 4,4 v496 a4,4 0 0 1 -4,4 h-1048 a4,4 0 0 1 -4,-4 v-496 A4,4 0 0 1 106.172,40.172"/></g><defs><clipPath id="satori_bc-id-1"><path x="72" y="63" width="1056" height="504" d="M76,63 h1048 a4,4 0 0 1 4,4 v496 a4,4 0 0 1 -4,4 h-1048 a4,4 0 0 1 -4,-4 v-496 a4,4 0 0 1 4,-4"/></clipPath></defs><path x="72" y="63" width="1056" height="504" fill="#fefbfb" d="M76,63 h1048 a4,4 0 0 1 4,4 v496 a4,4 0 0 1 -4,4 h-1048 a4,4 0 0 1 -4,-4 v-496 a4,4 0 0 1 4,-4"/><path width="1056" height="504" clip-path="url(#satori_bc-id-1)" fill="none" stroke="#000" stroke-width="8" d="M73.172,64.172 A4,4 0 0 1 76,63 h1048 a4,4 0 0 1 4,4 v496 a4,4 0 0 1 -4,4 h-1048 a4,4 0 0 1 -4,-4 v-496 A4,4 0 0 1 73.172,64.172"/><clipPath id="satori_cp-id-1-0-0"><rect x="128" y="103" width="944" height="187"/></clipPath><mask id="satori_om-id-1-0-0"><rect x="128" y="103" width="944" height="187" fill="#fff"/></mask><path fill="black" d="M170.8 183.0L159.3 183.0L156.2 170.9L142.4 170.9L139.3 183.0L128.4 183.0L142.0 132.7L157.2 132.7L170.8 183.0ZM154.5 162.1L149.6 143.1L149.0 143.1L144.1 162.1L154.5 162.1ZM186.5 183.0L175.9 183.0L175.9 145.8L186.5 145.8L186.5 152.6L187.0 152.6Q187.6 151.0 188.6 149.6Q189.5 148.2 190.8 147.2Q192.2 146.2 193.9 145.5Q195.7 144.9 197.9 144.9L197.9 144.9Q200.6 144.9 202.8 145.8Q205.0 146.7 206.6 148.5Q208.2 150.3 209.1 152.9Q210.0 155.5 210.0 158.9L210.0 158.9L210.0 183.0L199.4 183.0L199.4 160.3Q199.4 153.1 193.1 153.1L193.1 153.1Q191.9 153.1 190.7 153.5Q189.5 153.8 188.6 154.5Q187.6 155.2 187.1 156.2Q186.5 157.2 186.5 158.5L186.5 158.5L186.5 183.0Z M295.4 183.0L263 183.0L263 175.0L273.8 175.0L273.8 140.7L263 140.7L263 132.7L295.4 132.7L295.4 140.7L284.6 140.7L284.6 175.0L295.4 175.0L295.4 183.0ZM316.1 183.0L305.5 183.0L305.5 145.8L316.1 145.8L316.1 152.6L316.6 152.6Q317.2 151.0 318.2 149.6Q319.1 148.2 320.4 147.2Q321.8 146.2 323.5 145.5Q325.3 144.9 327.5 144.9L327.5 144.9Q330.2 144.9 332.4 145.8Q334.6 146.7 336.2 148.5Q337.8 150.3 338.7 152.9Q339.6 155.5 339.6 158.9L339.6 158.9L339.6 183.0L329.0 183.0L329.0 160.3Q329.0 153.1 322.7 153.1L322.7 153.1Q321.5 153.1 320.3 153.5Q319.1 153.8 318.2 154.5Q317.2 155.2 316.7 156.2Q316.1 157.2 316.1 158.5L316.1 158.5L316.1 183.0ZM382.2 183.0L368.5 183.0Q362.7 183.0 359.9 179.9Q357.1 176.9 357.1 172.2L357.1 172.2L357.1 154.1L347.0 154.1L347.0 145.8L353.6 145.8Q356.0 145.8 357.0 144.9Q358.0 143.9 358.0 141.4L358.0 141.4L358.0 132.7L367.8 132.7L367.8 145.8L382.2 145.8L382.2 154.1L367.8 154.1L367.8 174.7L382.2 174.7L382.2 183.0ZM392.5 183.0L392.5 174.7L401.1 174.7L401.1 154.1L392.5 154.1L392.5 145.8L411.8 145.8L411.8 156.3L412.3 156.3Q412.8 154.3 413.7 152.4Q414.6 150.5 416.0 149.0Q417.4 147.5 419.4 146.7Q421.4 145.8 424.1 145.8L424.1 145.8L427.7 145.8L427.7 155.6L419.7 155.6Q415.8 155.6 413.8 157.9Q411.8 160.3 411.8 163.7L411.8 163.7L411.8 174.7L424.0 174.7L424.0 183.0L392.5 183.0ZM452 183.8L452 183.8Q447.7 183.8 444.2 182.5Q440.8 181.2 438.4 178.6Q435.9 176.1 434.6 172.5Q433.4 168.9 433.4 164.4L433.4 164.4Q433.4 159.8 434.6 156.2Q435.9 152.6 438.4 150.1Q440.8 147.6 444.2 146.3Q447.7 144.9 452 144.9L452 144.9Q456.3 144.9 459.8 146.3Q463.2 147.6 465.6 150.1Q468.1 152.6 469.4 156.2Q470.6 159.8 470.6 164.4L470.6 164.4Q470.6 168.9 469.4 172.5Q468.1 176.1 465.6 178.6Q463.2 181.2 459.8 182.5Q456.3 183.8 452 183.8ZM452 175.9L452 175.9Q455.6 175.9 457.6 173.7Q459.6 171.4 459.6 167.3L459.6 167.3L459.6 161.4Q459.6 157.3 457.6 155.1Q455.6 152.9 452 152.9L452 152.9Q448.4 152.9 446.4 155.1Q444.4 157.3 444.4 161.4L444.4 161.4L444.4 167.3Q444.4 171.4 446.4 173.7Q448.4 175.9 452 175.9ZM501.9 183.0L501.9 176.2L501.4 176.2Q500.0 179.6 497.4 181.7Q494.8 183.8 490.4 183.8L490.4 183.8Q487.3 183.8 484.7 182.7Q482.2 181.5 480.3 179.1Q478.5 176.8 477.5 173.1Q476.4 169.4 476.4 164.4L476.4 164.4Q476.4 159.3 477.5 155.7Q478.5 152.0 480.3 149.6Q482.2 147.2 484.7 146.1Q487.3 144.9 490.4 144.9L490.4 144.9Q492.6 144.9 494.3 145.5Q496.1 146.1 497.4 147.1Q498.7 148.1 499.7 149.5Q500.7 150.9 501.4 152.6L501.4 152.6L501.9 152.6L501.9 129.7L512.6 129.7L512.6 183.0L501.9 183.0ZM495.0 175.5L495.0 175.5Q497.8 175.5 499.8 174.2Q501.9 172.8 501.9 169.8L501.9 169.8L501.9 158.9Q501.9 156.0 499.8 154.6Q497.8 153.2 495.0 153.2L495.0 153.2Q491.4 153.2 489.4 155.4Q487.5 157.6 487.5 161.5L487.5 161.5L487.5 167.3Q487.5 171.1 489.4 173.3Q491.4 175.5 495.0 175.5ZM544.7 183.0L544.7 176.2L544.2 176.2Q543.0 179.4 540.4 181.6Q537.8 183.8 533.3 183.8L533.3 183.8Q530.6 183.8 528.4 182.9Q526.2 182.0 524.6 180.2Q523.0 178.4 522.1 175.8Q521.2 173.2 521.2 169.8L521.2 169.8L521.2 145.8L531.8 145.8L531.8 168.4Q531.8 175.6 538.1 175.6L538.1 175.6Q539.3 175.6 540.5 175.3Q541.7 175.0 542.6 174.3Q543.5 173.6 544.1 172.6Q544.7 171.6 544.7 170.2L544.7 170.2L544.7 145.8L555.3 145.8L555.3 183.0L544.7 183.0ZM583.1 183.8L583.1 183.8Q578.7 183.8 575.2 182.5Q571.7 181.2 569.3 178.6Q566.9 176.1 565.6 172.5Q564.3 168.9 564.3 164.4L564.3 164.4Q564.3 159.8 565.6 156.2Q566.9 152.6 569.3 150.1Q571.7 147.6 575.2 146.3Q578.7 144.9 583.0 144.9L583.0 144.9Q589.2 144.9 592.9 147.4Q596.6 149.9 598.5 154.0L598.5 154.0L590.3 158.5Q589.3 156.3 587.7 154.9Q586.1 153.4 583.0 153.4L583.0 153.4Q579.4 153.4 577.4 155.6Q575.4 157.7 575.4 161.4L575.4 161.4L575.4 167.4Q575.4 171.1 577.4 173.2Q579.4 175.3 583.2 175.3L583.2 175.3Q586.3 175.3 588.0 173.9Q589.8 172.4 591.0 170.1L591.0 170.1L599.1 174.7Q597.1 178.8 593.2 181.3Q589.4 183.8 583.1 183.8ZM641.4 183.0L627.7 183.0Q621.9 183.0 619.1 179.9Q616.3 176.9 616.3 172.2L616.3 172.2L616.3 154.1L606.2 154.1L606.2 145.8L612.8 145.8Q615.2 145.8 616.2 144.9Q617.2 143.9 617.2 141.4L617.2 141.4L617.2 132.7L627.0 132.7L627.0 145.8L641.4 145.8L641.4 154.1L627.0 154.1L627.0 174.7L641.4 174.7L641.4 183.0ZM670.3 141.0L670.3 141.0Q666.7 141.0 665.3 139.6Q663.9 138.1 663.9 136.0L663.9 136.0L663.9 133.9Q663.9 131.8 665.3 130.3Q666.7 128.9 670.3 128.9L670.3 128.9Q673.9 128.9 675.3 130.3Q676.7 131.8 676.7 133.9L676.7 133.9L676.7 136.0Q676.7 138.1 675.3 139.6Q673.9 141.0 670.3 141.0ZM653.2 183.0L653.2 174.7L665.0 174.7L665.0 154.1L653.2 154.1L653.2 145.8L675.6 145.8L675.6 174.7L686.6 174.7L686.6 183.0L653.2 183.0ZM711.2 183.8L711.2 183.8Q706.9 183.8 703.4 182.5Q700.0 181.2 697.6 178.6Q695.1 176.1 693.8 172.5Q692.6 168.9 692.6 164.4L692.6 164.4Q692.6 159.8 693.8 156.2Q695.1 152.6 697.6 150.1Q700.0 147.6 703.4 146.3Q706.9 144.9 711.2 144.9L711.2 144.9Q715.5 144.9 719.0 146.3Q722.4 147.6 724.8 150.1Q727.3 152.6 728.6 156.2Q729.8 159.8 729.8 164.4L729.8 164.4Q729.8 168.9 728.6 172.5Q727.3 176.1 724.8 178.6Q722.4 181.2 719.0 182.5Q715.5 183.8 711.2 183.8ZM711.2 175.9L711.2 175.9Q714.8 175.9 716.8 173.7Q718.8 171.4 718.8 167.3L718.8 167.3L718.8 161.4Q718.8 157.3 716.8 155.1Q714.8 152.9 711.2 152.9L711.2 152.9Q707.6 152.9 705.6 155.1Q703.6 157.3 703.6 161.4L703.6 161.4L703.6 167.3Q703.6 171.4 705.6 173.7Q707.6 175.9 711.2 175.9ZM748.1 183.0L737.5 183.0L737.5 145.8L748.1 145.8L748.1 152.6L748.6 152.6Q749.2 151.0 750.2 149.6Q751.1 148.2 752.4 147.2Q753.8 146.2 755.5 145.5Q757.3 144.9 759.5 144.9L759.5 144.9Q762.2 144.9 764.4 145.8Q766.6 146.7 768.2 148.5Q769.8 150.3 770.7 152.9Q771.6 155.5 771.6 158.9L771.6 158.9L771.6 183.0L761.0 183.0L761.0 160.3Q761.0 153.1 754.7 153.1L754.7 153.1Q753.5 153.1 752.3 153.5Q751.1 153.8 750.2 154.5Q749.2 155.2 748.7 156.2Q748.1 157.2 748.1 158.5L748.1 158.5L748.1 183.0Z M860.7 141.6L846.2 141.6L846.2 183.0L835.4 183.0L835.4 141.6L820.9 141.6L820.9 132.7L860.7 132.7L860.7 141.6ZM884.0 183.8L884.0 183.8Q879.7 183.8 876.2 182.5Q872.8 181.2 870.4 178.6Q867.9 176.1 866.6 172.5Q865.4 168.9 865.4 164.4L865.4 164.4Q865.4 159.8 866.6 156.2Q867.9 152.6 870.4 150.1Q872.8 147.6 876.2 146.3Q879.7 144.9 884.0 144.9L884.0 144.9Q888.3 144.9 891.8 146.3Q895.2 147.6 897.6 150.1Q900.1 152.6 901.4 156.2Q902.6 159.8 902.6 164.4L902.6 164.4Q902.6 168.9 901.4 172.5Q900.1 176.1 897.6 178.6Q895.2 181.2 891.8 182.5Q888.3 183.8 884.0 183.8ZM884.0 175.9L884.0 175.9Q887.6 175.9 889.6 173.7Q891.6 171.4 891.6 167.3L891.6 167.3L891.6 161.4Q891.6 157.3 889.6 155.1Q887.6 152.9 884.0 152.9L884.0 152.9Q880.4 152.9 878.4 155.1Q876.4 157.3 876.4 161.4L876.4 161.4L876.4 167.3Q876.4 171.4 878.4 173.7Q880.4 175.9 884.0 175.9Z M148.8 277.4L148.8 277.4Q142.5 277.4 137.8 275.3Q133.1 273.2 130.2 269.6L130.2 269.6L136.5 262.7Q139.2 265.8 142.5 267.2Q145.8 268.6 149.2 268.6L149.2 268.6Q153.1 268.6 155.1 266.9Q157.1 265.2 157.1 261.9L157.1 261.9Q157.1 259.3 155.5 257.9Q154.0 256.5 150.3 256.0L150.3 256.0L145.1 255.1Q138.3 253.9 135.3 250.1Q132.2 246.2 132.2 240.7L132.2 240.7Q132.2 233.4 137 229.4Q141.8 225.4 150.3 225.4L150.3 225.4Q156.2 225.4 160.5 227.2Q164.8 229.0 167.5 232.1L167.5 232.1L161.3 239.0Q159.3 236.7 156.6 235.5Q153.8 234.2 150.4 234.2L150.4 234.2Q143.1 234.2 143.1 240.2L143.1 240.2Q143.1 242.8 144.7 244.1Q146.4 245.4 150.0 246.0L150.0 246.0L155.3 247.0Q161.4 248.0 164.7 251.6Q168.0 255.1 168.0 261.1L168.0 261.1Q168.0 264.6 166.8 267.6Q165.6 270.6 163.1 272.8Q160.7 275.0 157.1 276.2Q153.6 277.4 148.8 277.4ZM176.1 276.6L171.7 239.4L180.6 239.4L183.2 269.5L183.9 269.5L188.3 239.4L197.7 239.4L202.0 269.5L202.7 269.5L205.5 239.4L213.9 239.4L209.5 276.6L196.8 276.6L193.2 250.9L192.4 250.9L188.8 276.6L176.1 276.6ZM238.3 234.6L238.3 234.6Q234.7 234.6 233.3 233.2Q231.9 231.7 231.9 229.6L231.9 229.6L231.9 227.5Q231.9 225.4 233.3 223.9Q234.7 222.5 238.3 222.5L238.3 222.5Q241.9 222.5 243.3 223.9Q244.7 225.4 244.7 227.5L244.7 227.5L244.7 229.6Q244.7 231.7 243.3 233.2Q241.9 234.6 238.3 234.6ZM221.2 276.6L221.2 268.3L233.0 268.3L233.0 247.7L221.2 247.7L221.2 239.4L243.6 239.4L243.6 268.3L254.6 268.3L254.6 276.6L221.2 276.6ZM262.7 276.6L262.7 268.3L273.7 268.3L273.7 247.7L262.0 247.7L262.0 239.4L273.7 239.4L273.7 234.0Q273.7 229.2 276.4 226.3Q279.2 223.3 285.0 223.3L285.0 223.3L297.6 223.3L297.6 231.6L284.3 231.6L284.3 239.4L297.6 239.4L297.6 247.7L284.3 247.7L284.3 268.3L296.0 268.3L296.0 276.6L262.7 276.6ZM339.0 276.6L325.3 276.6Q319.5 276.6 316.7 273.5Q313.9 270.5 313.9 265.8L313.9 265.8L313.9 247.7L303.8 247.7L303.8 239.4L310.4 239.4Q312.8 239.4 313.8 238.5Q314.8 237.5 314.8 235.0L314.8 235.0L314.8 226.3L324.6 226.3L324.6 239.4L339.0 239.4L339.0 247.7L324.6 247.7L324.6 268.3L339.0 268.3L339.0 276.6Z M410.0 277.4L410.0 277.4Q399.9 277.4 395.0 270.6Q390.2 263.8 390.2 251.4L390.2 251.4Q390.2 239.0 395.0 232.2Q399.9 225.4 410.0 225.4L410.0 225.4Q413.8 225.4 416.8 226.5Q419.8 227.5 422.0 229.4Q424.1 231.3 425.5 233.9Q426.9 236.6 427.7 239.9L427.7 239.9L417.7 242.4Q417.2 240.6 416.6 239.0Q416.1 237.5 415.2 236.4Q414.3 235.4 412.9 234.8Q411.6 234.1 409.7 234.1L409.7 234.1Q405.3 234.1 403.5 237.6Q401.7 241.0 401.7 247.0L401.7 247.0L401.7 255.8Q401.7 261.9 403.5 265.3Q405.3 268.7 409.7 268.7L409.7 268.7Q413.5 268.7 415.2 266.4Q416.9 264.1 417.7 260.5L417.7 260.5L427.7 262.9Q426.9 266.3 425.5 268.9Q424.1 271.6 422.0 273.5Q419.8 275.4 416.8 276.4Q413.8 277.4 410.0 277.4ZM435.1 276.6L435.1 223.3L445.7 223.3L445.7 246.2L446.2 246.2Q446.8 244.6 447.8 243.2Q448.7 241.8 450.0 240.8Q451.4 239.8 453.1 239.1Q454.9 238.5 457.1 238.5L457.1 238.5Q459.8 238.5 462.0 239.4Q464.2 240.3 465.8 242.1Q467.4 243.9 468.3 246.5Q469.2 249.1 469.2 252.5L469.2 252.5L469.2 276.6L458.6 276.6L458.6 253.9Q458.6 246.7 452.3 246.7L452.3 246.7Q451.1 246.7 449.9 247.1Q448.7 247.4 447.8 248.1Q446.8 248.8 446.3 249.8Q445.7 250.8 445.7 252.1L445.7 252.1L445.7 276.6L435.1 276.6ZM514.8 276.6L508.7 276.6Q505.4 276.6 503.3 274.9Q501.3 273.2 501.0 270.0L501.0 270.0L500.6 270.0Q499.6 273.7 496.6 275.5Q493.6 277.4 489.3 277.4L489.3 277.4Q483.9 277.4 480.6 274.5Q477.3 271.6 477.3 266.3L477.3 266.3Q477.3 260.5 481.6 257.7Q485.8 254.9 494.0 254.9L494.0 254.9L500.0 254.9L500.0 253.0Q500.0 249.7 498.5 248.0Q496.9 246.3 493.3 246.3L493.3 246.3Q489.9 246.3 487.8 247.6Q485.7 248.9 484.2 251.0L484.2 251.0L478.4 245.8Q480.2 242.6 484.2 240.6Q488.2 238.5 494.5 238.5L494.5 238.5Q502.1 238.5 506.4 242.0Q510.7 245.5 510.7 252.6L510.7 252.6L510.7 268.8L514.8 268.8L514.8 276.6ZM493.3 270.4L493.3 270.4Q496.1 270.4 498.1 269.1Q500.0 267.7 500.0 265.1L500.0 265.1L500.0 260.6L494.3 260.6Q487.8 260.6 487.8 265.0L487.8 265.0L487.8 266.5Q487.8 268.4 489.3 269.4Q490.8 270.4 493.3 270.4ZM522.1 276.6L522.1 268.3L530.7 268.3L530.7 247.7L522.1 247.7L522.1 239.4L541.4 239.4L541.4 249.9L541.9 249.9Q542.4 247.9 543.3 246.0Q544.2 244.1 545.6 242.6Q547.0 241.1 549.0 240.3Q551 239.4 553.7 239.4L553.7 239.4L557.3 239.4L557.3 249.2L549.3 249.2Q545.4 249.2 543.4 251.5Q541.4 253.9 541.4 257.3L541.4 257.3L541.4 268.3L553.6 268.3L553.6 276.6L522.1 276.6ZM598.2 276.6L584.5 276.6Q578.7 276.6 575.9 273.5Q573.1 270.5 573.1 265.8L573.1 265.8L573.1 247.7L563.0 247.7L563.0 239.4L569.6 239.4Q572.0 239.4 573.0 238.5Q574.0 237.5 574.0 235.0L574.0 235.0L574.0 226.3L583.8 226.3L583.8 239.4L598.2 239.4L598.2 247.7L583.8 247.7L583.8 268.3L598.2 268.3L598.2 276.6ZM624.4 277.4L624.4 277.4Q618.2 277.4 613.6 275.5Q609.0 273.7 606.7 270.4L606.7 270.4L612.7 264.9Q614.9 267.3 617.8 268.6Q620.7 269.9 624.4 269.9L624.4 269.9Q627.6 269.9 629.4 269.0Q631.2 268.0 631.2 266.0L631.2 266.0Q631.2 264.4 630.0 263.8Q628.8 263.2 626.6 262.8L626.6 262.8L620.6 261.9Q618.1 261.5 615.9 260.7Q613.8 260.0 612.2 258.7Q610.6 257.4 609.7 255.5Q608.7 253.7 608.7 251.0L608.7 251.0Q608.7 245.2 613.2 241.8Q617.7 238.5 625.7 238.5L625.7 238.5Q631.2 238.5 635.1 240.0Q638.9 241.5 641.2 244.2L641.2 244.2L635.9 250.3Q634.2 248.5 631.6 247.2Q629.0 246.0 625.4 246.0L625.4 246.0Q619.2 246.0 619.2 249.8L619.2 249.8Q619.2 251.4 620.4 252.0Q621.6 252.6 623.8 253.0L623.8 253.0L629.7 253.9Q632.2 254.3 634.4 255.1Q636.5 255.8 638.2 257.1Q639.8 258.4 640.7 260.3Q641.6 262.2 641.6 264.8L641.6 264.8Q641.6 270.6 637.1 274.0Q632.6 277.4 624.4 277.4Z " clip-path="url(#satori_cp-id-1-0-0)" mask="url(#satori_om-id-1-0-0)"/><path fill="black" d="M130.7 520.3L130.7 499.6L132.9 499.6L132.9 508.2L133.0 508.2Q134.4 505.5 137.5 505.5L137.5 505.5Q140.1 505.5 141.6 507.5Q143.1 509.5 143.1 513.0L143.1 513.0Q143.1 516.6 141.6 518.6Q140.1 520.6 137.5 520.6L137.5 520.6Q134.4 520.6 133.0 517.9L133.0 517.9L132.9 517.9L132.9 520.3L130.7 520.3ZM136.6 518.6L136.6 518.6Q138.6 518.6 139.6 517.4Q140.7 516.2 140.7 514.3L140.7 514.3L140.7 511.8Q140.7 509.9 139.6 508.7Q138.6 507.5 136.6 507.5L136.6 507.5Q135.8 507.5 135.2 507.7Q134.5 507.9 134.0 508.2Q133.5 508.6 133.2 509.2Q132.9 509.7 132.9 510.4L132.9 510.4L132.9 515.7Q132.9 516.4 133.2 516.9Q133.5 517.5 134.0 517.8Q134.5 518.2 135.2 518.4Q135.8 518.6 136.6 518.6ZM155.4 511.9L157.9 505.8L160.1 505.8L152.9 523.4Q152.7 524.1 152.4 524.5Q152.1 525.0 151.7 525.3Q151.2 525.6 150.7 525.7Q150.1 525.9 149.3 525.9L149.3 525.9L147.1 525.9L147.1 524.0L150.5 524.0L152.1 520.0L146.3 505.8L148.6 505.8L151.0 511.9L153.2 517.4L153.3 517.4L155.4 511.9Z "/><clipPath id="satori_cp-id-1-0-1-0-2"><rect x="178" y="489" width="151" height="36"/></clipPath><mask id="satori_om-id-1-0-1-0-2"><rect x="178" y="489" width="151" height="36" fill="#fff"/></mask><path fill="black" d="M186.4 520.4L186.4 520.4Q182.5 520.4 180.6 517.8Q178.8 515.1 178.8 510.3L178.8 510.3Q178.8 505.5 180.6 502.9Q182.5 500.2 186.4 500.2L186.4 500.2Q190.3 500.2 192.2 502.9Q194.0 505.5 194.0 510.3L194.0 510.3Q194.0 515.1 192.2 517.8Q190.3 520.4 186.4 520.4ZM186.4 517.0L186.4 517.0Q188.2 517.0 188.9 515.7Q189.6 514.4 189.6 512.0L189.6 512.0L189.6 508.6Q189.6 506.3 188.9 504.9Q188.2 503.6 186.4 503.6L186.4 503.6Q184.6 503.6 183.9 504.9Q183.2 506.3 183.2 508.6L183.2 508.6L183.2 512.0Q183.2 514.4 183.9 515.7Q184.6 517.0 186.4 517.0ZM196.5 525.7L196.5 505.6L200.6 505.6L200.6 508.3L200.8 508.3Q201.3 507.0 202.3 506.1Q203.3 505.3 205.1 505.3L205.1 505.3Q206.3 505.3 207.3 505.8Q208.3 506.2 209.0 507.1Q209.7 508.1 210.1 509.5Q210.5 510.9 210.5 512.9L210.5 512.9Q210.5 514.8 210.1 516.3Q209.7 517.7 209.0 518.6Q208.3 519.5 207.3 520.0Q206.3 520.4 205.1 520.4L205.1 520.4Q203.3 520.4 202.3 519.6Q201.3 518.8 200.8 517.5L200.8 517.5L200.6 517.5L200.6 525.7L196.5 525.7ZM203.3 517.2L203.3 517.2Q204.7 517.2 205.4 516.4Q206.2 515.5 206.2 514.0L206.2 514.0L206.2 511.7Q206.2 510.2 205.4 509.4Q204.7 508.5 203.3 508.5L203.3 508.5Q202.2 508.5 201.4 509.1Q200.6 509.6 200.6 510.7L200.6 510.7L200.6 515.0Q200.6 516.1 201.4 516.7Q202.2 517.2 203.3 517.2ZM220.4 520.4L220.4 520.4Q216.8 520.4 214.9 518.4Q213.0 516.4 213.0 512.9L213.0 512.9Q213.0 511.2 213.5 509.7Q214.0 508.3 214.9 507.3Q215.8 506.3 217.1 505.8Q218.4 505.3 220.0 505.3L220.0 505.3Q221.7 505.3 222.9 505.8Q224.2 506.3 225.1 507.3Q226.0 508.2 226.5 509.6Q227.0 511.0 227.0 512.6L227.0 512.6L227.0 513.9L217.1 513.9L217.1 514.1Q217.1 515.5 218.0 516.4Q218.9 517.2 220.5 517.2L220.5 517.2Q221.8 517.2 222.7 516.7Q223.7 516.3 224.3 515.4L224.3 515.4L226.6 517.9Q225.7 518.9 224.2 519.7Q222.7 520.4 220.4 520.4ZM220.1 508.3L220.1 508.3Q218.7 508.3 217.9 509.1Q217.1 509.9 217.1 511.3L217.1 511.3L217.1 511.6L222.9 511.6L222.9 511.3Q222.9 509.9 222.2 509.1Q221.4 508.3 220.1 508.3ZM234.4 520.1L230.2 520.1L230.2 505.6L234.4 505.6L234.4 508.3L234.5 508.3Q234.8 507.7 235.1 507.1Q235.5 506.6 236.0 506.2Q236.5 505.8 237.2 505.5Q237.9 505.3 238.8 505.3L238.8 505.3Q239.8 505.3 240.7 505.7Q241.6 506.0 242.2 506.7Q242.8 507.4 243.1 508.4Q243.5 509.4 243.5 510.7L243.5 510.7L243.5 520.1L239.3 520.1L239.3 511.3Q239.3 508.5 236.9 508.5L236.9 508.5Q236.4 508.5 236.0 508.6Q235.5 508.8 235.1 509.0Q234.8 509.3 234.6 509.7Q234.4 510.1 234.4 510.6L234.4 510.6L234.4 520.1ZM247.4 520.1L247.4 500.5L254.2 500.5Q257.1 500.5 258.6 501.9Q260.2 503.3 260.2 505.8L260.2 505.8Q260.2 507.4 259.3 508.4Q258.5 509.4 257.0 509.9L257.0 509.9L257.0 510.0Q258.8 510.5 259.8 511.6Q260.8 512.7 260.8 514.7L260.8 514.7Q260.8 517.2 259.2 518.6Q257.7 520.1 254.9 520.1L254.9 520.1L247.4 520.1ZM251.4 517.2L253.6 517.2Q255.1 517.2 255.8 516.6Q256.5 516.1 256.5 514.8L256.5 514.8L256.5 514.0Q256.5 512.6 255.8 512.1Q255.1 511.6 253.6 511.6L253.6 511.6L251.4 511.6L251.4 517.2ZM251.4 508.8L253.0 508.8Q254.5 508.8 255.2 508.3Q255.9 507.9 255.9 506.6L255.9 506.6L255.9 505.7Q255.9 504.4 255.2 504.0Q254.5 503.5 253.0 503.5L253.0 503.5L251.4 503.5L251.4 508.8ZM271.9 511.7L274.0 505.6L278.3 505.6L271.5 522.4Q270.8 524.0 269.8 524.9Q268.7 525.7 266.8 525.7L266.8 525.7L264.0 525.7L264.0 522.5L267.5 522.5L268.4 520.0L262.5 505.6L267.0 505.6L269.1 511.7L270.4 515.9L270.6 515.9L271.9 511.7ZM293.7 520.1L288.3 520.1Q286.1 520.1 285.0 518.9Q283.9 517.7 283.9 515.9L283.9 515.9L283.9 508.9L280.0 508.9L280.0 505.6L282.5 505.6Q283.4 505.6 283.8 505.3Q284.2 504.9 284.2 503.9L284.2 503.9L284.2 500.5L288.0 500.5L288.0 505.6L293.7 505.6L293.7 508.9L288.0 508.9L288.0 516.9L293.7 516.9L293.7 520.1ZM304.4 520.4L304.4 520.4Q300.8 520.4 298.9 518.4Q297.0 516.4 297.0 512.9L297.0 512.9Q297.0 511.2 297.5 509.7Q298.0 508.3 298.9 507.3Q299.8 506.3 301.1 505.8Q302.4 505.3 304.0 505.3L304.0 505.3Q305.7 505.3 306.9 505.8Q308.2 506.3 309.1 507.3Q310.0 508.2 310.5 509.6Q311.0 511.0 311.0 512.6L311.0 512.6L311.0 513.9L301.1 513.9L301.1 514.1Q301.1 515.5 302.0 516.4Q302.9 517.2 304.5 517.2L304.5 517.2Q305.8 517.2 306.7 516.7Q307.7 516.3 308.3 515.4L308.3 515.4L310.6 517.9Q309.7 518.9 308.2 519.7Q306.7 520.4 304.4 520.4ZM304.1 508.3L304.1 508.3Q302.7 508.3 301.9 509.1Q301.1 509.9 301.1 511.3L301.1 511.3L301.1 511.6L306.9 511.6L306.9 511.3Q306.9 509.9 306.2 509.1Q305.4 508.3 304.1 508.3ZM320.6 520.4L320.6 520.4Q318.2 520.4 316.4 519.7Q314.7 519.0 313.8 517.7L313.8 517.7L316.1 515.6Q316.9 516.5 318.1 517.0Q319.2 517.5 320.7 517.5L320.7 517.5Q321.9 517.5 322.6 517.1Q323.3 516.8 323.3 516.0L323.3 516.0Q323.3 515.4 322.8 515.1Q322.3 514.9 321.5 514.7L321.5 514.7L319.2 514.4Q318.2 514.2 317.4 513.9Q316.5 513.7 315.9 513.1Q315.3 512.6 314.9 511.9Q314.6 511.2 314.6 510.2L314.6 510.2Q314.6 507.9 316.3 506.6Q318.0 505.3 321.2 505.3L321.2 505.3Q323.3 505.3 324.8 505.9Q326.3 506.5 327.2 507.5L327.2 507.5L325.1 509.9Q324.5 509.2 323.5 508.7Q322.5 508.2 321.0 508.2L321.0 508.2Q318.6 508.2 318.6 509.7L318.6 509.7Q318.6 510.3 319.1 510.6Q319.6 510.8 320.4 510.9L320.4 510.9L322.7 511.3Q323.7 511.4 324.5 511.7Q325.4 512.0 326.0 512.5Q326.6 513.0 327.0 513.8Q327.4 514.5 327.4 515.5L327.4 515.5Q327.4 517.8 325.6 519.1Q323.9 520.4 320.6 520.4Z " clip-path="url(#satori_cp-id-1-0-1-0-2)" mask="url(#satori_om-id-1-0-1-0-2)"/><clipPath id="satori_cp-id-1-0-1-1"><rect x="886" y="489" width="185" height="36"/></clipPath><mask id="satori_om-id-1-0-1-1"><rect x="886" y="489" width="185" height="36" fill="#fff"/></mask><path fill="black" d="M894.4 520.4L894.4 520.4Q890.5 520.4 888.6 517.8Q886.8 515.1 886.8 510.3L886.8 510.3Q886.8 505.5 888.6 502.9Q890.5 500.2 894.4 500.2L894.4 500.2Q898.3 500.2 900.2 502.9Q902.0 505.5 902.0 510.3L902.0 510.3Q902.0 515.1 900.2 517.8Q898.3 520.4 894.4 520.4ZM894.4 517.1L894.4 517.1Q896.3 517.1 897.0 515.8Q897.8 514.5 897.8 512.1L897.8 512.1L897.8 508.5Q897.8 506.1 897.0 504.8Q896.3 503.5 894.4 503.5L894.4 503.5Q892.5 503.5 891.8 504.8Q891.0 506.1 891.0 508.5L891.0 508.5L891.0 512.1Q891.0 514.5 891.8 515.8Q892.5 517.1 894.4 517.1ZM894.4 512.0L894.4 512.0Q893.4 512.0 893.0 511.6Q892.7 511.2 892.7 510.6L892.7 510.6L892.7 510.0Q892.7 509.5 893.0 509.1Q893.4 508.7 894.4 508.7L894.4 508.7Q895.4 508.7 895.8 509.1Q896.1 509.5 896.1 510.0L896.1 510.0L896.1 510.6Q896.1 511.2 895.8 511.6Q895.4 512.0 894.4 512.0ZM907.8 520.1L903.4 520.1L908.8 512.8L903.8 505.6L908.5 505.6L910.1 508.0L911.3 509.8L911.5 509.8L912.7 508.0L914.3 505.6L918.6 505.6L913.6 512.5L919.0 520.1L914.2 520.1L912.4 517.4L911.1 515.4L910.9 515.4L909.7 517.4L907.8 520.1ZM928.0 520.4L928.0 520.4Q924.1 520.4 922.2 517.8Q920.4 515.1 920.4 510.3L920.4 510.3Q920.4 505.5 922.2 502.9Q924.1 500.2 928.0 500.2L928.0 500.2Q931.9 500.2 933.8 502.9Q935.6 505.5 935.6 510.3L935.6 510.3Q935.6 515.1 933.8 517.8Q931.9 520.4 928.0 520.4ZM928.0 517.0L928.0 517.0Q929.8 517.0 930.5 515.7Q931.2 514.4 931.2 512.0L931.2 512.0L931.2 508.6Q931.2 506.3 930.5 504.9Q929.8 503.6 928.0 503.6L928.0 503.6Q926.2 503.6 925.5 504.9Q924.8 506.3 924.8 508.6L924.8 508.6L924.8 512.0Q924.8 514.4 925.5 515.7Q926.2 517.0 928.0 517.0ZM938.1 525.7L938.1 505.6L942.2 505.6L942.2 508.3L942.4 508.3Q942.9 507.0 943.9 506.1Q944.9 505.3 946.7 505.3L946.7 505.3Q947.9 505.3 948.9 505.8Q949.9 506.2 950.6 507.1Q951.3 508.1 951.7 509.5Q952.1 510.9 952.1 512.9L952.1 512.9Q952.1 514.8 951.7 516.3Q951.3 517.7 950.6 518.6Q949.9 519.5 948.9 520.0Q947.9 520.4 946.7 520.4L946.7 520.4Q944.9 520.4 943.9 519.6Q942.9 518.8 942.4 517.5L942.4 517.5L942.2 517.5L942.2 525.7L938.1 525.7ZM944.9 517.2L944.9 517.2Q946.3 517.2 947.0 516.4Q947.8 515.5 947.8 514.0L947.8 514.0L947.8 511.7Q947.8 510.2 947.0 509.4Q946.3 508.5 944.9 508.5L944.9 508.5Q943.8 508.5 943.0 509.1Q942.2 509.6 942.2 510.7L942.2 510.7L942.2 515.0Q942.2 516.1 943.0 516.7Q943.8 517.2 944.9 517.2ZM962.0 520.4L962.0 520.4Q958.4 520.4 956.5 518.4Q954.6 516.4 954.6 512.9L954.6 512.9Q954.6 511.2 955.1 509.7Q955.6 508.3 956.5 507.3Q957.4 506.3 958.7 505.8Q960.0 505.3 961.6 505.3L961.6 505.3Q963.3 505.3 964.5 505.8Q965.8 506.3 966.7 507.3Q967.6 508.2 968.1 509.6Q968.6 511.0 968.6 512.6L968.6 512.6L968.6 513.9L958.7 513.9L958.7 514.1Q958.7 515.5 959.6 516.4Q960.5 517.2 962.1 517.2L962.1 517.2Q963.4 517.2 964.3 516.7Q965.3 516.3 965.9 515.4L965.9 515.4L968.2 517.9Q967.3 518.9 965.8 519.7Q964.3 520.4 962.0 520.4ZM961.7 508.3L961.7 508.3Q960.3 508.3 959.5 509.1Q958.7 509.9 958.7 511.3L958.7 511.3L958.7 511.6L964.5 511.6L964.5 511.3Q964.5 509.9 963.8 509.1Q963.0 508.3 961.7 508.3ZM976.0 520.1L971.8 520.1L971.8 505.6L976.0 505.6L976.0 508.3L976.1 508.3Q976.4 507.7 976.7 507.1Q977.1 506.6 977.6 506.2Q978.1 505.8 978.8 505.5Q979.5 505.3 980.4 505.3L980.4 505.3Q981.4 505.3 982.3 505.7Q983.2 506.0 983.8 506.7Q984.4 507.4 984.7 508.4Q985.1 509.4 985.1 510.7L985.1 510.7L985.1 520.1L980.9 520.1L980.9 511.3Q980.9 508.5 978.5 508.5L978.5 508.5Q978.0 508.5 977.6 508.6Q977.1 508.8 976.7 509.0Q976.4 509.3 976.2 509.7Q976.0 510.1 976.0 510.6L976.0 510.6L976.0 520.1ZM989.0 520.1L989.0 500.5L995.8 500.5Q998.7 500.5 1000.2 501.9Q1001.8 503.3 1001.8 505.8L1001.8 505.8Q1001.8 507.4 1000.9 508.4Q1000.1 509.4 998.6 509.9L998.6 509.9L998.6 510.0Q1000.4 510.5 1001.4 511.6Q1002.4 512.7 1002.4 514.7L1002.4 514.7Q1002.4 517.2 1000.8 518.6Q999.3 520.1 996.5 520.1L996.5 520.1L989.0 520.1ZM993.0 517.2L995.2 517.2Q996.7 517.2 997.4 516.6Q998.1 516.1 998.1 514.8L998.1 514.8L998.1 514.0Q998.1 512.6 997.4 512.1Q996.7 511.6 995.2 511.6L995.2 511.6L993.0 511.6L993.0 517.2ZM993.0 508.8L994.6 508.8Q996.1 508.8 996.8 508.3Q997.5 507.9 997.5 506.6L997.5 506.6L997.5 505.7Q997.5 504.4 996.8 504.0Q996.1 503.5 994.6 503.5L994.6 503.5L993.0 503.5L993.0 508.8ZM1013.5 511.7L1015.6 505.6L1019.9 505.6L1013.1 522.4Q1012.4 524.0 1011.4 524.9Q1010.3 525.7 1008.4 525.7L1008.4 525.7L1005.6 525.7L1005.6 522.5L1009.1 522.5L1010.0 520.0L1004.1 505.6L1008.6 505.6L1010.7 511.7L1012.0 515.9L1012.2 515.9L1013.5 511.7ZM1035.3 520.1L1029.9 520.1Q1027.7 520.1 1026.6 518.9Q1025.5 517.7 1025.5 515.9L1025.5 515.9L1025.5 508.9L1021.6 508.9L1021.6 505.6L1024.1 505.6Q1025.0 505.6 1025.4 505.3Q1025.8 504.9 1025.8 503.9L1025.8 503.9L1025.8 500.5L1029.6 500.5L1029.6 505.6L1035.3 505.6L1035.3 508.9L1029.6 508.9L1029.6 516.9L1035.3 516.9L1035.3 520.1ZM1046.0 520.4L1046.0 520.4Q1042.4 520.4 1040.5 518.4Q1038.6 516.4 1038.6 512.9L1038.6 512.9Q1038.6 511.2 1039.1 509.7Q1039.6 508.3 1040.5 507.3Q1041.4 506.3 1042.7 505.8Q1044.0 505.3 1045.6 505.3L1045.6 505.3Q1047.3 505.3 1048.5 505.8Q1049.8 506.3 1050.7 507.3Q1051.6 508.2 1052.1 509.6Q1052.6 511.0 1052.6 512.6L1052.6 512.6L1052.6 513.9L1042.7 513.9L1042.7 514.1Q1042.7 515.5 1043.6 516.4Q1044.5 517.2 1046.1 517.2L1046.1 517.2Q1047.4 517.2 1048.3 516.7Q1049.3 516.3 1049.9 515.4L1049.9 515.4L1052.2 517.9Q1051.3 518.9 1049.8 519.7Q1048.3 520.4 1046.0 520.4ZM1045.7 508.3L1045.7 508.3Q1044.3 508.3 1043.5 509.1Q1042.7 509.9 1042.7 511.3L1042.7 511.3L1042.7 511.6L1048.5 511.6L1048.5 511.3Q1048.5 509.9 1047.8 509.1Q1047.0 508.3 1045.7 508.3ZM1062.2 520.4L1062.2 520.4Q1059.8 520.4 1058.0 519.7Q1056.3 519.0 1055.4 517.7L1055.4 517.7L1057.7 515.6Q1058.5 516.5 1059.7 517.0Q1060.8 517.5 1062.3 517.5L1062.3 517.5Q1063.5 517.5 1064.2 517.1Q1064.9 516.8 1064.9 516.0L1064.9 516.0Q1064.9 515.4 1064.4 515.1Q1063.9 514.9 1063.1 514.7L1063.1 514.7L1060.8 514.4Q1059.8 514.2 1059.0 513.9Q1058.1 513.7 1057.5 513.1Q1056.9 512.6 1056.5 511.9Q1056.2 511.2 1056.2 510.2L1056.2 510.2Q1056.2 507.9 1057.9 506.6Q1059.6 505.3 1062.8 505.3L1062.8 505.3Q1064.9 505.3 1066.4 505.9Q1067.9 506.5 1068.8 507.5L1068.8 507.5L1066.7 509.9Q1066.1 509.2 1065.1 508.7Q1064.1 508.2 1062.6 508.2L1062.6 508.2Q1060.2 508.2 1060.2 509.7L1060.2 509.7Q1060.2 510.3 1060.7 510.6Q1061.2 510.8 1062.0 510.9L1062.0 510.9L1064.3 511.3Q1065.3 511.4 1066.1 511.7Q1067.0 512.0 1067.6 512.5Q1068.2 513.0 1068.6 513.8Q1069.0 514.5 1069.0 515.5L1069.0 515.5Q1069.0 517.8 1067.2 519.1Q1065.5 520.4 1062.2 520.4Z " clip-path="url(#satori_cp-id-1-0-1-1)" mask="url(#satori_om-id-1-0-1-1)"/></svg>