<svg width="1200" height="630" viewBox="0 0 1200 630" xmlns="http://www.w3.org/2000/svg"><rect x="0" y="0" width="1200" height="630" fill="#fefbfb"/><defs><clipPath id="satori_bc-id-0"><path x="105" y="39" width="1056" height="504" d="M109,39 h1048 a4,4 0 0 1 4,4 v496 a4,4 0 0 1 -4,4 h-1048 a4,4 0 0 1 -4,-4 v-496 a4,4 0 0 1 4,-4"/></clipPath></defs><g opacity="0.9"><path x="105" y="39" width="1056" height="504" fill="#ecebeb" d="M109,39 h1048 a4,4 0 0 1 4,4 v496 a4,4 0 0 1 -4,4 h-1048 a4,4 0 0 1 -4,-4 v-496 a4,4 0 0 1 4,-4"/><path width="1056" height="504" clip-path="url(#satori_bc-id-0)" fill="none" stroke="#000" stroke-width="8" d="M106.172,40.172 A4,4 0 0 1 109,39 h1048 a4,4 0 0 1 4,4 v496 a4,4 0 0 1 -4,4 h-1048 a4,4 0 0 1 -4,-4 v-496 A4,4 0 0 1 106.172,40.172"/></g><defs><clipPath id="satori_bc-id-1"><path x="72" y="63" width="1056" height="504" d="M76,63 h1048 a4,4 0 0 1 4,4 v496 a4,4 0 0 1 -4,4 h-1048 a4,4 0 0 1 -4,-4 v-496 a4,4 0 0 1 4,-4"/></clipPath></defs><path x="72" y="63" width="1056" height="504" fill="#fefbfb" d="M76,63 h1048 a4,4 0 0 1 4,4 v496 a4,4 0 0 1 -4,4 h-1048 a4,4 0 0 1 -4,-4 v-496 a4,4 0 0 1 4,-4"/><path width="1056" height="504" clip-path="url(#satori_bc-id-1)" fill="none" stroke="#000" stroke-width="8" d="M73.172,64.172 A4,4 0 0 1 76,63 h1048 a4,4 0 0 1 4,4 v496 a4,4 0 0 1 -4,4 h-1048 a4,4 0 0 1 -4,-4 v-496 A4,4 0 0 1 73.172,64.172"/><clipPath id="satori_cp-id-1-0-0"><rect x="128" y="103" width="944" height="187"/></clipPath><mask id="satori_om-id-1-0-0"><rect x="128" y="103" width="944" height="187" fill="#fff"/></mask><path fill="black" d="M165.9 183.0L133.8 183.0L133.8 132.7L165.9 132.7L165.9 141.6L144.6 141.6L144.6 153.1L165.2 153.1L165.2 161.9L144.6 161.9L144.6 174.1L165.9 174.1L165.9 183.0ZM176.1 183.0L176.1 174.7L187.5 174.7L187.5 138.0L176.1 138.0L176.1 129.7L198.1 129.7L198.1 174.7L209.5 174.7L209.5 183.0L176.1 183.0ZM238.3 141.0L238.3 141.0Q234.7 141.0 233.3 139.6Q231.9 138.1 231.9 136.0L231.9 136.0L231.9 133.9Q231.9 131.8 233.3 130.3Q234.7 128.9 238.3 128.9L238.3 128.9Q241.9 128.9 243.3 130.3Q244.7 131.8 244.7 133.9L244.7 133.9L244.7 136.0Q244.7 138.1 243.3 139.6Q241.9 141.0 238.3 141.0ZM221.2 183.0L221.2 174.7L233.0 174.7L233.0 154.1L221.2 154.1L221.2 145.8L243.6 145.8L243.6 174.7L254.6 174.7L254.6 183.0L221.2 183.0ZM268.3 183.0L259.8 183.0L259.8 145.8L268.3 145.8L268.3 151.3L268.8 151.3Q269.7 148.7 271.3 146.8Q272.9 144.9 275.9 144.9L275.9 144.9Q281.3 144.9 282.5 151.3L282.5 151.3L282.9 151.3Q283.4 150.0 284.0 148.8Q284.7 147.7 285.6 146.8Q286.5 145.9 287.8 145.4Q289.1 144.9 290.9 144.9L290.9 144.9Q298.6 144.9 298.6 156.4L298.6 156.4L298.6 183.0L290.1 183.0L290.1 157.5Q290.1 154.9 289.2 153.8Q288.3 152.8 286.8 152.8L286.8 152.8Q285.5 152.8 284.5 153.7Q283.5 154.6 283.5 156.5L283.5 156.5L283.5 183.0L274.9 183.0L274.9 157.5Q274.9 154.9 274.1 153.8Q273.2 152.8 271.8 152.8L271.8 152.8Q270.3 152.8 269.3 153.7Q268.3 154.6 268.3 156.5L268.3 156.5L268.3 183.0ZM324.7 141.0L324.7 141.0Q321.1 141.0 319.7 139.6Q318.3 138.1 318.3 136.0L318.3 136.0L318.3 133.9Q318.3 131.8 319.7 130.3Q321.1 128.9 324.7 128.9L324.7 128.9Q328.3 128.9 329.7 130.3Q331.1 131.8 331.1 133.9L331.1 133.9L331.1 136.0Q331.1 138.1 329.7 139.6Q328.3 141.0 324.7 141.0ZM307.6 183.0L307.6 174.7L319.4 174.7L319.4 154.1L307.6 154.1L307.6 145.8L330.0 145.8L330.0 174.7L341.0 174.7L341.0 183.0L307.6 183.0ZM359.3 183.0L348.7 183.0L348.7 145.8L359.3 145.8L359.3 152.6L359.8 152.6Q360.4 151.0 361.4 149.6Q362.3 148.2 363.6 147.2Q365.0 146.2 366.7 145.5Q368.5 144.9 370.7 144.9L370.7 144.9Q373.4 144.9 375.6 145.8Q377.8 146.7 379.4 148.5Q381.0 150.3 381.9 152.9Q382.8 155.5 382.8 158.9L382.8 158.9L382.8 183.0L372.2 183.0L372.2 160.3Q372.2 153.1 365.9 153.1L365.9 153.1Q364.7 153.1 363.5 153.5Q362.3 153.8 361.4 154.5Q360.4 155.2 359.9 156.2Q359.3 157.2 359.3 158.5L359.3 158.5L359.3 183.0ZM428.4 183.0L422.3 183.0Q419.0 183.0 416.9 181.3Q414.9 179.6 414.6 176.4L414.6 176.4L414.2 176.4Q413.2 180.1 410.2 181.9Q407.2 183.8 402.9 183.8L402.9 183.8Q397.5 183.8 394.2 180.9Q390.9 178.0 390.9 172.7L390.9 172.7Q390.9 166.9 395.2 164.1Q399.4 161.3 407.6 161.3L407.6 161.3L413.6 161.3L413.6 159.4Q413.6 156.1 412.1 154.4Q410.5 152.7 406.9 152.7L406.9 152.7Q403.5 152.7 401.4 154.0Q399.3 155.3 397.8 157.4L397.8 157.4L392.0 152.2Q393.8 149.0 397.8 147.0Q401.8 144.9 408.1 144.9L408.1 144.9Q415.7 144.9 420.0 148.4Q424.3 151.9 424.3 159.0L424.3 159.0L424.3 175.2L428.4 175.2L428.4 183.0ZM406.9 176.8L406.9 176.8Q409.7 176.8 411.7 175.5Q413.6 174.1 413.6 171.5L413.6 171.5L413.6 167.0L407.9 167.0Q401.4 167.0 401.4 171.4L401.4 171.4L401.4 172.9Q401.4 174.8 402.9 175.8Q404.4 176.8 406.9 176.8ZM468.6 183.0L454.9 183.0Q449.1 183.0 446.3 179.9Q443.5 176.9 443.5 172.2L443.5 172.2L443.5 154.1L433.4 154.1L433.4 145.8L440.0 145.8Q442.4 145.8 443.4 144.9Q444.4 143.9 444.4 141.4L444.4 141.4L444.4 132.7L454.2 132.7L454.2 145.8L468.6 145.8L468.6 154.1L454.2 154.1L454.2 174.7L468.6 174.7L468.6 183.0ZM497.5 141.0L497.5 141.0Q493.9 141.0 492.5 139.6Q491.1 138.1 491.1 136.0L491.1 136.0L491.1 133.9Q491.1 131.8 492.5 130.3Q493.9 128.9 497.5 128.9L497.5 128.9Q501.1 128.9 502.5 130.3Q503.9 131.8 503.9 133.9L503.9 133.9L503.9 136.0Q503.9 138.1 502.5 139.6Q501.1 141.0 497.5 141.0ZM480.4 183.0L480.4 174.7L492.2 174.7L492.2 154.1L480.4 154.1L480.4 145.8L502.8 145.8L502.8 174.7L513.8 174.7L513.8 183.0L480.4 183.0ZM532.1 183.0L521.5 183.0L521.5 145.8L532.1 145.8L532.1 152.6L532.6 152.6Q533.2 151.0 534.2 149.6Q535.1 148.2 536.4 147.2Q537.8 146.2 539.5 145.5Q541.3 144.9 543.5 144.9L543.5 144.9Q546.2 144.9 548.4 145.8Q550.6 146.7 552.2 148.5Q553.8 150.3 554.7 152.9Q555.6 155.5 555.6 158.9L555.6 158.9L555.6 183.0L545.0 183.0L545.0 160.3Q545.0 153.1 538.7 153.1L538.7 153.1Q537.5 153.1 536.3 153.5Q535.1 153.8 534.2 154.5Q533.2 155.2 532.7 156.2Q532.1 157.2 532.1 158.5L532.1 158.5L532.1 183.0ZM602.0 186.7L602.0 186.7Q602.0 192.6 597.0 195.4Q592.0 198.2 581.4 198.2L581.4 198.2Q576.1 198.2 572.6 197.6Q569.1 197.0 567.1 195.8Q565.0 194.7 564.2 193.1Q563.4 191.5 563.4 189.6L563.4 189.6Q563.4 186.5 565.3 184.9Q567.1 183.2 570.5 182.4L570.5 182.4L570.5 181.9Q568.1 181.2 566.7 179.9Q565.3 178.6 565.3 176.1L565.3 176.1Q565.3 173.4 567.2 172.1Q569 170.8 572.0 170.1L572.0 170.1L572.0 169.6Q568.7 168.0 566.9 165.2Q565.0 162.3 565.0 158.2L565.0 158.2Q565.0 154.9 566.2 152.5Q567.3 150.0 569.5 148.3Q571.6 146.7 574.5 145.8Q577.5 144.9 581.2 144.9L581.2 144.9Q584.7 144.9 587.7 145.7L587.7 145.7L587.7 143.7Q587.7 141.6 589.2 140.1Q590.7 138.7 593.4 138.7L593.4 138.7L600.0 138.7L600.0 146.4L591.0 146.4L591.0 147.1Q594.1 148.7 595.7 151.5Q597.4 154.2 597.4 158.2L597.4 158.2Q597.4 161.4 596.3 163.9Q595.1 166.3 593.0 168.0Q590.8 169.7 587.8 170.6Q584.8 171.4 581.2 171.4L581.2 171.4Q579.5 171.4 578 171.3Q576.5 171.1 575.1 170.7L575.1 170.7Q574.3 171.1 573.8 171.8Q573.2 172.4 573.2 173.4L573.2 173.4Q573.2 174.3 573.7 174.8Q574.1 175.3 574.9 175.6Q575.6 175.8 576.6 175.9Q577.6 176.0 578.7 176.0L578.7 176.0L587.2 176.0Q591.2 176.0 594.0 176.8Q596.8 177.6 598.6 179.0Q600.4 180.4 601.2 182.4Q602.0 184.3 602.0 186.7ZM591.9 187.5L591.9 187.5Q591.9 186.0 590.7 185.2Q589.6 184.4 586.4 184.4L586.4 184.4L573.6 184.4Q572.2 185.6 572.2 187.4L572.2 187.4Q572.2 189.1 573.6 190.3Q575.1 191.4 578.6 191.4L578.6 191.4L584.9 191.4Q588.6 191.4 590.2 190.4Q591.9 189.4 591.9 187.5ZM581.2 164.7L581.2 164.7Q584.4 164.7 585.9 163.1Q587.4 161.5 587.4 159.0L587.4 159.0L587.4 157.3Q587.4 154.9 585.9 153.3Q584.4 151.7 581.2 151.7L581.2 151.7Q578 151.7 576.6 153.3Q575.1 154.9 575.1 157.3L575.1 157.3L575.1 159.0Q575.1 161.5 576.6 163.1Q578 164.7 581.2 164.7Z M132.6 276.6L132.6 226.3L148.8 226.3Q159.0 226.3 163.9 232.8Q168.8 239.3 168.8 251.4L168.8 251.4Q168.8 263.6 163.9 270.1Q159.0 276.6 148.8 276.6L148.8 276.6L132.6 276.6ZM143.3 268.1L148.1 268.1Q152.9 268.1 155.1 265.0Q157.4 261.9 157.4 256.0L157.4 256.0L157.4 246.8Q157.4 241.0 155.1 237.9Q152.9 234.8 148.1 234.8L148.1 234.8L143.3 234.8L143.3 268.1ZM199.1 276.6L199.1 269.8L198.6 269.8Q197.4 273.0 194.8 275.2Q192.2 277.4 187.7 277.4L187.7 277.4Q185.0 277.4 182.8 276.5Q180.6 275.6 179.0 273.8Q177.4 272.0 176.5 269.4Q175.6 266.8 175.6 263.4L175.6 263.4L175.6 239.4L186.2 239.4L186.2 262.0Q186.2 269.2 192.5 269.2L192.5 269.2Q193.7 269.2 194.9 268.9Q196.1 268.6 197.0 267.9Q197.9 267.2 198.5 266.2Q199.1 265.2 199.1 263.8L199.1 263.8L199.1 239.4L209.7 239.4L209.7 276.6L199.1 276.6ZM218.6 291.0L218.6 239.4L229.3 239.4L229.3 246.2L229.8 246.2Q231.2 242.9 233.8 240.7Q236.4 238.5 240.8 238.5L240.8 238.5Q243.9 238.5 246.5 239.7Q249.0 240.8 250.9 243.2Q252.7 245.6 253.7 249.3Q254.8 252.9 254.8 258.0L254.8 258.0Q254.8 263.0 253.7 266.7Q252.7 270.4 250.9 272.7Q249.0 275.1 246.5 276.3Q243.9 277.4 240.8 277.4L240.8 277.4Q236.4 277.4 233.8 275.3Q231.2 273.2 229.8 269.8L229.8 269.8L229.3 269.8L229.3 291.0L218.6 291.0ZM236.2 269.1L236.2 269.1Q239.8 269.1 241.8 266.9Q243.7 264.7 243.7 260.9L243.7 260.9L243.7 255.1Q243.7 251.2 241.8 249.0Q239.8 246.8 236.2 246.8L236.2 246.8Q233.4 246.8 231.4 248.2Q229.3 249.6 229.3 252.5L229.3 252.5L229.3 263.4Q229.3 266.4 231.4 267.8Q233.4 269.1 236.2 269.1ZM262.5 276.6L262.5 268.3L273.9 268.3L273.9 231.6L262.5 231.6L262.5 223.3L284.5 223.3L284.5 268.3L295.9 268.3L295.9 276.6L262.5 276.6ZM324.7 234.6L324.7 234.6Q321.1 234.6 319.7 233.2Q318.3 231.7 318.3 229.6L318.3 229.6L318.3 227.5Q318.3 225.4 319.7 223.9Q321.1 222.5 324.7 222.5L324.7 222.5Q328.3 222.5 329.7 223.9Q331.1 225.4 331.1 227.5L331.1 227.5L331.1 229.6Q331.1 231.7 329.7 233.2Q328.3 234.6 324.7 234.6ZM307.6 276.6L307.6 268.3L319.4 268.3L319.4 247.7L307.6 247.7L307.6 239.4L330.0 239.4L330.0 268.3L341.0 268.3L341.0 276.6L307.6 276.6ZM367.1 277.4L367.1 277.4Q362.7 277.4 359.2 276.1Q355.7 274.8 353.3 272.2Q350.9 269.7 349.6 266.1Q348.3 262.5 348.3 258.0L348.3 258.0Q348.3 253.4 349.6 249.8Q350.9 246.2 353.3 243.7Q355.7 241.2 359.2 239.9Q362.7 238.5 367.0 238.5L367.0 238.5Q373.2 238.5 376.9 241.0Q380.6 243.5 382.5 247.6L382.5 247.6L374.3 252.1Q373.3 249.9 371.7 248.5Q370.1 247.0 367.0 247.0L367.0 247.0Q363.4 247.0 361.4 249.2Q359.4 251.3 359.4 255.0L359.4 255.0L359.4 261.0Q359.4 264.7 361.4 266.8Q363.4 268.9 367.2 268.9L367.2 268.9Q370.3 268.9 372.0 267.5Q373.8 266.0 375.0 263.7L375.0 263.7L383.1 268.3Q381.1 272.4 377.2 274.9Q373.4 277.4 367.1 277.4ZM428.4 276.6L422.3 276.6Q419.0 276.6 416.9 274.9Q414.9 273.2 414.6 270.0L414.6 270.0L414.2 270.0Q413.2 273.7 410.2 275.5Q407.2 277.4 402.9 277.4L402.9 277.4Q397.5 277.4 394.2 274.5Q390.9 271.6 390.9 266.3L390.9 266.3Q390.9 260.5 395.2 257.7Q399.4 254.9 407.6 254.9L407.6 254.9L413.6 254.9L413.6 253.0Q413.6 249.7 412.1 248.0Q410.5 246.3 406.9 246.3L406.9 246.3Q403.5 246.3 401.4 247.6Q399.3 248.9 397.8 251.0L397.8 251.0L392.0 245.8Q393.8 242.6 397.8 240.6Q401.8 238.5 408.1 238.5L408.1 238.5Q415.7 238.5 420.0 242.0Q424.3 245.5 424.3 252.6L424.3 252.6L424.3 268.8L428.4 268.8L428.4 276.6ZM406.9 270.4L406.9 270.4Q409.7 270.4 411.7 269.1Q413.6 267.7 413.6 265.1L413.6 265.1L413.6 260.6L407.9 260.6Q401.4 260.6 401.4 265.0L401.4 265.0L401.4 266.5Q401.4 268.4 402.9 269.4Q404.4 270.4 406.9 270.4ZM468.6 276.6L454.9 276.6Q449.1 276.6 446.3 273.5Q443.5 270.5 443.5 265.8L443.5 265.8L443.5 247.7L433.4 247.7L433.4 239.4L440.0 239.4Q442.4 239.4 443.4 238.5Q444.4 237.5 444.4 235.0L444.4 235.0L444.4 226.3L454.2 226.3L454.2 239.4L468.6 239.4L468.6 247.7L454.2 247.7L454.2 268.3L468.6 268.3L468.6 276.6ZM496.2 277.4L496.2 277.4Q486.8 277.4 482.0 272.2Q477.2 267.0 477.2 258.1L477.2 258.1Q477.2 253.6 478.5 249.9Q479.7 246.3 482.1 243.8Q484.4 241.2 487.7 239.9Q491.1 238.5 495.3 238.5L495.3 238.5Q499.4 238.5 502.8 239.9Q506.1 241.2 508.4 243.6Q510.7 246.1 511.9 249.6Q513.2 253.1 513.2 257.4L513.2 257.4L513.2 260.6L487.8 260.6L487.8 261.2Q487.8 264.8 490.0 267.0Q492.2 269.2 496.6 269.2L496.6 269.2Q499.9 269.2 502.3 267.9Q504.6 266.7 506.4 264.6L506.4 264.6L512.1 270.9Q510.0 273.5 506.1 275.5Q502.2 277.4 496.2 277.4ZM495.3 246.2L495.3 246.2Q491.9 246.2 489.8 248.3Q487.8 250.4 487.8 254.0L487.8 254.0L487.8 254.6L502.8 254.6L502.8 254.0Q502.8 250.3 500.8 248.3Q498.8 246.2 495.3 246.2ZM538.0 277.4L538.0 277.4Q531.8 277.4 527.2 275.5Q522.6 273.7 520.3 270.4L520.3 270.4L526.3 264.9Q528.5 267.3 531.4 268.6Q534.3 269.9 538.0 269.9L538.0 269.9Q541.2 269.9 543.0 269.0Q544.8 268.0 544.8 266.0L544.8 266.0Q544.8 264.4 543.6 263.8Q542.4 263.2 540.2 262.8L540.2 262.8L534.2 261.9Q531.7 261.5 529.5 260.7Q527.4 260.0 525.8 258.7Q524.2 257.4 523.3 255.5Q522.3 253.7 522.3 251.0L522.3 251.0Q522.3 245.2 526.8 241.8Q531.3 238.5 539.3 238.5L539.3 238.5Q544.8 238.5 548.7 240.0Q552.5 241.5 554.8 244.2L554.8 244.2L549.5 250.3Q547.8 248.5 545.2 247.2Q542.6 246.0 539.0 246.0L539.0 246.0Q532.8 246.0 532.8 249.8L532.8 249.8Q532.8 251.4 534.0 252.0Q535.2 252.6 537.4 253.0L537.4 253.0L543.3 253.9Q545.8 254.3 548.0 255.1Q550.1 255.8 551.8 257.1Q553.4 258.4 554.3 260.3Q555.2 262.2 555.2 264.8L555.2 264.8Q555.2 270.6 550.7 274.0Q546.2 277.4 538.0 277.4ZM627.1 234.6L627.1 234.6Q623.5 234.6 622.1 233.2Q620.7 231.7 620.7 229.6L620.7 229.6L620.7 227.5Q620.7 225.4 622.1 223.9Q623.5 222.5 627.1 222.5L627.1 222.5Q630.7 222.5 632.1 223.9Q633.5 225.4 633.5 227.5L633.5 227.5L633.5 229.6Q633.5 231.7 632.1 233.2Q630.7 234.6 627.1 234.6ZM610.0 276.6L610.0 268.3L621.8 268.3L621.8 247.7L610.0 247.7L610.0 239.4L632.4 239.4L632.4 268.3L643.4 268.3L643.4 276.6L610.0 276.6ZM661.7 276.6L651.1 276.6L651.1 239.4L661.7 239.4L661.7 246.2L662.2 246.2Q662.8 244.6 663.8 243.2Q664.7 241.8 666.0 240.8Q667.4 239.8 669.1 239.1Q670.9 238.5 673.1 238.5L673.1 238.5Q675.8 238.5 678.0 239.4Q680.2 240.3 681.8 242.1Q683.4 243.9 684.3 246.5Q685.2 249.1 685.2 252.5L685.2 252.5L685.2 276.6L674.6 276.6L674.6 253.9Q674.6 246.7 668.3 246.7L668.3 246.7Q667.1 246.7 665.9 247.1Q664.7 247.4 663.8 248.1Q662.8 248.8 662.3 249.8Q661.7 250.8 661.7 252.1L661.7 252.1L661.7 276.6ZM775.6 276.6L764.1 276.6L761.0 264.5L747.2 264.5L744.1 276.6L733.2 276.6L746.8 226.3L762.0 226.3L775.6 276.6ZM759.3 255.7L754.4 236.7L753.8 236.7L748.9 255.7L759.3 255.7ZM781.3 276.6L781.3 268.3L789.9 268.3L789.9 247.7L781.3 247.7L781.3 239.4L800.6 239.4L800.6 249.9L801.1 249.9Q801.6 247.9 802.5 246.0Q803.4 244.1 804.8 242.6Q806.2 241.1 808.2 240.3Q810.2 239.4 812.9 239.4L812.9 239.4L816.5 239.4L816.5 249.2L808.5 249.2Q804.6 249.2 802.6 251.5Q800.6 253.9 800.6 257.3L800.6 257.3L800.6 268.3L812.8 268.3L812.8 276.6L781.3 276.6ZM824.5 276.6L824.5 268.3L833.1 268.3L833.1 247.7L824.5 247.7L824.5 239.4L843.8 239.4L843.8 249.9L844.3 249.9Q844.8 247.9 845.7 246.0Q846.6 244.1 848.0 242.6Q849.4 241.1 851.4 240.3Q853.4 239.4 856.1 239.4L856.1 239.4L859.7 239.4L859.7 249.2L851.7 249.2Q847.8 249.2 845.8 251.5Q843.8 253.9 843.8 257.3L843.8 257.3L843.8 268.3L856.0 268.3L856.0 276.6L824.5 276.6ZM903.6 276.6L897.5 276.6Q894.2 276.6 892.1 274.9Q890.1 273.2 889.8 270.0L889.8 270.0L889.4 270.0Q888.4 273.7 885.4 275.5Q882.4 277.4 878.1 277.4L878.1 277.4Q872.7 277.4 869.4 274.5Q866.1 271.6 866.1 266.3L866.1 266.3Q866.1 260.5 870.4 257.7Q874.6 254.9 882.8 254.9L882.8 254.9L888.8 254.9L888.8 253.0Q888.8 249.7 887.3 248.0Q885.7 246.3 882.1 246.3L882.1 246.3Q878.7 246.3 876.6 247.6Q874.5 248.9 873.0 251.0L873.0 251.0L867.2 245.8Q869.0 242.6 873.0 240.6Q877.0 238.5 883.3 238.5L883.3 238.5Q890.9 238.5 895.2 242.0Q899.5 245.5 899.5 252.6L899.5 252.6L899.5 268.8L903.6 268.8L903.6 276.6ZM882.1 270.4L882.1 270.4Q884.9 270.4 886.9 269.1Q888.8 267.7 888.8 265.1L888.8 265.1L888.8 260.6L883.1 260.6Q876.6 260.6 876.6 265.0L876.6 265.0L876.6 266.5Q876.6 268.4 878.1 269.4Q879.6 270.4 882.1 270.4ZM931.0 255.0L936.6 239.4L947.4 239.4L929.9 282.5Q928.3 286.6 925.5 288.8Q922.8 291.0 918.1 291.0L918.1 291.0L910.7 291.0L910.7 282.7L919.6 282.7L921.9 276.3L907.0 239.4L918.4 239.4L923.8 255.0L927.2 265.8L927.8 265.8L931.0 255.0ZM970.0 277.4L970.0 277.4Q963.8 277.4 959.2 275.5Q954.6 273.7 952.3 270.4L952.3 270.4L958.3 264.9Q960.5 267.3 963.4 268.6Q966.3 269.9 970.0 269.9L970.0 269.9Q973.2 269.9 975.0 269.0Q976.8 268.0 976.8 266.0L976.8 266.0Q976.8 264.4 975.6 263.8Q974.4 263.2 972.2 262.8L972.2 262.8L966.2 261.9Q963.7 261.5 961.5 260.7Q959.4 260.0 957.8 258.7Q956.2 257.4 955.3 255.5Q954.3 253.7 954.3 251.0L954.3 251.0Q954.3 245.2 958.8 241.8Q963.3 238.5 971.3 238.5L971.3 238.5Q976.8 238.5 980.7 240.0Q984.5 241.5 986.8 244.2L986.8 244.2L981.5 250.3Q979.8 248.5 977.2 247.2Q974.6 246.0 971.0 246.0L971.0 246.0Q964.8 246.0 964.8 249.8L964.8 249.8Q964.8 251.4 966.0 252.0Q967.2 252.6 969.4 253.0L969.4 253.0L975.3 253.9Q977.8 254.3 980.0 255.1Q982.1 255.8 983.8 257.1Q985.4 258.4 986.3 260.3Q987.2 262.2 987.2 264.8L987.2 264.8Q987.2 270.6 982.7 274.0Q978.2 277.4 970.0 277.4Z " clip-path="url(#satori_cp-id-1-0-0)" mask="url(#satori_om-id-1-0-0)"/><path fill="black" d="M130.7 520.3L130.7 499.6L132.9 499.6L132.9 508.2L133.0 508.2Q134.4 505.5 137.5 505.5L137.5 505.5Q140.1 505.5 141.6 507.5Q143.1 509.5 143.1 513.0L143.1 513.0Q143.1 516.6 141.6 518.6Q140.1 520.6 137.5 520.6L137.5 520.6Q134.4 520.6 133.0 517.9L133.0 517.9L132.9 517.9L132.9 520.3L130.7 520.3ZM136.6 518.6L136.6 518.6Q138.6 518.6 139.6 517.4Q140.7 516.2 140.7 514.3L140.7 514.3L140.7 511.8Q140.7 509.9 139.6 508.7Q138.6 507.5 136.6 507.5L136.6 507.5Q135.8 507.5 135.2 507.7Q134.5 507.9 134.0 508.2Q133.5 508.6 133.2 509.2Q132.9 509.7 132.9 510.4L132.9 510.4L132.9 515.7Q132.9 516.4 133.2 516.9Q133.5 517.5 134.0 517.8Q134.5 518.2 135.2 518.4Q135.8 518.6 136.6 518.6ZM155.4 511.9L157.9 505.8L160.1 505.8L152.9 523.4Q152.7 524.1 152.4 524.5Q152.1 525.0 151.7 525.3Q151.2 525.6 150.7 525.7Q150.1 525.9 149.3 525.9L149.3 525.9L147.1 525.9L147.1 524.0L150.5 524.0L152.1 520.0L146.3 505.8L148.6 505.8L151.0 511.9L153.2 517.4L153.3 517.4L155.4 511.9Z "/><clipPath id="satori_cp-id-1-0-1-0-2"><rect x="178" y="489" width="151" height="36"/></clipPath><mask id="satori_om-id-1-0-1-0-2"><rect x="178" y="489" width="151" height="36" fill="#fff"/></mask><path fill="black" d="M186.4 520.4L186.4 520.4Q182.5 520.4 180.6 517.8Q178.8 515.1 178.8 510.3L178.8 510.3Q178.8 505.5 180.6 502.9Q182.5 500.2 186.4 500.2L186.4 500.2Q190.3 500.2 192.2 502.9Q194.0 505.5 194.0 510.3L194.0 510.3Q194.0 515.1 192.2 517.8Q190.3 520.4 186.4 520.4ZM186.4 517.0L186.4 517.0Q188.2 517.0 188.9 515.7Q189.6 514.4 189.6 512.0L189.6 512.0L189.6 508.6Q189.6 506.3 188.9 504.9Q188.2 503.6 186.4 503.6L186.4 503.6Q184.6 503.6 183.9 504.9Q183.2 506.3 183.2 508.6L183.2 508.6L183.2 512.0Q183.2 514.4 183.9 515.7Q184.6 517.0 186.4 517.0ZM196.5 525.7L196.5 505.6L200.6 505.6L200.6 508.3L200.8 508.3Q201.3 507.0 202.3 506.1Q203.3 505.3 205.1 505.3L205.1 505.3Q206.3 505.3 207.3 505.8Q208.3 506.2 209.0 507.1Q209.7 508.1 210.1 509.5Q210.5 510.9 210.5 512.9L210.5 512.9Q210.5 514.8 210.1 516.3Q209.7 517.7 209.0 518.6Q208.3 519.5 207.3 520.0Q206.3 520.4 205.1 520.4L205.1 520.4Q203.3 520.4 202.3 519.6Q201.3 518.8 200.8 517.5L200.8 517.5L200.6 517.5L200.6 525.7L196.5 525.7ZM203.3 517.2L203.3 517.2Q204.7 517.2 205.4 516.4Q206.2 515.5 206.2 514.0L206.2 514.0L206.2 511.7Q206.2 510.2 205.4 509.4Q204.7 508.5 203.3 508.5L203.3 508.5Q202.2 508.5 201.4 509.1Q200.6 509.6 200.6 510.7L200.6 510.7L200.6 515.0Q200.6 516.1 201.4 516.7Q202.2 517.2 203.3 517.2ZM220.4 520.4L220.4 520.4Q216.8 520.4 214.9 518.4Q213.0 516.4 213.0 512.9L213.0 512.9Q213.0 511.2 213.5 509.7Q214.0 508.3 214.9 507.3Q215.8 506.3 217.1 505.8Q218.4 505.3 220.0 505.3L220.0 505.3Q221.7 505.3 222.9 505.8Q224.2 506.3 225.1 507.3Q226.0 508.2 226.5 509.6Q227.0 511.0 227.0 512.6L227.0 512.6L227.0 513.9L217.1 513.9L217.1 514.1Q217.1 515.5 218.0 516.4Q218.9 517.2 220.5 517.2L220.5 517.2Q221.8 517.2 222.7 516.7Q223.7 516.3 224.3 515.4L224.3 515.4L226.6 517.9Q225.7 518.9 224.2 519.7Q222.7 520.4 220.4 520.4ZM220.1 508.3L220.1 508.3Q218.7 508.3 217.9 509.1Q217.1 509.9 217.1 511.3L217.1 511.3L217.1 511.6L222.9 511.6L222.9 511.3Q222.9 509.9 222.2 509.1Q221.4 508.3 220.1 508.3ZM234.4 520.1L230.2 520.1L230.2 505.6L234.4 505.6L234.4 508.3L234.5 508.3Q234.8 507.7 235.1 507.1Q235.5 506.6 236.0 506.2Q236.5 505.8 237.2 505.5Q237.9 505.3 238.8 505.3L238.8 505.3Q239.8 505.3 240.7 505.7Q241.6 506.0 242.2 506.7Q242.8 507.4 243.1 508.4Q243.5 509.4 243.5 510.7L243.5 510.7L243.5 520.1L239.3 520.1L239.3 511.3Q239.3 508.5 236.9 508.5L236.9 508.5Q236.4 508.5 236.0 508.6Q235.5 508.8 235.1 509.0Q234.8 509.3 234.6 509.7Q234.4 510.1 234.4 510.6L234.4 510.6L234.4 520.1ZM247.4 520.1L247.4 500.5L254.2 500.5Q257.1 500.5 258.6 501.9Q260.2 503.3 260.2 505.8L260.2 505.8Q260.2 507.4 259.3 508.4Q258.5 509.4 257.0 509.9L257.0 509.9L257.0 510.0Q258.8 510.5 259.8 511.6Q260.8 512.7 260.8 514.7L260.8 514.7Q260.8 517.2 259.2 518.6Q257.7 520.1 254.9 520.1L254.9 520.1L247.4 520.1ZM251.4 517.2L253.6 517.2Q255.1 517.2 255.8 516.6Q256.5 516.1 256.5 514.8L256.5 514.8L256.5 514.0Q256.5 512.6 255.8 512.1Q255.1 511.6 253.6 511.6L253.6 511.6L251.4 511.6L251.4 517.2ZM251.4 508.8L253.0 508.8Q254.5 508.8 255.2 508.3Q255.9 507.9 255.9 506.6L255.9 506.6L255.9 505.7Q255.9 504.4 255.2 504.0Q254.5 503.5 253.0 503.5L253.0 503.5L251.4 503.5L251.4 508.8ZM271.9 511.7L274.0 505.6L278.3 505.6L271.5 522.4Q270.8 524.0 269.8 524.9Q268.7 525.7 266.8 525.7L266.8 525.7L264.0 525.7L264.0 522.5L267.5 522.5L268.4 520.0L262.5 505.6L267.0 505.6L269.1 511.7L270.4 515.9L270.6 515.9L271.9 511.7ZM293.7 520.1L288.3 520.1Q286.1 520.1 285.0 518.9Q283.9 517.7 283.9 515.9L283.9 515.9L283.9 508.9L280.0 508.9L280.0 505.6L282.5 505.6Q283.4 505.6 283.8 505.3Q284.2 504.9 284.2 503.9L284.2 503.9L284.2 500.5L288.0 500.5L288.0 505.6L293.7 505.6L293.7 508.9L288.0 508.9L288.0 516.9L293.7 516.9L293.7 520.1ZM304.4 520.4L304.4 520.4Q300.8 520.4 298.9 518.4Q297.0 516.4 297.0 512.9L297.0 512.9Q297.0 511.2 297.5 509.7Q298.0 508.3 298.9 507.3Q299.8 506.3 301.1 505.8Q302.4 505.3 304.0 505.3L304.0 505.3Q305.7 505.3 306.9 505.8Q308.2 506.3 309.1 507.3Q310.0 508.2 310.5 509.6Q311.0 511.0 311.0 512.6L311.0 512.6L311.0 513.9L301.1 513.9L301.1 514.1Q301.1 515.5 302.0 516.4Q302.9 517.2 304.5 517.2L304.5 517.2Q305.8 517.2 306.7 516.7Q307.7 516.3 308.3 515.4L308.3 515.4L310.6 517.9Q309.7 518.9 308.2 519.7Q306.7 520.4 304.4 520.4ZM304.1 508.3L304.1 508.3Q302.7 508.3 301.9 509.1Q301.1 509.9 301.1 511.3L301.1 511.3L301.1 511.6L306.9 511.6L306.9 511.3Q306.9 509.9 306.2 509.1Q305.4 508.3 304.1 508.3ZM320.6 520.4L320.6 520.4Q318.2 520.4 316.4 519.7Q314.7 519.0 313.8 517.7L313.8 517.7L316.1 515.6Q316.9 516.5 318.1 517.0Q319.2 517.5 320.7 517.5L320.7 517.5Q321.9 517.5 322.6 517.1Q323.3 516.8 323.3 516.0L323.3 516.0Q323.3 515.4 322.8 515.1Q322.3 514.9 321.5 514.7L321.5 514.7L319.2 514.4Q318.2 514.2 317.4 513.9Q316.5 513.7 315.9 513.1Q315.3 512.6 314.9 511.9Q314.6 511.2 314.6 510.2L314.6 510.2Q314.6 507.9 316.3 506.6Q318.0 505.3 321.2 505.3L321.2 505.3Q323.3 505.3 324.8 505.9Q326.3 506.5 327.2 507.5L327.2 507.5L325.1 509.9Q324.5 509.2 323.5 508.7Q322.5 508.2 321.0 508.2L321.0 508.2Q318.6 508.2 318.6 509.7L318.6 509.7Q318.6 510.3 319.1 510.6Q319.6 510.8 320.4 510.9L320.4 510.9L322.7 511.3Q323.7 511.4 324.5 511.7Q325.4 512.0 326.0 512.5Q326.6 513.0 327.0 513.8Q327.4 514.5 327.4 515.5L327.4 515.5Q327.4 517.8 325.6 519.1Q323.9 520.4 320.6 520.4Z " clip-path="url(#satori_cp-id-1-0-1-0-2)" mask="url(#satori_om-id-1-0-1-0-2)"/><clipPath id="satori_cp-id-1-0-1-1"><rect x="886" y="489" width="185" height="36"/></clipPath><mask id="satori_om-id-1-0-1-1"><rect x="886" y="489" width="185" height="36" fill="#fff"/></mask><path fill="black" d="M894.4 520.4L894.4 520.4Q890.5 520.4 888.6 517.8Q886.8 515.1 886.8 510.3L886.8 510.3Q886.8 505.5 888.6 502.9Q890.5 500.2 894.4 500.2L894.4 500.2Q898.3 500.2 900.2 502.9Q902.0 505.5 902.0 510.3L902.0 510.3Q902.0 515.1 900.2 517.8Q898.3 520.4 894.4 520.4ZM894.4 517.1L894.4 517.1Q896.3 517.1 897.0 515.8Q897.8 514.5 897.8 512.1L897.8 512.1L897.8 508.5Q897.8 506.1 897.0 504.8Q896.3 503.5 894.4 503.5L894.4 503.5Q892.5 503.5 891.8 504.8Q891.0 506.1 891.0 508.5L891.0 508.5L891.0 512.1Q891.0 514.5 891.8 515.8Q892.5 517.1 894.4 517.1ZM894.4 512.0L894.4 512.0Q893.4 512.0 893.0 511.6Q892.7 511.2 892.7 510.6L892.7 510.6L892.7 510.0Q892.7 509.5 893.0 509.1Q893.4 508.7 894.4 508.7L894.4 508.7Q895.4 508.7 895.8 509.1Q896.1 509.5 896.1 510.0L896.1 510.0L896.1 510.6Q896.1 511.2 895.8 511.6Q895.4 512.0 894.4 512.0ZM907.8 520.1L903.4 520.1L908.8 512.8L903.8 505.6L908.5 505.6L910.1 508.0L911.3 509.8L911.5 509.8L912.7 508.0L914.3 505.6L918.6 505.6L913.6 512.5L919.0 520.1L914.2 520.1L912.4 517.4L911.1 515.4L910.9 515.4L909.7 517.4L907.8 520.1ZM928.0 520.4L928.0 520.4Q924.1 520.4 922.2 517.8Q920.4 515.1 920.4 510.3L920.4 510.3Q920.4 505.5 922.2 502.9Q924.1 500.2 928.0 500.2L928.0 500.2Q931.9 500.2 933.8 502.9Q935.6 505.5 935.6 510.3L935.6 510.3Q935.6 515.1 933.8 517.8Q931.9 520.4 928.0 520.4ZM928.0 517.0L928.0 517.0Q929.8 517.0 930.5 515.7Q931.2 514.4 931.2 512.0L931.2 512.0L931.2 508.6Q931.2 506.3 930.5 504.9Q929.8 503.6 928.0 503.6L928.0 503.6Q926.2 503.6 925.5 504.9Q924.8 506.3 924.8 508.6L924.8 508.6L924.8 512.0Q924.8 514.4 925.5 515.7Q926.2 517.0 928.0 517.0ZM938.1 525.7L938.1 505.6L942.2 505.6L942.2 508.3L942.4 508.3Q942.9 507.0 943.9 506.1Q944.9 505.3 946.7 505.3L946.7 505.3Q947.9 505.3 948.9 505.8Q949.9 506.2 950.6 507.1Q951.3 508.1 951.7 509.5Q952.1 510.9 952.1 512.9L952.1 512.9Q952.1 514.8 951.7 516.3Q951.3 517.7 950.6 518.6Q949.9 519.5 948.9 520.0Q947.9 520.4 946.7 520.4L946.7 520.4Q944.9 520.4 943.9 519.6Q942.9 518.8 942.4 517.5L942.4 517.5L942.2 517.5L942.2 525.7L938.1 525.7ZM944.9 517.2L944.9 517.2Q946.3 517.2 947.0 516.4Q947.8 515.5 947.8 514.0L947.8 514.0L947.8 511.7Q947.8 510.2 947.0 509.4Q946.3 508.5 944.9 508.5L944.9 508.5Q943.8 508.5 943.0 509.1Q942.2 509.6 942.2 510.7L942.2 510.7L942.2 515.0Q942.2 516.1 943.0 516.7Q943.8 517.2 944.9 517.2ZM962.0 520.4L962.0 520.4Q958.4 520.4 956.5 518.4Q954.6 516.4 954.6 512.9L954.6 512.9Q954.6 511.2 955.1 509.7Q955.6 508.3 956.5 507.3Q957.4 506.3 958.7 505.8Q960.0 505.3 961.6 505.3L961.6 505.3Q963.3 505.3 964.5 505.8Q965.8 506.3 966.7 507.3Q967.6 508.2 968.1 509.6Q968.6 511.0 968.6 512.6L968.6 512.6L968.6 513.9L958.7 513.9L958.7 514.1Q958.7 515.5 959.6 516.4Q960.5 517.2 962.1 517.2L962.1 517.2Q963.4 517.2 964.3 516.7Q965.3 516.3 965.9 515.4L965.9 515.4L968.2 517.9Q967.3 518.9 965.8 519.7Q964.3 520.4 962.0 520.4ZM961.7 508.3L961.7 508.3Q960.3 508.3 959.5 509.1Q958.7 509.9 958.7 511.3L958.7 511.3L958.7 511.6L964.5 511.6L964.5 511.3Q964.5 509.9 963.8 509.1Q963.0 508.3 961.7 508.3ZM976.0 520.1L971.8 520.1L971.8 505.6L976.0 505.6L976.0 508.3L976.1 508.3Q976.4 507.7 976.7 507.1Q977.1 506.6 977.6 506.2Q978.1 505.8 978.8 505.5Q979.5 505.3 980.4 505.3L980.4 505.3Q981.4 505.3 982.3 505.7Q983.2 506.0 983.8 506.7Q984.4 507.4 984.7 508.4Q985.1 509.4 985.1 510.7L985.1 510.7L985.1 520.1L980.9 520.1L980.9 511.3Q980.9 508.5 978.5 508.5L978.5 508.5Q978.0 508.5 977.6 508.6Q977.1 508.8 976.7 509.0Q976.4 509.3 976.2 509.7Q976.0 510.1 976.0 510.6L976.0 510.6L976.0 520.1ZM989.0 520.1L989.0 500.5L995.8 500.5Q998.7 500.5 1000.2 501.9Q1001.8 503.3 1001.8 505.8L1001.8 505.8Q1001.8 507.4 1000.9 508.4Q1000.1 509.4 998.6 509.9L998.6 509.9L998.6 510.0Q1000.4 510.5 1001.4 511.6Q1002.4 512.7 1002.4 514.7L1002.4 514.7Q1002.4 517.2 1000.8 518.6Q999.3 520.1 996.5 520.1L996.5 520.1L989.0 520.1ZM993.0 517.2L995.2 517.2Q996.7 517.2 997.4 516.6Q998.1 516.1 998.1 514.8L998.1 514.8L998.1 514.0Q998.1 512.6 997.4 512.1Q996.7 511.6 995.2 511.6L995.2 511.6L993.0 511.6L993.0 517.2ZM993.0 508.8L994.6 508.8Q996.1 508.8 996.8 508.3Q997.5 507.9 997.5 506.6L997.5 506.6L997.5 505.7Q997.5 504.4 996.8 504.0Q996.1 503.5 994.6 503.5L994.6 503.5L993.0 503.5L993.0 508.8ZM1013.5 511.7L1015.6 505.6L1019.9 505.6L1013.1 522.4Q1012.4 524.0 1011.4 524.9Q1010.3 525.7 1008.4 525.7L1008.4 525.7L1005.6 525.7L1005.6 522.5L1009.1 522.5L1010.0 520.0L1004.1 505.6L1008.6 505.6L1010.7 511.7L1012.0 515.9L1012.2 515.9L1013.5 511.7ZM1035.3 520.1L1029.9 520.1Q1027.7 520.1 1026.6 518.9Q1025.5 517.7 1025.5 515.9L1025.5 515.9L1025.5 508.9L1021.6 508.9L1021.6 505.6L1024.1 505.6Q1025.0 505.6 1025.4 505.3Q1025.8 504.9 1025.8 503.9L1025.8 503.9L1025.8 500.5L1029.6 500.5L1029.6 505.6L1035.3 505.6L1035.3 508.9L1029.6 508.9L1029.6 516.9L1035.3 516.9L1035.3 520.1ZM1046.0 520.4L1046.0 520.4Q1042.4 520.4 1040.5 518.4Q1038.6 516.4 1038.6 512.9L1038.6 512.9Q1038.6 511.2 1039.1 509.7Q1039.6 508.3 1040.5 507.3Q1041.4 506.3 1042.7 505.8Q1044.0 505.3 1045.6 505.3L1045.6 505.3Q1047.3 505.3 1048.5 505.8Q1049.8 506.3 1050.7 507.3Q1051.6 508.2 1052.1 509.6Q1052.6 511.0 1052.6 512.6L1052.6 512.6L1052.6 513.9L1042.7 513.9L1042.7 514.1Q1042.7 515.5 1043.6 516.4Q1044.5 517.2 1046.1 517.2L1046.1 517.2Q1047.4 517.2 1048.3 516.7Q1049.3 516.3 1049.9 515.4L1049.9 515.4L1052.2 517.9Q1051.3 518.9 1049.8 519.7Q1048.3 520.4 1046.0 520.4ZM1045.7 508.3L1045.7 508.3Q1044.3 508.3 1043.5 509.1Q1042.7 509.9 1042.7 511.3L1042.7 511.3L1042.7 511.6L1048.5 511.6L1048.5 511.3Q1048.5 509.9 1047.8 509.1Q1047.0 508.3 1045.7 508.3ZM1062.2 520.4L1062.2 520.4Q1059.8 520.4 1058.0 519.7Q1056.3 519.0 1055.4 517.7L1055.4 517.7L1057.7 515.6Q1058.5 516.5 1059.7 517.0Q1060.8 517.5 1062.3 517.5L1062.3 517.5Q1063.5 517.5 1064.2 517.1Q1064.9 516.8 1064.9 516.0L1064.9 516.0Q1064.9 515.4 1064.4 515.1Q1063.9 514.9 1063.1 514.7L1063.1 514.7L1060.8 514.4Q1059.8 514.2 1059.0 513.9Q1058.1 513.7 1057.5 513.1Q1056.9 512.6 1056.5 511.9Q1056.2 511.2 1056.2 510.2L1056.2 510.2Q1056.2 507.9 1057.9 506.6Q1059.6 505.3 1062.8 505.3L1062.8 505.3Q1064.9 505.3 1066.4 505.9Q1067.9 506.5 1068.8 507.5L1068.8 507.5L1066.7 509.9Q1066.1 509.2 1065.1 508.7Q1064.1 508.2 1062.6 508.2L1062.6 508.2Q1060.2 508.2 1060.2 509.7L1060.2 509.7Q1060.2 510.3 1060.7 510.6Q1061.2 510.8 1062.0 510.9L1062.0 510.9L1064.3 511.3Q1065.3 511.4 1066.1 511.7Q1067.0 512.0 1067.6 512.5Q1068.2 513.0 1068.6 513.8Q1069.0 514.5 1069.0 515.5L1069.0 515.5Q1069.0 517.8 1067.2 519.1Q1065.5 520.4 1062.2 520.4Z " clip-path="url(#satori_cp-id-1-0-1-1)" mask="url(#satori_om-id-1-0-1-1)"/></svg>