<svg width="1200" height="630" viewBox="0 0 1200 630" xmlns="http://www.w3.org/2000/svg"><rect x="0" y="0" width="1200" height="630" fill="#fefbfb"/><defs><clipPath id="satori_bc-id-0"><path x="105" y="39" width="1056" height="504" d="M109,39 h1048 a4,4 0 0 1 4,4 v496 a4,4 0 0 1 -4,4 h-1048 a4,4 0 0 1 -4,-4 v-496 a4,4 0 0 1 4,-4"/></clipPath></defs><g opacity="0.9"><path x="105" y="39" width="1056" height="504" fill="#ecebeb" d="M109,39 h1048 a4,4 0 0 1 4,4 v496 a4,4 0 0 1 -4,4 h-1048 a4,4 0 0 1 -4,-4 v-496 a4,4 0 0 1 4,-4"/><path width="1056" height="504" clip-path="url(#satori_bc-id-0)" fill="none" stroke="#000" stroke-width="8" d="M106.172,40.172 A4,4 0 0 1 109,39 h1048 a4,4 0 0 1 4,4 v496 a4,4 0 0 1 -4,4 h-1048 a4,4 0 0 1 -4,-4 v-496 A4,4 0 0 1 106.172,40.172"/></g><defs><clipPath id="satori_bc-id-1"><path x="72" y="63" width="1056" height="504" d="M76,63 h1048 a4,4 0 0 1 4,4 v496 a4,4 0 0 1 -4,4 h-1048 a4,4 0 0 1 -4,-4 v-496 a4,4 0 0 1 4,-4"/></clipPath></defs><path x="72" y="63" width="1056" height="504" fill="#fefbfb" d="M76,63 h1048 a4,4 0 0 1 4,4 v496 a4,4 0 0 1 -4,4 h-1048 a4,4 0 0 1 -4,-4 v-496 a4,4 0 0 1 4,-4"/><path width="1056" height="504" clip-path="url(#satori_bc-id-1)" fill="none" stroke="#000" stroke-width="8" d="M73.172,64.172 A4,4 0 0 1 76,63 h1048 a4,4 0 0 1 4,4 v496 a4,4 0 0 1 -4,4 h-1048 a4,4 0 0 1 -4,-4 v-496 A4,4 0 0 1 73.172,64.172"/><clipPath id="satori_cp-id-1-0-0"><rect x="128" y="103" width="944" height="187"/></clipPath><mask id="satori_om-id-1-0-0"><rect x="128" y="103" width="944" height="187" fill="#fff"/></mask><path fill="black" d="M165.8 183.0L133.4 183.0L133.4 175.0L144.2 175.0L144.2 140.7L133.4 140.7L133.4 132.7L165.8 132.7L165.8 140.7L155 140.7L155 175.0L165.8 175.0L165.8 183.0ZM181.9 183.0L173.4 183.0L173.4 145.8L181.9 145.8L181.9 151.3L182.4 151.3Q183.3 148.7 184.9 146.8Q186.5 144.9 189.5 144.9L189.5 144.9Q194.9 144.9 196.1 151.3L196.1 151.3L196.5 151.3Q197.0 150.0 197.6 148.8Q198.3 147.7 199.2 146.8Q200.1 145.9 201.4 145.4Q202.7 144.9 204.5 144.9L204.5 144.9Q212.2 144.9 212.2 156.4L212.2 156.4L212.2 183.0L203.7 183.0L203.7 157.5Q203.7 154.9 202.8 153.8Q201.9 152.8 200.4 152.8L200.4 152.8Q199.1 152.8 198.1 153.7Q197.1 154.6 197.1 156.5L197.1 156.5L197.1 183.0L188.5 183.0L188.5 157.5Q188.5 154.9 187.7 153.8Q186.8 152.8 185.4 152.8L185.4 152.8Q183.9 152.8 182.9 153.7Q181.9 154.6 181.9 156.5L181.9 156.5L181.9 183.0ZM218.6 197.4L218.6 145.8L229.3 145.8L229.3 152.6L229.8 152.6Q231.2 149.3 233.8 147.1Q236.4 144.9 240.8 144.9L240.8 144.9Q243.9 144.9 246.5 146.1Q249.0 147.2 250.9 149.6Q252.7 152.0 253.7 155.7Q254.8 159.3 254.8 164.4L254.8 164.4Q254.8 169.4 253.7 173.1Q252.7 176.8 250.9 179.1Q249.0 181.5 246.5 182.7Q243.9 183.8 240.8 183.8L240.8 183.8Q236.4 183.8 233.8 181.7Q231.2 179.6 229.8 176.2L229.8 176.2L229.3 176.2L229.3 197.4L218.6 197.4ZM236.2 175.5L236.2 175.5Q239.8 175.5 241.8 173.3Q243.7 171.1 243.7 167.3L243.7 167.3L243.7 161.5Q243.7 157.6 241.8 155.4Q239.8 153.2 236.2 153.2L236.2 153.2Q233.4 153.2 231.4 154.6Q229.3 156.0 229.3 158.9L229.3 158.9L229.3 169.8Q229.3 172.8 231.4 174.2Q233.4 175.5 236.2 175.5ZM262.9 183.0L262.9 174.7L271.5 174.7L271.5 154.1L262.9 154.1L262.9 145.8L282.2 145.8L282.2 156.3L282.7 156.3Q283.2 154.3 284.1 152.4Q285.0 150.5 286.4 149.0Q287.8 147.5 289.8 146.7Q291.8 145.8 294.5 145.8L294.5 145.8L298.1 145.8L298.1 155.6L290.1 155.6Q286.2 155.6 284.2 157.9Q282.2 160.3 282.2 163.7L282.2 163.7L282.2 174.7L294.4 174.7L294.4 183.0L262.9 183.0ZM322.4 183.8L322.4 183.8Q318.1 183.8 314.6 182.5Q311.2 181.2 308.8 178.6Q306.3 176.1 305.0 172.5Q303.8 168.9 303.8 164.4L303.8 164.4Q303.8 159.8 305.0 156.2Q306.3 152.6 308.8 150.1Q311.2 147.6 314.6 146.3Q318.1 144.9 322.4 144.9L322.4 144.9Q326.7 144.9 330.2 146.3Q333.6 147.6 336.0 150.1Q338.5 152.6 339.8 156.2Q341.0 159.8 341.0 164.4L341.0 164.4Q341.0 168.9 339.8 172.5Q338.5 176.1 336.0 178.6Q333.6 181.2 330.2 182.5Q326.7 183.8 322.4 183.8ZM322.4 175.9L322.4 175.9Q326.0 175.9 328.0 173.7Q330.0 171.4 330.0 167.3L330.0 167.3L330.0 161.4Q330.0 157.3 328.0 155.1Q326.0 152.9 322.4 152.9L322.4 152.9Q318.8 152.9 316.8 155.1Q314.8 157.3 314.8 161.4L314.8 161.4L314.8 167.3Q314.8 171.4 316.8 173.7Q318.8 175.9 322.4 175.9ZM371.9 183.0L359.3 183.0L345.9 145.8L357.2 145.8L362.0 161.7L365.5 174.1L366.1 174.1L369.6 161.7L374.5 145.8L385.3 145.8L371.9 183.0ZM411.1 141.0L411.1 141.0Q407.5 141.0 406.1 139.6Q404.7 138.1 404.7 136.0L404.7 136.0L404.7 133.9Q404.7 131.8 406.1 130.3Q407.5 128.9 411.1 128.9L411.1 128.9Q414.7 128.9 416.1 130.3Q417.5 131.8 417.5 133.9L417.5 133.9L417.5 136.0Q417.5 138.1 416.1 139.6Q414.7 141.0 411.1 141.0ZM394.0 183.0L394.0 174.7L405.8 174.7L405.8 154.1L394.0 154.1L394.0 145.8L416.4 145.8L416.4 174.7L427.4 174.7L427.4 183.0L394.0 183.0ZM445.7 183.0L435.1 183.0L435.1 145.8L445.7 145.8L445.7 152.6L446.2 152.6Q446.8 151.0 447.8 149.6Q448.7 148.2 450.0 147.2Q451.4 146.2 453.1 145.5Q454.9 144.9 457.1 144.9L457.1 144.9Q459.8 144.9 462.0 145.8Q464.2 146.7 465.8 148.5Q467.4 150.3 468.3 152.9Q469.2 155.5 469.2 158.9L469.2 158.9L469.2 183.0L458.6 183.0L458.6 160.3Q458.6 153.1 452.3 153.1L452.3 153.1Q451.1 153.1 449.9 153.5Q448.7 153.8 447.8 154.5Q446.8 155.2 446.3 156.2Q445.7 157.2 445.7 158.5L445.7 158.5L445.7 183.0ZM515.6 186.7L515.6 186.7Q515.6 192.6 510.6 195.4Q505.6 198.2 495.0 198.2L495.0 198.2Q489.7 198.2 486.2 197.6Q482.7 197.0 480.7 195.8Q478.6 194.7 477.8 193.1Q477.0 191.5 477.0 189.6L477.0 189.6Q477.0 186.5 478.9 184.9Q480.7 183.2 484.1 182.4L484.1 182.4L484.1 181.9Q481.7 181.2 480.3 179.9Q478.9 178.6 478.9 176.1L478.9 176.1Q478.9 173.4 480.8 172.1Q482.6 170.8 485.6 170.1L485.6 170.1L485.6 169.6Q482.3 168.0 480.5 165.2Q478.6 162.3 478.6 158.2L478.6 158.2Q478.6 154.9 479.8 152.5Q480.9 150.0 483.1 148.3Q485.2 146.7 488.1 145.8Q491.1 144.9 494.8 144.9L494.8 144.9Q498.3 144.9 501.3 145.7L501.3 145.7L501.3 143.7Q501.3 141.6 502.8 140.1Q504.3 138.7 507.0 138.7L507.0 138.7L513.6 138.7L513.6 146.4L504.6 146.4L504.6 147.1Q507.7 148.7 509.3 151.5Q511.0 154.2 511.0 158.2L511.0 158.2Q511.0 161.4 509.9 163.9Q508.7 166.3 506.6 168.0Q504.4 169.7 501.4 170.6Q498.4 171.4 494.8 171.4L494.8 171.4Q493.1 171.4 491.6 171.3Q490.1 171.1 488.7 170.7L488.7 170.7Q487.9 171.1 487.4 171.8Q486.8 172.4 486.8 173.4L486.8 173.4Q486.8 174.3 487.3 174.8Q487.7 175.3 488.5 175.6Q489.2 175.8 490.2 175.9Q491.2 176.0 492.3 176.0L492.3 176.0L500.8 176.0Q504.8 176.0 507.6 176.8Q510.4 177.6 512.2 179.0Q514.0 180.4 514.8 182.4Q515.6 184.3 515.6 186.7ZM505.5 187.5L505.5 187.5Q505.5 186.0 504.3 185.2Q503.2 184.4 500.0 184.4L500.0 184.4L487.2 184.4Q485.8 185.6 485.8 187.4L485.8 187.4Q485.8 189.1 487.2 190.3Q488.7 191.4 492.2 191.4L492.2 191.4L498.5 191.4Q502.2 191.4 503.8 190.4Q505.5 189.4 505.5 187.5ZM494.8 164.7L494.8 164.7Q498.0 164.7 499.5 163.1Q501.0 161.5 501.0 159.0L501.0 159.0L501.0 157.3Q501.0 154.9 499.5 153.3Q498.0 151.7 494.8 151.7L494.8 151.7Q491.6 151.7 490.2 153.3Q488.7 154.9 488.7 157.3L488.7 157.3L488.7 159.0Q488.7 161.5 490.2 163.1Q491.6 164.7 494.8 164.7ZM564.0 132.7L574.8 132.7L574.8 164.5Q574.8 166.9 574.9 168.9Q575.1 170.9 575.8 172.2Q576.5 173.6 577.9 174.3Q579.2 175.1 581.6 175.1L581.6 175.1Q584.0 175.1 585.3 174.3Q586.7 173.6 587.4 172.2Q588.1 170.9 588.3 168.9Q588.4 166.9 588.4 164.5L588.4 164.5L588.4 132.7L599.2 132.7L599.2 163.1Q599.2 168.3 598.6 172.2Q597.9 176.0 595.9 178.6Q594.0 181.2 590.5 182.5Q587.1 183.8 581.6 183.8L581.6 183.8Q576.1 183.8 572.7 182.5Q569.2 181.2 567.3 178.6Q565.3 176.0 564.6 172.2Q564.0 168.3 564.0 163.1L564.0 163.1L564.0 132.7ZM631.6 157.1L645.8 183.0L633.4 183.0L628.3 172.9L624.7 165.0L624.1 165.0L620.5 172.9L615.2 183.0L603.8 183.0L618.0 157.0L604.8 132.7L617.1 132.7L621.2 140.7L624.9 148.8L625.4 148.8L629.2 140.7L633.5 132.7L644.8 132.7L631.6 157.1ZM693.6 132.7L704.4 132.7L704.4 164.5Q704.4 166.9 704.5 168.9Q704.7 170.9 705.4 172.2Q706.1 173.6 707.5 174.3Q708.8 175.1 711.2 175.1L711.2 175.1Q713.6 175.1 714.9 174.3Q716.3 173.6 717.0 172.2Q717.7 170.9 717.9 168.9Q718.0 166.9 718.0 164.5L718.0 164.5L718.0 132.7L728.8 132.7L728.8 163.1Q728.8 168.3 728.2 172.2Q727.5 176.0 725.5 178.6Q723.6 181.2 720.1 182.5Q716.7 183.8 711.2 183.8L711.2 183.8Q705.7 183.8 702.3 182.5Q698.8 181.2 696.9 178.6Q694.9 176.0 694.2 172.2Q693.6 168.3 693.6 163.1L693.6 163.1L693.6 132.7ZM754.0 183.8L754.0 183.8Q747.8 183.8 743.2 181.9Q738.6 180.1 736.3 176.8L736.3 176.8L742.3 171.3Q744.5 173.7 747.4 175.0Q750.3 176.3 754.0 176.3L754.0 176.3Q757.2 176.3 759.0 175.4Q760.8 174.4 760.8 172.4L760.8 172.4Q760.8 170.8 759.6 170.2Q758.4 169.6 756.2 169.2L756.2 169.2L750.2 168.3Q747.7 167.9 745.5 167.1Q743.4 166.4 741.8 165.1Q740.2 163.8 739.3 161.9Q738.3 160.1 738.3 157.4L738.3 157.4Q738.3 151.6 742.8 148.2Q747.3 144.9 755.3 144.9L755.3 144.9Q760.8 144.9 764.7 146.4Q768.5 147.9 770.8 150.6L770.8 150.6L765.5 156.7Q763.8 154.9 761.2 153.6Q758.6 152.4 755.0 152.4L755.0 152.4Q748.8 152.4 748.8 156.2L748.8 156.2Q748.8 157.8 750.0 158.4Q751.2 159.0 753.4 159.4L753.4 159.4L759.3 160.3Q761.8 160.7 764.0 161.5Q766.1 162.2 767.8 163.5Q769.4 164.8 770.3 166.7Q771.2 168.6 771.2 171.2L771.2 171.2Q771.2 177.0 766.7 180.4Q762.2 183.8 754.0 183.8ZM799.9 141.0L799.9 141.0Q796.3 141.0 794.9 139.6Q793.5 138.1 793.5 136.0L793.5 136.0L793.5 133.9Q793.5 131.8 794.9 130.3Q796.3 128.9 799.9 128.9L799.9 128.9Q803.5 128.9 804.9 130.3Q806.3 131.8 806.3 133.9L806.3 133.9L806.3 136.0Q806.3 138.1 804.9 139.6Q803.5 141.0 799.9 141.0ZM782.8 183.0L782.8 174.7L794.6 174.7L794.6 154.1L782.8 154.1L782.8 145.8L805.2 145.8L805.2 174.7L816.2 174.7L816.2 183.0L782.8 183.0ZM834.5 183.0L823.9 183.0L823.9 145.8L834.5 145.8L834.5 152.6L835.0 152.6Q835.6 151.0 836.6 149.6Q837.5 148.2 838.8 147.2Q840.2 146.2 841.9 145.5Q843.7 144.9 845.9 144.9L845.9 144.9Q848.6 144.9 850.8 145.8Q853.0 146.7 854.6 148.5Q856.2 150.3 857.1 152.9Q858.0 155.5 858.0 158.9L858.0 158.9L858.0 183.0L847.4 183.0L847.4 160.3Q847.4 153.1 841.1 153.1L841.1 153.1Q839.9 153.1 838.7 153.5Q837.5 153.8 836.6 154.5Q835.6 155.2 835.1 156.2Q834.5 157.2 834.5 158.5L834.5 158.5L834.5 183.0ZM904.4 186.7L904.4 186.7Q904.4 192.6 899.4 195.4Q894.4 198.2 883.8 198.2L883.8 198.2Q878.5 198.2 875.0 197.6Q871.5 197.0 869.5 195.8Q867.4 194.7 866.6 193.1Q865.8 191.5 865.8 189.6L865.8 189.6Q865.8 186.5 867.7 184.9Q869.5 183.2 872.9 182.4L872.9 182.4L872.9 181.9Q870.5 181.2 869.1 179.9Q867.7 178.6 867.7 176.1L867.7 176.1Q867.7 173.4 869.6 172.1Q871.4 170.8 874.4 170.1L874.4 170.1L874.4 169.6Q871.1 168.0 869.3 165.2Q867.4 162.3 867.4 158.2L867.4 158.2Q867.4 154.9 868.6 152.5Q869.7 150.0 871.9 148.3Q874.0 146.7 876.9 145.8Q879.9 144.9 883.6 144.9L883.6 144.9Q887.1 144.9 890.1 145.7L890.1 145.7L890.1 143.7Q890.1 141.6 891.6 140.1Q893.1 138.7 895.8 138.7L895.8 138.7L902.4 138.7L902.4 146.4L893.4 146.4L893.4 147.1Q896.5 148.7 898.1 151.5Q899.8 154.2 899.8 158.2L899.8 158.2Q899.8 161.4 898.7 163.9Q897.5 166.3 895.4 168.0Q893.2 169.7 890.2 170.6Q887.2 171.4 883.6 171.4L883.6 171.4Q881.9 171.4 880.4 171.3Q878.9 171.1 877.5 170.7L877.5 170.7Q876.7 171.1 876.2 171.8Q875.6 172.4 875.6 173.4L875.6 173.4Q875.6 174.3 876.1 174.8Q876.5 175.3 877.3 175.6Q878.0 175.8 879.0 175.9Q880.0 176.0 881.1 176.0L881.1 176.0L889.6 176.0Q893.6 176.0 896.4 176.8Q899.2 177.6 901.0 179.0Q902.8 180.4 903.6 182.4Q904.4 184.3 904.4 186.7ZM894.3 187.5L894.3 187.5Q894.3 186.0 893.1 185.2Q892.0 184.4 888.8 184.4L888.8 184.4L876.0 184.4Q874.6 185.6 874.6 187.4L874.6 187.4Q874.6 189.1 876.0 190.3Q877.5 191.4 881.0 191.4L881.0 191.4L887.3 191.4Q891.0 191.4 892.6 190.4Q894.3 189.4 894.3 187.5ZM883.6 164.7L883.6 164.7Q886.8 164.7 888.3 163.1Q889.8 161.5 889.8 159.0L889.8 159.0L889.8 157.3Q889.8 154.9 888.3 153.3Q886.8 151.7 883.6 151.7L883.6 151.7Q880.4 151.7 879.0 153.3Q877.5 154.9 877.5 157.3L877.5 157.3L877.5 159.0Q877.5 161.5 879.0 163.1Q880.4 164.7 883.6 164.7Z M144.3 276.6L133.5 276.6L133.5 226.3L152.9 226.3Q156.6 226.3 159.5 227.4Q162.3 228.5 164.3 230.6Q166.3 232.7 167.3 235.7Q168.3 238.6 168.3 242.3L168.3 242.3Q168.3 246.0 167.3 248.9Q166.3 251.9 164.3 253.9Q162.3 256.0 159.5 257.1Q156.6 258.3 152.9 258.3L152.9 258.3L144.3 258.3L144.3 276.6ZM144.3 235.0L144.3 249.6L150.2 249.6Q154.0 249.6 155.5 248.1Q156.9 246.7 156.9 243.4L156.9 243.4L156.9 241.2Q156.9 237.9 155.5 236.4Q154.0 235.0 150.2 235.0L150.2 235.0L144.3 235.0ZM176.5 276.6L176.5 268.3L185.1 268.3L185.1 247.7L176.5 247.7L176.5 239.4L195.8 239.4L195.8 249.9L196.3 249.9Q196.8 247.9 197.7 246.0Q198.6 244.1 200.0 242.6Q201.4 241.1 203.4 240.3Q205.4 239.4 208.1 239.4L208.1 239.4L211.7 239.4L211.7 249.2L203.7 249.2Q199.8 249.2 197.8 251.5Q195.8 253.9 195.8 257.3L195.8 257.3L195.8 268.3L208.0 268.3L208.0 276.6L176.5 276.6ZM236.0 277.4L236.0 277.4Q231.7 277.4 228.2 276.1Q224.8 274.8 222.4 272.2Q219.9 269.7 218.6 266.1Q217.4 262.5 217.4 258.0L217.4 258.0Q217.4 253.4 218.6 249.8Q219.9 246.2 222.4 243.7Q224.8 241.2 228.2 239.9Q231.7 238.5 236.0 238.5L236.0 238.5Q240.3 238.5 243.8 239.9Q247.2 241.2 249.6 243.7Q252.1 246.2 253.4 249.8Q254.6 253.4 254.6 258.0L254.6 258.0Q254.6 262.5 253.4 266.1Q252.1 269.7 249.6 272.2Q247.2 274.8 243.8 276.1Q240.3 277.4 236.0 277.4ZM236.0 269.5L236.0 269.5Q239.6 269.5 241.6 267.3Q243.6 265.0 243.6 260.9L243.6 260.9L243.6 255.0Q243.6 250.9 241.6 248.7Q239.6 246.5 236.0 246.5L236.0 246.5Q232.4 246.5 230.4 248.7Q228.4 250.9 228.4 255.0L228.4 255.0L228.4 260.9Q228.4 265.0 230.4 267.3Q232.4 269.5 236.0 269.5ZM299.6 280.3L299.6 280.3Q299.6 286.2 294.6 289.0Q289.6 291.8 279.0 291.8L279.0 291.8Q273.7 291.8 270.2 291.2Q266.7 290.6 264.7 289.4Q262.6 288.3 261.8 286.7Q261.0 285.1 261.0 283.2L261.0 283.2Q261.0 280.1 262.9 278.5Q264.7 276.8 268.1 276.0L268.1 276.0L268.1 275.5Q265.7 274.8 264.3 273.5Q262.9 272.2 262.9 269.7L262.9 269.7Q262.9 267.0 264.8 265.7Q266.6 264.4 269.6 263.7L269.6 263.7L269.6 263.2Q266.3 261.6 264.5 258.8Q262.6 255.9 262.6 251.8L262.6 251.8Q262.6 248.5 263.8 246.1Q264.9 243.6 267.1 241.9Q269.2 240.3 272.1 239.4Q275.1 238.5 278.8 238.5L278.8 238.5Q282.3 238.5 285.3 239.3L285.3 239.3L285.3 237.3Q285.3 235.2 286.8 233.7Q288.3 232.3 291.0 232.3L291.0 232.3L297.6 232.3L297.6 240.0L288.6 240.0L288.6 240.7Q291.7 242.3 293.3 245.1Q295.0 247.8 295.0 251.8L295.0 251.8Q295.0 255.0 293.9 257.5Q292.7 259.9 290.6 261.6Q288.4 263.3 285.4 264.2Q282.4 265.0 278.8 265.0L278.8 265.0Q277.1 265.0 275.6 264.9Q274.1 264.7 272.7 264.3L272.7 264.3Q271.9 264.7 271.4 265.4Q270.8 266.0 270.8 267.0L270.8 267.0Q270.8 267.9 271.3 268.4Q271.7 268.9 272.5 269.2Q273.2 269.4 274.2 269.5Q275.2 269.6 276.3 269.6L276.3 269.6L284.8 269.6Q288.8 269.6 291.6 270.4Q294.4 271.2 296.2 272.6Q298.0 274.0 298.8 276.0Q299.6 277.9 299.6 280.3ZM289.5 281.1L289.5 281.1Q289.5 279.6 288.3 278.8Q287.2 278.0 284.0 278.0L284.0 278.0L271.2 278.0Q269.8 279.2 269.8 281.0L269.8 281.0Q269.8 282.7 271.2 283.9Q272.7 285.0 276.2 285.0L276.2 285.0L282.5 285.0Q286.2 285.0 287.8 284.0Q289.5 283.0 289.5 281.1ZM278.8 258.3L278.8 258.3Q282.0 258.3 283.5 256.7Q285.0 255.1 285.0 252.6L285.0 252.6L285.0 250.9Q285.0 248.5 283.5 246.9Q282.0 245.3 278.8 245.3L278.8 245.3Q275.6 245.3 274.2 246.9Q272.7 248.5 272.7 250.9L272.7 250.9L272.7 252.6Q272.7 255.1 274.2 256.7Q275.6 258.3 278.8 258.3ZM306.1 276.6L306.1 268.3L314.7 268.3L314.7 247.7L306.1 247.7L306.1 239.4L325.4 239.4L325.4 249.9L325.9 249.9Q326.4 247.9 327.3 246.0Q328.2 244.1 329.6 242.6Q331.0 241.1 333.0 240.3Q335.0 239.4 337.7 239.4L337.7 239.4L341.3 239.4L341.3 249.2L333.3 249.2Q329.4 249.2 327.4 251.5Q325.4 253.9 325.4 257.3L325.4 257.3L325.4 268.3L337.6 268.3L337.6 276.6L306.1 276.6ZM366.6 277.4L366.6 277.4Q357.2 277.4 352.4 272.2Q347.6 267.0 347.6 258.1L347.6 258.1Q347.6 253.6 348.9 249.9Q350.1 246.3 352.5 243.8Q354.8 241.2 358.1 239.9Q361.5 238.5 365.7 238.5L365.7 238.5Q369.8 238.5 373.2 239.9Q376.5 241.2 378.8 243.6Q381.1 246.1 382.3 249.6Q383.6 253.1 383.6 257.4L383.6 257.4L383.6 260.6L358.2 260.6L358.2 261.2Q358.2 264.8 360.4 267.0Q362.6 269.2 367.0 269.2L367.0 269.2Q370.3 269.2 372.7 267.9Q375.0 266.7 376.8 264.6L376.8 264.6L382.5 270.9Q380.4 273.5 376.5 275.5Q372.6 277.4 366.6 277.4ZM365.7 246.2L365.7 246.2Q362.3 246.2 360.2 248.3Q358.2 250.4 358.2 254.0L358.2 254.0L358.2 254.6L373.2 254.6L373.2 254.0Q373.2 250.3 371.2 248.3Q369.2 246.2 365.7 246.2ZM408.4 277.4L408.4 277.4Q402.2 277.4 397.6 275.5Q393.0 273.7 390.7 270.4L390.7 270.4L396.7 264.9Q398.9 267.3 401.8 268.6Q404.7 269.9 408.4 269.9L408.4 269.9Q411.6 269.9 413.4 269.0Q415.2 268.0 415.2 266.0L415.2 266.0Q415.2 264.4 414.0 263.8Q412.8 263.2 410.6 262.8L410.6 262.8L404.6 261.9Q402.1 261.5 399.9 260.7Q397.8 260.0 396.2 258.7Q394.6 257.4 393.7 255.5Q392.7 253.7 392.7 251.0L392.7 251.0Q392.7 245.2 397.2 241.8Q401.7 238.5 409.7 238.5L409.7 238.5Q415.2 238.5 419.1 240.0Q422.9 241.5 425.2 244.2L425.2 244.2L419.9 250.3Q418.2 248.5 415.6 247.2Q413.0 246.0 409.4 246.0L409.4 246.0Q403.2 246.0 403.2 249.8L403.2 249.8Q403.2 251.4 404.4 252.0Q405.6 252.6 407.8 253.0L407.8 253.0L413.7 253.9Q416.2 254.3 418.4 255.1Q420.5 255.8 422.2 257.1Q423.8 258.4 424.7 260.3Q425.6 262.2 425.6 264.8L425.6 264.8Q425.6 270.6 421.1 274.0Q416.6 277.4 408.4 277.4ZM451.6 277.4L451.6 277.4Q445.4 277.4 440.8 275.5Q436.2 273.7 433.9 270.4L433.9 270.4L439.9 264.9Q442.1 267.3 445.0 268.6Q447.9 269.9 451.6 269.9L451.6 269.9Q454.8 269.9 456.6 269.0Q458.4 268.0 458.4 266.0L458.4 266.0Q458.4 264.4 457.2 263.8Q456.0 263.2 453.8 262.8L453.8 262.8L447.8 261.9Q445.3 261.5 443.1 260.7Q441.0 260.0 439.4 258.7Q437.8 257.4 436.9 255.5Q435.9 253.7 435.9 251.0L435.9 251.0Q435.9 245.2 440.4 241.8Q444.9 238.5 452.9 238.5L452.9 238.5Q458.4 238.5 462.3 240.0Q466.1 241.5 468.4 244.2L468.4 244.2L463.1 250.3Q461.4 248.5 458.8 247.2Q456.2 246.0 452.6 246.0L452.6 246.0Q446.4 246.0 446.4 249.8L446.4 249.8Q446.4 251.4 447.6 252.0Q448.8 252.6 451.0 253.0L451.0 253.0L456.9 253.9Q459.4 254.3 461.6 255.1Q463.7 255.8 465.4 257.1Q467.0 258.4 467.9 260.3Q468.8 262.2 468.8 264.8L468.8 264.8Q468.8 270.6 464.3 274.0Q459.8 277.4 451.6 277.4ZM502.8 276.6L487.6 276.6L474.2 226.3L486.3 226.3L492.2 251.9L495.1 266.3L495.7 266.3L498.7 251.9L504.7 226.3L516.2 226.3L502.8 276.6ZM540.7 234.6L540.7 234.6Q537.1 234.6 535.7 233.2Q534.3 231.7 534.3 229.6L534.3 229.6L534.3 227.5Q534.3 225.4 535.7 223.9Q537.1 222.5 540.7 222.5L540.7 222.5Q544.3 222.5 545.7 223.9Q547.1 225.4 547.1 227.5L547.1 227.5L547.1 229.6Q547.1 231.7 545.7 233.2Q544.3 234.6 540.7 234.6ZM523.6 276.6L523.6 268.3L535.4 268.3L535.4 247.7L523.6 247.7L523.6 239.4L546.0 239.4L546.0 268.3L557.0 268.3L557.0 276.6L523.6 276.6ZM582.6 277.4L582.6 277.4Q573.2 277.4 568.4 272.2Q563.6 267.0 563.6 258.1L563.6 258.1Q563.6 253.6 564.9 249.9Q566.1 246.3 568.5 243.8Q570.8 241.2 574.1 239.9Q577.5 238.5 581.7 238.5L581.7 238.5Q585.8 238.5 589.2 239.9Q592.5 241.2 594.8 243.6Q597.1 246.1 598.3 249.6Q599.6 253.1 599.6 257.4L599.6 257.4L599.6 260.6L574.2 260.6L574.2 261.2Q574.2 264.8 576.4 267.0Q578.6 269.2 583.0 269.2L583.0 269.2Q586.3 269.2 588.7 267.9Q591.0 266.7 592.8 264.6L592.8 264.6L598.5 270.9Q596.4 273.5 592.5 275.5Q588.6 277.4 582.6 277.4ZM581.7 246.2L581.7 246.2Q578.3 246.2 576.2 248.3Q574.2 250.4 574.2 254.0L574.2 254.0L574.2 254.6L589.2 254.6L589.2 254.0Q589.2 250.3 587.2 248.3Q585.2 246.2 581.7 246.2ZM608.1 276.6L603.7 239.4L612.6 239.4L615.2 269.5L615.9 269.5L620.3 239.4L629.7 239.4L634.0 269.5L634.7 269.5L637.5 239.4L645.9 239.4L641.5 276.6L628.8 276.6L625.2 250.9L624.4 250.9L620.8 276.6L608.1 276.6Z " clip-path="url(#satori_cp-id-1-0-0)" mask="url(#satori_om-id-1-0-0)"/><path fill="black" d="M130.7 520.3L130.7 499.6L132.9 499.6L132.9 508.2L133.0 508.2Q134.4 505.5 137.5 505.5L137.5 505.5Q140.1 505.5 141.6 507.5Q143.1 509.5 143.1 513.0L143.1 513.0Q143.1 516.6 141.6 518.6Q140.1 520.6 137.5 520.6L137.5 520.6Q134.4 520.6 133.0 517.9L133.0 517.9L132.9 517.9L132.9 520.3L130.7 520.3ZM136.6 518.6L136.6 518.6Q138.6 518.6 139.6 517.4Q140.7 516.2 140.7 514.3L140.7 514.3L140.7 511.8Q140.7 509.9 139.6 508.7Q138.6 507.5 136.6 507.5L136.6 507.5Q135.8 507.5 135.2 507.7Q134.5 507.9 134.0 508.2Q133.5 508.6 133.2 509.2Q132.9 509.7 132.9 510.4L132.9 510.4L132.9 515.7Q132.9 516.4 133.2 516.9Q133.5 517.5 134.0 517.8Q134.5 518.2 135.2 518.4Q135.8 518.6 136.6 518.6ZM155.4 511.9L157.9 505.8L160.1 505.8L152.9 523.4Q152.7 524.1 152.4 524.5Q152.1 525.0 151.7 525.3Q151.2 525.6 150.7 525.7Q150.1 525.9 149.3 525.9L149.3 525.9L147.1 525.9L147.1 524.0L150.5 524.0L152.1 520.0L146.3 505.8L148.6 505.8L151.0 511.9L153.2 517.4L153.3 517.4L155.4 511.9Z "/><clipPath id="satori_cp-id-1-0-1-0-2"><rect x="178" y="489" width="151" height="36"/></clipPath><mask id="satori_om-id-1-0-1-0-2"><rect x="178" y="489" width="151" height="36" fill="#fff"/></mask><path fill="black" d="M186.4 520.4L186.4 520.4Q182.5 520.4 180.6 517.8Q178.8 515.1 178.8 510.3L178.8 510.3Q178.8 505.5 180.6 502.9Q182.5 500.2 186.4 500.2L186.4 500.2Q190.3 500.2 192.2 502.9Q194.0 505.5 194.0 510.3L194.0 510.3Q194.0 515.1 192.2 517.8Q190.3 520.4 186.4 520.4ZM186.4 517.0L186.4 517.0Q188.2 517.0 188.9 515.7Q189.6 514.4 189.6 512.0L189.6 512.0L189.6 508.6Q189.6 506.3 188.9 504.9Q188.2 503.6 186.4 503.6L186.4 503.6Q184.6 503.6 183.9 504.9Q183.2 506.3 183.2 508.6L183.2 508.6L183.2 512.0Q183.2 514.4 183.9 515.7Q184.6 517.0 186.4 517.0ZM196.5 525.7L196.5 505.6L200.6 505.6L200.6 508.3L200.8 508.3Q201.3 507.0 202.3 506.1Q203.3 505.3 205.1 505.3L205.1 505.3Q206.3 505.3 207.3 505.8Q208.3 506.2 209.0 507.1Q209.7 508.1 210.1 509.5Q210.5 510.9 210.5 512.9L210.5 512.9Q210.5 514.8 210.1 516.3Q209.7 517.7 209.0 518.6Q208.3 519.5 207.3 520.0Q206.3 520.4 205.1 520.4L205.1 520.4Q203.3 520.4 202.3 519.6Q201.3 518.8 200.8 517.5L200.8 517.5L200.6 517.5L200.6 525.7L196.5 525.7ZM203.3 517.2L203.3 517.2Q204.7 517.2 205.4 516.4Q206.2 515.5 206.2 514.0L206.2 514.0L206.2 511.7Q206.2 510.2 205.4 509.4Q204.7 508.5 203.3 508.5L203.3 508.5Q202.2 508.5 201.4 509.1Q200.6 509.6 200.6 510.7L200.6 510.7L200.6 515.0Q200.6 516.1 201.4 516.7Q202.2 517.2 203.3 517.2ZM220.4 520.4L220.4 520.4Q216.8 520.4 214.9 518.4Q213.0 516.4 213.0 512.9L213.0 512.9Q213.0 511.2 213.5 509.7Q214.0 508.3 214.9 507.3Q215.8 506.3 217.1 505.8Q218.4 505.3 220.0 505.3L220.0 505.3Q221.7 505.3 222.9 505.8Q224.2 506.3 225.1 507.3Q226.0 508.2 226.5 509.6Q227.0 511.0 227.0 512.6L227.0 512.6L227.0 513.9L217.1 513.9L217.1 514.1Q217.1 515.5 218.0 516.4Q218.9 517.2 220.5 517.2L220.5 517.2Q221.8 517.2 222.7 516.7Q223.7 516.3 224.3 515.4L224.3 515.4L226.6 517.9Q225.7 518.9 224.2 519.7Q222.7 520.4 220.4 520.4ZM220.1 508.3L220.1 508.3Q218.7 508.3 217.9 509.1Q217.1 509.9 217.1 511.3L217.1 511.3L217.1 511.6L222.9 511.6L222.9 511.3Q222.9 509.9 222.2 509.1Q221.4 508.3 220.1 508.3ZM234.4 520.1L230.2 520.1L230.2 505.6L234.4 505.6L234.4 508.3L234.5 508.3Q234.8 507.7 235.1 507.1Q235.5 506.6 236.0 506.2Q236.5 505.8 237.2 505.5Q237.9 505.3 238.8 505.3L238.8 505.3Q239.8 505.3 240.7 505.7Q241.6 506.0 242.2 506.7Q242.8 507.4 243.1 508.4Q243.5 509.4 243.5 510.7L243.5 510.7L243.5 520.1L239.3 520.1L239.3 511.3Q239.3 508.5 236.9 508.5L236.9 508.5Q236.4 508.5 236.0 508.6Q235.5 508.8 235.1 509.0Q234.8 509.3 234.6 509.7Q234.4 510.1 234.4 510.6L234.4 510.6L234.4 520.1ZM247.4 520.1L247.4 500.5L254.2 500.5Q257.1 500.5 258.6 501.9Q260.2 503.3 260.2 505.8L260.2 505.8Q260.2 507.4 259.3 508.4Q258.5 509.4 257.0 509.9L257.0 509.9L257.0 510.0Q258.8 510.5 259.8 511.6Q260.8 512.7 260.8 514.7L260.8 514.7Q260.8 517.2 259.2 518.6Q257.7 520.1 254.9 520.1L254.9 520.1L247.4 520.1ZM251.4 517.2L253.6 517.2Q255.1 517.2 255.8 516.6Q256.5 516.1 256.5 514.8L256.5 514.8L256.5 514.0Q256.5 512.6 255.8 512.1Q255.1 511.6 253.6 511.6L253.6 511.6L251.4 511.6L251.4 517.2ZM251.4 508.8L253.0 508.8Q254.5 508.8 255.2 508.3Q255.9 507.9 255.9 506.6L255.9 506.6L255.9 505.7Q255.9 504.4 255.2 504.0Q254.5 503.5 253.0 503.5L253.0 503.5L251.4 503.5L251.4 508.8ZM271.9 511.7L274.0 505.6L278.3 505.6L271.5 522.4Q270.8 524.0 269.8 524.9Q268.7 525.7 266.8 525.7L266.8 525.7L264.0 525.7L264.0 522.5L267.5 522.5L268.4 520.0L262.5 505.6L267.0 505.6L269.1 511.7L270.4 515.9L270.6 515.9L271.9 511.7ZM293.7 520.1L288.3 520.1Q286.1 520.1 285.0 518.9Q283.9 517.7 283.9 515.9L283.9 515.9L283.9 508.9L280.0 508.9L280.0 505.6L282.5 505.6Q283.4 505.6 283.8 505.3Q284.2 504.9 284.2 503.9L284.2 503.9L284.2 500.5L288.0 500.5L288.0 505.6L293.7 505.6L293.7 508.9L288.0 508.9L288.0 516.9L293.7 516.9L293.7 520.1ZM304.4 520.4L304.4 520.4Q300.8 520.4 298.9 518.4Q297.0 516.4 297.0 512.9L297.0 512.9Q297.0 511.2 297.5 509.7Q298.0 508.3 298.9 507.3Q299.8 506.3 301.1 505.8Q302.4 505.3 304.0 505.3L304.0 505.3Q305.7 505.3 306.9 505.8Q308.2 506.3 309.1 507.3Q310.0 508.2 310.5 509.6Q311.0 511.0 311.0 512.6L311.0 512.6L311.0 513.9L301.1 513.9L301.1 514.1Q301.1 515.5 302.0 516.4Q302.9 517.2 304.5 517.2L304.5 517.2Q305.8 517.2 306.7 516.7Q307.7 516.3 308.3 515.4L308.3 515.4L310.6 517.9Q309.7 518.9 308.2 519.7Q306.7 520.4 304.4 520.4ZM304.1 508.3L304.1 508.3Q302.7 508.3 301.9 509.1Q301.1 509.9 301.1 511.3L301.1 511.3L301.1 511.6L306.9 511.6L306.9 511.3Q306.9 509.9 306.2 509.1Q305.4 508.3 304.1 508.3ZM320.6 520.4L320.6 520.4Q318.2 520.4 316.4 519.7Q314.7 519.0 313.8 517.7L313.8 517.7L316.1 515.6Q316.9 516.5 318.1 517.0Q319.2 517.5 320.7 517.5L320.7 517.5Q321.9 517.5 322.6 517.1Q323.3 516.8 323.3 516.0L323.3 516.0Q323.3 515.4 322.8 515.1Q322.3 514.9 321.5 514.7L321.5 514.7L319.2 514.4Q318.2 514.2 317.4 513.9Q316.5 513.7 315.9 513.1Q315.3 512.6 314.9 511.9Q314.6 511.2 314.6 510.2L314.6 510.2Q314.6 507.9 316.3 506.6Q318.0 505.3 321.2 505.3L321.2 505.3Q323.3 505.3 324.8 505.9Q326.3 506.5 327.2 507.5L327.2 507.5L325.1 509.9Q324.5 509.2 323.5 508.7Q322.5 508.2 321.0 508.2L321.0 508.2Q318.6 508.2 318.6 509.7L318.6 509.7Q318.6 510.3 319.1 510.6Q319.6 510.8 320.4 510.9L320.4 510.9L322.7 511.3Q323.7 511.4 324.5 511.7Q325.4 512.0 326.0 512.5Q326.6 513.0 327.0 513.8Q327.4 514.5 327.4 515.5L327.4 515.5Q327.4 517.8 325.6 519.1Q323.9 520.4 320.6 520.4Z " clip-path="url(#satori_cp-id-1-0-1-0-2)" mask="url(#satori_om-id-1-0-1-0-2)"/><clipPath id="satori_cp-id-1-0-1-1"><rect x="886" y="489" width="185" height="36"/></clipPath><mask id="satori_om-id-1-0-1-1"><rect x="886" y="489" width="185" height="36" fill="#fff"/></mask><path fill="black" d="M894.4 520.4L894.4 520.4Q890.5 520.4 888.6 517.8Q886.8 515.1 886.8 510.3L886.8 510.3Q886.8 505.5 888.6 502.9Q890.5 500.2 894.4 500.2L894.4 500.2Q898.3 500.2 900.2 502.9Q902.0 505.5 902.0 510.3L902.0 510.3Q902.0 515.1 900.2 517.8Q898.3 520.4 894.4 520.4ZM894.4 517.1L894.4 517.1Q896.3 517.1 897.0 515.8Q897.8 514.5 897.8 512.1L897.8 512.1L897.8 508.5Q897.8 506.1 897.0 504.8Q896.3 503.5 894.4 503.5L894.4 503.5Q892.5 503.5 891.8 504.8Q891.0 506.1 891.0 508.5L891.0 508.5L891.0 512.1Q891.0 514.5 891.8 515.8Q892.5 517.1 894.4 517.1ZM894.4 512.0L894.4 512.0Q893.4 512.0 893.0 511.6Q892.7 511.2 892.7 510.6L892.7 510.6L892.7 510.0Q892.7 509.5 893.0 509.1Q893.4 508.7 894.4 508.7L894.4 508.7Q895.4 508.7 895.8 509.1Q896.1 509.5 896.1 510.0L896.1 510.0L896.1 510.6Q896.1 511.2 895.8 511.6Q895.4 512.0 894.4 512.0ZM907.8 520.1L903.4 520.1L908.8 512.8L903.8 505.6L908.5 505.6L910.1 508.0L911.3 509.8L911.5 509.8L912.7 508.0L914.3 505.6L918.6 505.6L913.6 512.5L919.0 520.1L914.2 520.1L912.4 517.4L911.1 515.4L910.9 515.4L909.7 517.4L907.8 520.1ZM928.0 520.4L928.0 520.4Q924.1 520.4 922.2 517.8Q920.4 515.1 920.4 510.3L920.4 510.3Q920.4 505.5 922.2 502.9Q924.1 500.2 928.0 500.2L928.0 500.2Q931.9 500.2 933.8 502.9Q935.6 505.5 935.6 510.3L935.6 510.3Q935.6 515.1 933.8 517.8Q931.9 520.4 928.0 520.4ZM928.0 517.0L928.0 517.0Q929.8 517.0 930.5 515.7Q931.2 514.4 931.2 512.0L931.2 512.0L931.2 508.6Q931.2 506.3 930.5 504.9Q929.8 503.6 928.0 503.6L928.0 503.6Q926.2 503.6 925.5 504.9Q924.8 506.3 924.8 508.6L924.8 508.6L924.8 512.0Q924.8 514.4 925.5 515.7Q926.2 517.0 928.0 517.0ZM938.1 525.7L938.1 505.6L942.2 505.6L942.2 508.3L942.4 508.3Q942.9 507.0 943.9 506.1Q944.9 505.3 946.7 505.3L946.7 505.3Q947.9 505.3 948.9 505.8Q949.9 506.2 950.6 507.1Q951.3 508.1 951.7 509.5Q952.1 510.9 952.1 512.9L952.1 512.9Q952.1 514.8 951.7 516.3Q951.3 517.7 950.6 518.6Q949.9 519.5 948.9 520.0Q947.9 520.4 946.7 520.4L946.7 520.4Q944.9 520.4 943.9 519.6Q942.9 518.8 942.4 517.5L942.4 517.5L942.2 517.5L942.2 525.7L938.1 525.7ZM944.9 517.2L944.9 517.2Q946.3 517.2 947.0 516.4Q947.8 515.5 947.8 514.0L947.8 514.0L947.8 511.7Q947.8 510.2 947.0 509.4Q946.3 508.5 944.9 508.5L944.9 508.5Q943.8 508.5 943.0 509.1Q942.2 509.6 942.2 510.7L942.2 510.7L942.2 515.0Q942.2 516.1 943.0 516.7Q943.8 517.2 944.9 517.2ZM962.0 520.4L962.0 520.4Q958.4 520.4 956.5 518.4Q954.6 516.4 954.6 512.9L954.6 512.9Q954.6 511.2 955.1 509.7Q955.6 508.3 956.5 507.3Q957.4 506.3 958.7 505.8Q960.0 505.3 961.6 505.3L961.6 505.3Q963.3 505.3 964.5 505.8Q965.8 506.3 966.7 507.3Q967.6 508.2 968.1 509.6Q968.6 511.0 968.6 512.6L968.6 512.6L968.6 513.9L958.7 513.9L958.7 514.1Q958.7 515.5 959.6 516.4Q960.5 517.2 962.1 517.2L962.1 517.2Q963.4 517.2 964.3 516.7Q965.3 516.3 965.9 515.4L965.9 515.4L968.2 517.9Q967.3 518.9 965.8 519.7Q964.3 520.4 962.0 520.4ZM961.7 508.3L961.7 508.3Q960.3 508.3 959.5 509.1Q958.7 509.9 958.7 511.3L958.7 511.3L958.7 511.6L964.5 511.6L964.5 511.3Q964.5 509.9 963.8 509.1Q963.0 508.3 961.7 508.3ZM976.0 520.1L971.8 520.1L971.8 505.6L976.0 505.6L976.0 508.3L976.1 508.3Q976.4 507.7 976.7 507.1Q977.1 506.6 977.6 506.2Q978.1 505.8 978.8 505.5Q979.5 505.3 980.4 505.3L980.4 505.3Q981.4 505.3 982.3 505.7Q983.2 506.0 983.8 506.7Q984.4 507.4 984.7 508.4Q985.1 509.4 985.1 510.7L985.1 510.7L985.1 520.1L980.9 520.1L980.9 511.3Q980.9 508.5 978.5 508.5L978.5 508.5Q978.0 508.5 977.6 508.6Q977.1 508.8 976.7 509.0Q976.4 509.3 976.2 509.7Q976.0 510.1 976.0 510.6L976.0 510.6L976.0 520.1ZM989.0 520.1L989.0 500.5L995.8 500.5Q998.7 500.5 1000.2 501.9Q1001.8 503.3 1001.8 505.8L1001.8 505.8Q1001.8 507.4 1000.9 508.4Q1000.1 509.4 998.6 509.9L998.6 509.9L998.6 510.0Q1000.4 510.5 1001.4 511.6Q1002.4 512.7 1002.4 514.7L1002.4 514.7Q1002.4 517.2 1000.8 518.6Q999.3 520.1 996.5 520.1L996.5 520.1L989.0 520.1ZM993.0 517.2L995.2 517.2Q996.7 517.2 997.4 516.6Q998.1 516.1 998.1 514.8L998.1 514.8L998.1 514.0Q998.1 512.6 997.4 512.1Q996.7 511.6 995.2 511.6L995.2 511.6L993.0 511.6L993.0 517.2ZM993.0 508.8L994.6 508.8Q996.1 508.8 996.8 508.3Q997.5 507.9 997.5 506.6L997.5 506.6L997.5 505.7Q997.5 504.4 996.8 504.0Q996.1 503.5 994.6 503.5L994.6 503.5L993.0 503.5L993.0 508.8ZM1013.5 511.7L1015.6 505.6L1019.9 505.6L1013.1 522.4Q1012.4 524.0 1011.4 524.9Q1010.3 525.7 1008.4 525.7L1008.4 525.7L1005.6 525.7L1005.6 522.5L1009.1 522.5L1010.0 520.0L1004.1 505.6L1008.6 505.6L1010.7 511.7L1012.0 515.9L1012.2 515.9L1013.5 511.7ZM1035.3 520.1L1029.9 520.1Q1027.7 520.1 1026.6 518.9Q1025.5 517.7 1025.5 515.9L1025.5 515.9L1025.5 508.9L1021.6 508.9L1021.6 505.6L1024.1 505.6Q1025.0 505.6 1025.4 505.3Q1025.8 504.9 1025.8 503.9L1025.8 503.9L1025.8 500.5L1029.6 500.5L1029.6 505.6L1035.3 505.6L1035.3 508.9L1029.6 508.9L1029.6 516.9L1035.3 516.9L1035.3 520.1ZM1046.0 520.4L1046.0 520.4Q1042.4 520.4 1040.5 518.4Q1038.6 516.4 1038.6 512.9L1038.6 512.9Q1038.6 511.2 1039.1 509.7Q1039.6 508.3 1040.5 507.3Q1041.4 506.3 1042.7 505.8Q1044.0 505.3 1045.6 505.3L1045.6 505.3Q1047.3 505.3 1048.5 505.8Q1049.8 506.3 1050.7 507.3Q1051.6 508.2 1052.1 509.6Q1052.6 511.0 1052.6 512.6L1052.6 512.6L1052.6 513.9L1042.7 513.9L1042.7 514.1Q1042.7 515.5 1043.6 516.4Q1044.5 517.2 1046.1 517.2L1046.1 517.2Q1047.4 517.2 1048.3 516.7Q1049.3 516.3 1049.9 515.4L1049.9 515.4L1052.2 517.9Q1051.3 518.9 1049.8 519.7Q1048.3 520.4 1046.0 520.4ZM1045.7 508.3L1045.7 508.3Q1044.3 508.3 1043.5 509.1Q1042.7 509.9 1042.7 511.3L1042.7 511.3L1042.7 511.6L1048.5 511.6L1048.5 511.3Q1048.5 509.9 1047.8 509.1Q1047.0 508.3 1045.7 508.3ZM1062.2 520.4L1062.2 520.4Q1059.8 520.4 1058.0 519.7Q1056.3 519.0 1055.4 517.7L1055.4 517.7L1057.7 515.6Q1058.5 516.5 1059.7 517.0Q1060.8 517.5 1062.3 517.5L1062.3 517.5Q1063.5 517.5 1064.2 517.1Q1064.9 516.8 1064.9 516.0L1064.9 516.0Q1064.9 515.4 1064.4 515.1Q1063.9 514.9 1063.1 514.7L1063.1 514.7L1060.8 514.4Q1059.8 514.2 1059.0 513.9Q1058.1 513.7 1057.5 513.1Q1056.9 512.6 1056.5 511.9Q1056.2 511.2 1056.2 510.2L1056.2 510.2Q1056.2 507.9 1057.9 506.6Q1059.6 505.3 1062.8 505.3L1062.8 505.3Q1064.9 505.3 1066.4 505.9Q1067.9 506.5 1068.8 507.5L1068.8 507.5L1066.7 509.9Q1066.1 509.2 1065.1 508.7Q1064.1 508.2 1062.6 508.2L1062.6 508.2Q1060.2 508.2 1060.2 509.7L1060.2 509.7Q1060.2 510.3 1060.7 510.6Q1061.2 510.8 1062.0 510.9L1062.0 510.9L1064.3 511.3Q1065.3 511.4 1066.1 511.7Q1067.0 512.0 1067.6 512.5Q1068.2 513.0 1068.6 513.8Q1069.0 514.5 1069.0 515.5L1069.0 515.5Q1069.0 517.8 1067.2 519.1Q1065.5 520.4 1062.2 520.4Z " clip-path="url(#satori_cp-id-1-0-1-1)" mask="url(#satori_om-id-1-0-1-1)"/></svg>