<svg width="1200" height="630" viewBox="0 0 1200 630" xmlns="http://www.w3.org/2000/svg"><rect x="0" y="0" width="1200" height="630" fill="#fefbfb"/><defs><clipPath id="satori_bc-id-0"><path x="105" y="39" width="1056" height="504" d="M109,39 h1048 a4,4 0 0 1 4,4 v496 a4,4 0 0 1 -4,4 h-1048 a4,4 0 0 1 -4,-4 v-496 a4,4 0 0 1 4,-4"/></clipPath></defs><g opacity="0.9"><path x="105" y="39" width="1056" height="504" fill="#ecebeb" d="M109,39 h1048 a4,4 0 0 1 4,4 v496 a4,4 0 0 1 -4,4 h-1048 a4,4 0 0 1 -4,-4 v-496 a4,4 0 0 1 4,-4"/><path width="1056" height="504" clip-path="url(#satori_bc-id-0)" fill="none" stroke="#000" stroke-width="8" d="M106.172,40.172 A4,4 0 0 1 109,39 h1048 a4,4 0 0 1 4,4 v496 a4,4 0 0 1 -4,4 h-1048 a4,4 0 0 1 -4,-4 v-496 A4,4 0 0 1 106.172,40.172"/></g><defs><clipPath id="satori_bc-id-1"><path x="72" y="63" width="1056" height="504" d="M76,63 h1048 a4,4 0 0 1 4,4 v496 a4,4 0 0 1 -4,4 h-1048 a4,4 0 0 1 -4,-4 v-496 a4,4 0 0 1 4,-4"/></clipPath></defs><path x="72" y="63" width="1056" height="504" fill="#fefbfb" d="M76,63 h1048 a4,4 0 0 1 4,4 v496 a4,4 0 0 1 -4,4 h-1048 a4,4 0 0 1 -4,-4 v-496 a4,4 0 0 1 4,-4"/><path width="1056" height="504" clip-path="url(#satori_bc-id-1)" fill="none" stroke="#000" stroke-width="8" d="M73.172,64.172 A4,4 0 0 1 76,63 h1048 a4,4 0 0 1 4,4 v496 a4,4 0 0 1 -4,4 h-1048 a4,4 0 0 1 -4,-4 v-496 A4,4 0 0 1 73.172,64.172"/><clipPath id="satori_cp-id-1-0-0"><rect x="128" y="103" width="944" height="187"/></clipPath><mask id="satori_om-id-1-0-0"><rect x="128" y="103" width="944" height="187" fill="#fff"/></mask><path fill="black" d="M165.8 183.0L133.4 183.0L133.4 175.0L144.2 175.0L144.2 140.7L133.4 140.7L133.4 132.7L165.8 132.7L165.8 140.7L155 140.7L155 175.0L165.8 175.0L165.8 183.0ZM186.5 183.0L175.9 183.0L175.9 145.8L186.5 145.8L186.5 152.6L187.0 152.6Q187.6 151.0 188.6 149.6Q189.5 148.2 190.8 147.2Q192.2 146.2 193.9 145.5Q195.7 144.9 197.9 144.9L197.9 144.9Q200.6 144.9 202.8 145.8Q205.0 146.7 206.6 148.5Q208.2 150.3 209.1 152.9Q210.0 155.5 210.0 158.9L210.0 158.9L210.0 183.0L199.4 183.0L199.4 160.3Q199.4 153.1 193.1 153.1L193.1 153.1Q191.9 153.1 190.7 153.5Q189.5 153.8 188.6 154.5Q187.6 155.2 187.1 156.2Q186.5 157.2 186.5 158.5L186.5 158.5L186.5 183.0ZM252.6 183.0L238.9 183.0Q233.1 183.0 230.3 179.9Q227.5 176.9 227.5 172.2L227.5 172.2L227.5 154.1L217.4 154.1L217.4 145.8L224.0 145.8Q226.4 145.8 227.4 144.9Q228.4 143.9 228.4 141.4L228.4 141.4L228.4 132.7L238.2 132.7L238.2 145.8L252.6 145.8L252.6 154.1L238.2 154.1L238.2 174.7L252.6 174.7L252.6 183.0ZM262.9 183.0L262.9 174.7L271.5 174.7L271.5 154.1L262.9 154.1L262.9 145.8L282.2 145.8L282.2 156.3L282.7 156.3Q283.2 154.3 284.1 152.4Q285.0 150.5 286.4 149.0Q287.8 147.5 289.8 146.7Q291.8 145.8 294.5 145.8L294.5 145.8L298.1 145.8L298.1 155.6L290.1 155.6Q286.2 155.6 284.2 157.9Q282.2 160.3 282.2 163.7L282.2 163.7L282.2 174.7L294.4 174.7L294.4 183.0L262.9 183.0ZM322.4 183.8L322.4 183.8Q318.1 183.8 314.6 182.5Q311.2 181.2 308.8 178.6Q306.3 176.1 305.0 172.5Q303.8 168.9 303.8 164.4L303.8 164.4Q303.8 159.8 305.0 156.2Q306.3 152.6 308.8 150.1Q311.2 147.6 314.6 146.3Q318.1 144.9 322.4 144.9L322.4 144.9Q326.7 144.9 330.2 146.3Q333.6 147.6 336.0 150.1Q338.5 152.6 339.8 156.2Q341.0 159.8 341.0 164.4L341.0 164.4Q341.0 168.9 339.8 172.5Q338.5 176.1 336.0 178.6Q333.6 181.2 330.2 182.5Q326.7 183.8 322.4 183.8ZM322.4 175.9L322.4 175.9Q326.0 175.9 328.0 173.7Q330.0 171.4 330.0 167.3L330.0 167.3L330.0 161.4Q330.0 157.3 328.0 155.1Q326.0 152.9 322.4 152.9L322.4 152.9Q318.8 152.9 316.8 155.1Q314.8 157.3 314.8 161.4L314.8 161.4L314.8 167.3Q314.8 171.4 316.8 173.7Q318.8 175.9 322.4 175.9ZM372.3 183.0L372.3 176.2L371.8 176.2Q370.4 179.6 367.8 181.7Q365.2 183.8 360.8 183.8L360.8 183.8Q357.7 183.8 355.1 182.7Q352.6 181.5 350.7 179.1Q348.9 176.8 347.9 173.1Q346.8 169.4 346.8 164.4L346.8 164.4Q346.8 159.3 347.9 155.7Q348.9 152.0 350.7 149.6Q352.6 147.2 355.1 146.1Q357.7 144.9 360.8 144.9L360.8 144.9Q363.0 144.9 364.7 145.5Q366.5 146.1 367.8 147.1Q369.1 148.1 370.1 149.5Q371.1 150.9 371.8 152.6L371.8 152.6L372.3 152.6L372.3 129.7L383.0 129.7L383.0 183.0L372.3 183.0ZM365.4 175.5L365.4 175.5Q368.2 175.5 370.2 174.2Q372.3 172.8 372.3 169.8L372.3 169.8L372.3 158.9Q372.3 156.0 370.2 154.6Q368.2 153.2 365.4 153.2L365.4 153.2Q361.8 153.2 359.8 155.4Q357.9 157.6 357.9 161.5L357.9 161.5L357.9 167.3Q357.9 171.1 359.8 173.3Q361.8 175.5 365.4 175.5ZM415.1 183.0L415.1 176.2L414.6 176.2Q413.4 179.4 410.8 181.6Q408.2 183.8 403.7 183.8L403.7 183.8Q401.0 183.8 398.8 182.9Q396.6 182.0 395.0 180.2Q393.4 178.4 392.5 175.8Q391.6 173.2 391.6 169.8L391.6 169.8L391.6 145.8L402.2 145.8L402.2 168.4Q402.2 175.6 408.5 175.6L408.5 175.6Q409.7 175.6 410.9 175.3Q412.1 175.0 413.0 174.3Q413.9 173.6 414.5 172.6Q415.1 171.6 415.1 170.2L415.1 170.2L415.1 145.8L425.7 145.8L425.7 183.0L415.1 183.0ZM453.5 183.8L453.5 183.8Q449.1 183.8 445.6 182.5Q442.1 181.2 439.7 178.6Q437.3 176.1 436.0 172.5Q434.7 168.9 434.7 164.4L434.7 164.4Q434.7 159.8 436.0 156.2Q437.3 152.6 439.7 150.1Q442.1 147.6 445.6 146.3Q449.1 144.9 453.4 144.9L453.4 144.9Q459.6 144.9 463.3 147.4Q467.0 149.9 468.9 154.0L468.9 154.0L460.7 158.5Q459.7 156.3 458.1 154.9Q456.5 153.4 453.4 153.4L453.4 153.4Q449.8 153.4 447.8 155.6Q445.8 157.7 445.8 161.4L445.8 161.4L445.8 167.4Q445.8 171.1 447.8 173.2Q449.8 175.3 453.6 175.3L453.6 175.3Q456.7 175.3 458.4 173.9Q460.2 172.4 461.4 170.1L461.4 170.1L469.5 174.7Q467.5 178.8 463.6 181.3Q459.8 183.8 453.5 183.8ZM511.8 183.0L498.1 183.0Q492.3 183.0 489.5 179.9Q486.7 176.9 486.7 172.2L486.7 172.2L486.7 154.1L476.6 154.1L476.6 145.8L483.2 145.8Q485.6 145.8 486.6 144.9Q487.6 143.9 487.6 141.4L487.6 141.4L487.6 132.7L497.4 132.7L497.4 145.8L511.8 145.8L511.8 154.1L497.4 154.1L497.4 174.7L511.8 174.7L511.8 183.0ZM540.7 141.0L540.7 141.0Q537.1 141.0 535.7 139.6Q534.3 138.1 534.3 136.0L534.3 136.0L534.3 133.9Q534.3 131.8 535.7 130.3Q537.1 128.9 540.7 128.9L540.7 128.9Q544.3 128.9 545.7 130.3Q547.1 131.8 547.1 133.9L547.1 133.9L547.1 136.0Q547.1 138.1 545.7 139.6Q544.3 141.0 540.7 141.0ZM523.6 183.0L523.6 174.7L535.4 174.7L535.4 154.1L523.6 154.1L523.6 145.8L546.0 145.8L546.0 174.7L557.0 174.7L557.0 183.0L523.6 183.0ZM581.6 183.8L581.6 183.8Q577.3 183.8 573.8 182.5Q570.4 181.2 568.0 178.6Q565.5 176.1 564.2 172.5Q563.0 168.9 563.0 164.4L563.0 164.4Q563.0 159.8 564.2 156.2Q565.5 152.6 568.0 150.1Q570.4 147.6 573.8 146.3Q577.3 144.9 581.6 144.9L581.6 144.9Q585.9 144.9 589.4 146.3Q592.8 147.6 595.2 150.1Q597.7 152.6 599.0 156.2Q600.2 159.8 600.2 164.4L600.2 164.4Q600.2 168.9 599.0 172.5Q597.7 176.1 595.2 178.6Q592.8 181.2 589.4 182.5Q585.9 183.8 581.6 183.8ZM581.6 175.9L581.6 175.9Q585.2 175.9 587.2 173.7Q589.2 171.4 589.2 167.3L589.2 167.3L589.2 161.4Q589.2 157.3 587.2 155.1Q585.2 152.9 581.6 152.9L581.6 152.9Q578 152.9 576.0 155.1Q574.0 157.3 574.0 161.4L574.0 161.4L574.0 167.3Q574.0 171.4 576.0 173.7Q578 175.9 581.6 175.9ZM618.5 183.0L607.9 183.0L607.9 145.8L618.5 145.8L618.5 152.6L619.0 152.6Q619.6 151.0 620.6 149.6Q621.5 148.2 622.8 147.2Q624.2 146.2 625.9 145.5Q627.7 144.9 629.9 144.9L629.9 144.9Q632.6 144.9 634.8 145.8Q637.0 146.7 638.6 148.5Q640.2 150.3 641.1 152.9Q642.0 155.5 642.0 158.9L642.0 158.9L642.0 183.0L631.4 183.0L631.4 160.3Q631.4 153.1 625.1 153.1L625.1 153.1Q623.9 153.1 622.7 153.5Q621.5 153.8 620.6 154.5Q619.6 155.2 619.1 156.2Q618.5 157.2 618.5 158.5L618.5 158.5L618.5 183.0Z M713.5 141.0L713.5 141.0Q709.9 141.0 708.5 139.6Q707.1 138.1 707.1 136.0L707.1 136.0L707.1 133.9Q707.1 131.8 708.5 130.3Q709.9 128.9 713.5 128.9L713.5 128.9Q717.1 128.9 718.5 130.3Q719.9 131.8 719.9 133.9L719.9 133.9L719.9 136.0Q719.9 138.1 718.5 139.6Q717.1 141.0 713.5 141.0ZM696.4 183.0L696.4 174.7L708.2 174.7L708.2 154.1L696.4 154.1L696.4 145.8L718.8 145.8L718.8 174.7L729.8 174.7L729.8 183.0L696.4 183.0ZM748.1 183.0L737.5 183.0L737.5 145.8L748.1 145.8L748.1 152.6L748.6 152.6Q749.2 151.0 750.2 149.6Q751.1 148.2 752.4 147.2Q753.8 146.2 755.5 145.5Q757.3 144.9 759.5 144.9L759.5 144.9Q762.2 144.9 764.4 145.8Q766.6 146.7 768.2 148.5Q769.8 150.3 770.7 152.9Q771.6 155.5 771.6 158.9L771.6 158.9L771.6 183.0L761.0 183.0L761.0 160.3Q761.0 153.1 754.7 153.1L754.7 153.1Q753.5 153.1 752.3 153.5Q751.1 153.8 750.2 154.5Q749.2 155.2 748.7 156.2Q748.1 157.2 748.1 158.5L748.1 158.5L748.1 183.0ZM814.2 183.0L800.5 183.0Q794.7 183.0 791.9 179.9Q789.1 176.9 789.1 172.2L789.1 172.2L789.1 154.1L779.0 154.1L779.0 145.8L785.6 145.8Q788.0 145.8 789.0 144.9Q790.0 143.9 790.0 141.4L790.0 141.4L790.0 132.7L799.8 132.7L799.8 145.8L814.2 145.8L814.2 154.1L799.8 154.1L799.8 174.7L814.2 174.7L814.2 183.0ZM840.8 183.8L840.8 183.8Q836.5 183.8 833.0 182.5Q829.6 181.2 827.2 178.6Q824.7 176.1 823.4 172.5Q822.2 168.9 822.2 164.4L822.2 164.4Q822.2 159.8 823.4 156.2Q824.7 152.6 827.2 150.1Q829.6 147.6 833.0 146.3Q836.5 144.9 840.8 144.9L840.8 144.9Q845.1 144.9 848.6 146.3Q852.0 147.6 854.4 150.1Q856.9 152.6 858.2 156.2Q859.4 159.8 859.4 164.4L859.4 164.4Q859.4 168.9 858.2 172.5Q856.9 176.1 854.4 178.6Q852.0 181.2 848.6 182.5Q845.1 183.8 840.8 183.8ZM840.8 175.9L840.8 175.9Q844.4 175.9 846.4 173.7Q848.4 171.4 848.4 167.3L848.4 167.3L848.4 161.4Q848.4 157.3 846.4 155.1Q844.4 152.9 840.8 152.9L840.8 152.9Q837.2 152.9 835.2 155.1Q833.2 157.3 833.2 161.4L833.2 161.4L833.2 167.3Q833.2 171.4 835.2 173.7Q837.2 175.9 840.8 175.9Z M148.8 277.4L148.8 277.4Q142.5 277.4 137.8 275.3Q133.1 273.2 130.2 269.6L130.2 269.6L136.5 262.7Q139.2 265.8 142.5 267.2Q145.8 268.6 149.2 268.6L149.2 268.6Q153.1 268.6 155.1 266.9Q157.1 265.2 157.1 261.9L157.1 261.9Q157.1 259.3 155.5 257.9Q154.0 256.5 150.3 256.0L150.3 256.0L145.1 255.1Q138.3 253.9 135.3 250.1Q132.2 246.2 132.2 240.7L132.2 240.7Q132.2 233.4 137 229.4Q141.8 225.4 150.3 225.4L150.3 225.4Q156.2 225.4 160.5 227.2Q164.8 229.0 167.5 232.1L167.5 232.1L161.3 239.0Q159.3 236.7 156.6 235.5Q153.8 234.2 150.4 234.2L150.4 234.2Q143.1 234.2 143.1 240.2L143.1 240.2Q143.1 242.8 144.7 244.1Q146.4 245.4 150.0 246.0L150.0 246.0L155.3 247.0Q161.4 248.0 164.7 251.6Q168.0 255.1 168.0 261.1L168.0 261.1Q168.0 264.6 166.8 267.6Q165.6 270.6 163.1 272.8Q160.7 275.0 157.1 276.2Q153.6 277.4 148.8 277.4ZM194.3 277.4L194.3 277.4Q189.9 277.4 186.4 276.1Q182.9 274.8 180.5 272.2Q178.1 269.7 176.8 266.1Q175.5 262.5 175.5 258.0L175.5 258.0Q175.5 253.4 176.8 249.8Q178.1 246.2 180.5 243.7Q182.9 241.2 186.4 239.9Q189.9 238.5 194.2 238.5L194.2 238.5Q200.4 238.5 204.1 241.0Q207.8 243.5 209.7 247.6L209.7 247.6L201.5 252.1Q200.5 249.9 198.9 248.5Q197.3 247.0 194.2 247.0L194.2 247.0Q190.6 247.0 188.6 249.2Q186.6 251.3 186.6 255.0L186.6 255.0L186.6 261.0Q186.6 264.7 188.6 266.8Q190.6 268.9 194.4 268.9L194.4 268.9Q197.5 268.9 199.2 267.5Q201.0 266.0 202.2 263.7L202.2 263.7L210.3 268.3Q208.3 272.4 204.4 274.9Q200.6 277.4 194.3 277.4ZM219.7 276.6L219.7 268.3L228.3 268.3L228.3 247.7L219.7 247.7L219.7 239.4L239.0 239.4L239.0 249.9L239.5 249.9Q240.0 247.9 240.9 246.0Q241.8 244.1 243.2 242.6Q244.6 241.1 246.6 240.3Q248.6 239.4 251.3 239.4L251.3 239.4L254.9 239.4L254.9 249.2L246.9 249.2Q243.0 249.2 241.0 251.5Q239.0 253.9 239.0 257.3L239.0 257.3L239.0 268.3L251.2 268.3L251.2 276.6L219.7 276.6ZM280.2 277.4L280.2 277.4Q270.8 277.4 266.0 272.2Q261.2 267.0 261.2 258.1L261.2 258.1Q261.2 253.6 262.5 249.9Q263.7 246.3 266.1 243.8Q268.4 241.2 271.7 239.9Q275.1 238.5 279.3 238.5L279.3 238.5Q283.4 238.5 286.8 239.9Q290.1 241.2 292.4 243.6Q294.7 246.1 295.9 249.6Q297.2 253.1 297.2 257.4L297.2 257.4L297.2 260.6L271.8 260.6L271.8 261.2Q271.8 264.8 274.0 267.0Q276.2 269.2 280.6 269.2L280.6 269.2Q283.9 269.2 286.3 267.9Q288.6 266.7 290.4 264.6L290.4 264.6L296.1 270.9Q294.0 273.5 290.1 275.5Q286.2 277.4 280.2 277.4ZM279.3 246.2L279.3 246.2Q275.9 246.2 273.8 248.3Q271.8 250.4 271.8 254.0L271.8 254.0L271.8 254.6L286.8 254.6L286.8 254.0Q286.8 250.3 284.8 248.3Q282.8 246.2 279.3 246.2ZM323.4 277.4L323.4 277.4Q314.0 277.4 309.2 272.2Q304.4 267.0 304.4 258.1L304.4 258.1Q304.4 253.6 305.7 249.9Q306.9 246.3 309.3 243.8Q311.6 241.2 314.9 239.9Q318.3 238.5 322.5 238.5L322.5 238.5Q326.6 238.5 330.0 239.9Q333.3 241.2 335.6 243.6Q337.9 246.1 339.1 249.6Q340.4 253.1 340.4 257.4L340.4 257.4L340.4 260.6L315.0 260.6L315.0 261.2Q315.0 264.8 317.2 267.0Q319.4 269.2 323.8 269.2L323.8 269.2Q327.1 269.2 329.5 267.9Q331.8 266.7 333.6 264.6L333.6 264.6L339.3 270.9Q337.2 273.5 333.3 275.5Q329.4 277.4 323.4 277.4ZM322.5 246.2L322.5 246.2Q319.1 246.2 317.0 248.3Q315.0 250.4 315.0 254.0L315.0 254.0L315.0 254.6L330.0 254.6L330.0 254.0Q330.0 250.3 328.0 248.3Q326.0 246.2 322.5 246.2ZM359.3 276.6L348.7 276.6L348.7 239.4L359.3 239.4L359.3 246.2L359.8 246.2Q360.4 244.6 361.4 243.2Q362.3 241.8 363.6 240.8Q365.0 239.8 366.7 239.1Q368.5 238.5 370.7 238.5L370.7 238.5Q373.4 238.5 375.6 239.4Q377.8 240.3 379.4 242.1Q381.0 243.9 381.9 246.5Q382.8 249.1 382.8 252.5L382.8 252.5L382.8 276.6L372.2 276.6L372.2 253.9Q372.2 246.7 365.9 246.7L365.9 246.7Q364.7 246.7 363.5 247.1Q362.3 247.4 361.4 248.1Q360.4 248.8 359.9 249.8Q359.3 250.8 359.3 252.1L359.3 252.1L359.3 276.6ZM391.8 276.6L391.8 226.3L408.0 226.3Q418.2 226.3 423.1 232.8Q428.0 239.3 428.0 251.4L428.0 251.4Q428.0 263.6 423.1 270.1Q418.2 276.6 408.0 276.6L408.0 276.6L391.8 276.6ZM402.5 268.1L407.3 268.1Q412.1 268.1 414.3 265.0Q416.6 261.9 416.6 256.0L416.6 256.0L416.6 246.8Q416.6 241.0 414.3 237.9Q412.1 234.8 407.3 234.8L407.3 234.8L402.5 234.8L402.5 268.1ZM471.6 276.6L465.5 276.6Q462.2 276.6 460.1 274.9Q458.1 273.2 457.8 270.0L457.8 270.0L457.4 270.0Q456.4 273.7 453.4 275.5Q450.4 277.4 446.1 277.4L446.1 277.4Q440.7 277.4 437.4 274.5Q434.1 271.6 434.1 266.3L434.1 266.3Q434.1 260.5 438.4 257.7Q442.6 254.9 450.8 254.9L450.8 254.9L456.8 254.9L456.8 253.0Q456.8 249.7 455.3 248.0Q453.7 246.3 450.1 246.3L450.1 246.3Q446.7 246.3 444.6 247.6Q442.5 248.9 441.0 251.0L441.0 251.0L435.2 245.8Q437.0 242.6 441.0 240.6Q445.0 238.5 451.3 238.5L451.3 238.5Q458.9 238.5 463.2 242.0Q467.5 245.5 467.5 252.6L467.5 252.6L467.5 268.8L471.6 268.8L471.6 276.6ZM450.1 270.4L450.1 270.4Q452.9 270.4 454.9 269.1Q456.8 267.7 456.8 265.1L456.8 265.1L456.8 260.6L451.1 260.6Q444.6 260.6 444.6 265.0L444.6 265.0L444.6 266.5Q444.6 268.4 446.1 269.4Q447.6 270.4 450.1 270.4ZM511.8 276.6L498.1 276.6Q492.3 276.6 489.5 273.5Q486.7 270.5 486.7 265.8L486.7 265.8L486.7 247.7L476.6 247.7L476.6 239.4L483.2 239.4Q485.6 239.4 486.6 238.5Q487.6 237.5 487.6 235.0L487.6 235.0L487.6 226.3L497.4 226.3L497.4 239.4L511.8 239.4L511.8 247.7L497.4 247.7L497.4 268.3L511.8 268.3L511.8 276.6ZM558.0 276.6L551.9 276.6Q548.6 276.6 546.5 274.9Q544.5 273.2 544.2 270.0L544.2 270.0L543.8 270.0Q542.8 273.7 539.8 275.5Q536.8 277.4 532.5 277.4L532.5 277.4Q527.1 277.4 523.8 274.5Q520.5 271.6 520.5 266.3L520.5 266.3Q520.5 260.5 524.8 257.7Q529.0 254.9 537.2 254.9L537.2 254.9L543.2 254.9L543.2 253.0Q543.2 249.7 541.7 248.0Q540.1 246.3 536.5 246.3L536.5 246.3Q533.1 246.3 531.0 247.6Q528.9 248.9 527.4 251.0L527.4 251.0L521.6 245.8Q523.4 242.6 527.4 240.6Q531.4 238.5 537.7 238.5L537.7 238.5Q545.3 238.5 549.6 242.0Q553.9 245.5 553.9 252.6L553.9 252.6L553.9 268.8L558.0 268.8L558.0 276.6ZM536.5 270.4L536.5 270.4Q539.3 270.4 541.3 269.1Q543.2 267.7 543.2 265.1L543.2 265.1L543.2 260.6L537.5 260.6Q531.0 260.6 531.0 265.0L531.0 265.0L531.0 266.5Q531.0 268.4 532.5 269.4Q534.0 270.4 536.5 270.4Z M627.1 234.6L627.1 234.6Q623.5 234.6 622.1 233.2Q620.7 231.7 620.7 229.6L620.7 229.6L620.7 227.5Q620.7 225.4 622.1 223.9Q623.5 222.5 627.1 222.5L627.1 222.5Q630.7 222.5 632.1 223.9Q633.5 225.4 633.5 227.5L633.5 227.5L633.5 229.6Q633.5 231.7 632.1 233.2Q630.7 234.6 627.1 234.6ZM610.0 276.6L610.0 268.3L621.8 268.3L621.8 247.7L610.0 247.7L610.0 239.4L632.4 239.4L632.4 268.3L643.4 268.3L643.4 276.6L610.0 276.6ZM661.7 276.6L651.1 276.6L651.1 239.4L661.7 239.4L661.7 246.2L662.2 246.2Q662.8 244.6 663.8 243.2Q664.7 241.8 666.0 240.8Q667.4 239.8 669.1 239.1Q670.9 238.5 673.1 238.5L673.1 238.5Q675.8 238.5 678.0 239.4Q680.2 240.3 681.8 242.1Q683.4 243.9 684.3 246.5Q685.2 249.1 685.2 252.5L685.2 252.5L685.2 276.6L674.6 276.6L674.6 253.9Q674.6 246.7 668.3 246.7L668.3 246.7Q667.1 246.7 665.9 247.1Q664.7 247.4 663.8 248.1Q662.8 248.8 662.3 249.8Q661.7 250.8 661.7 252.1L661.7 252.1L661.7 276.6Z M772.8 267.5L772.8 276.6L736.6 276.6L736.6 266.7L752.5 253.5Q756.6 250.0 758.4 247.4Q760.2 244.8 760.2 241.9L760.2 241.9L760.2 241.2Q760.2 238.0 758.3 236.4Q756.4 234.8 753.2 234.8L753.2 234.8Q749.6 234.8 747.7 236.9Q745.8 239.0 745.0 241.8L745.0 241.8L735.5 238.2Q736.4 235.7 737.9 233.3Q739.4 231.0 741.8 229.2Q744.1 227.5 747.2 226.5Q750.3 225.4 754.3 225.4L754.3 225.4Q758.4 225.4 761.7 226.6Q764.9 227.7 767.1 229.8Q769.4 231.8 770.5 234.5Q771.7 237.3 771.7 240.6L771.7 240.6Q771.7 243.7 770.6 246.3Q769.6 249.0 767.8 251.3Q765.9 253.6 763.4 255.7Q761.0 257.9 758.1 260.1L758.1 260.1L748.6 267.5L772.8 267.5ZM797.6 277.4L797.6 277.4Q787.5 277.4 782.7 270.6Q777.9 263.7 777.9 251.4L777.9 251.4Q777.9 239.1 782.7 232.3Q787.5 225.4 797.6 225.4L797.6 225.4Q807.7 225.4 812.5 232.3Q817.3 239.1 817.3 251.4L817.3 251.4Q817.3 263.7 812.5 270.6Q807.7 277.4 797.6 277.4ZM797.6 268.9L797.6 268.9Q802.4 268.9 804.3 265.5Q806.2 262.2 806.2 256.1L806.2 256.1L806.2 246.7Q806.2 240.7 804.3 237.3Q802.4 233.9 797.6 233.9L797.6 233.9Q792.8 233.9 790.9 237.3Q789.0 240.7 789.0 246.7L789.0 246.7L789.0 256.1Q789.0 262.2 790.9 265.5Q792.8 268.9 797.6 268.9ZM797.6 255.7L797.6 255.7Q795.1 255.7 794.1 254.7Q793.1 253.7 793.1 252.2L793.1 252.2L793.1 250.6Q793.1 249.2 794.1 248.2Q795.1 247.2 797.6 247.2L797.6 247.2Q800.1 247.2 801.1 248.2Q802.1 249.2 802.1 250.6L802.1 250.6L802.1 252.2Q802.1 253.7 801.1 254.7Q800.1 255.7 797.6 255.7ZM859.2 267.5L859.2 276.6L823.0 276.6L823.0 266.7L838.9 253.5Q843.0 250.0 844.8 247.4Q846.6 244.8 846.6 241.9L846.6 241.9L846.6 241.2Q846.6 238.0 844.7 236.4Q842.8 234.8 839.6 234.8L839.6 234.8Q836.0 234.8 834.1 236.9Q832.2 239.0 831.4 241.8L831.4 241.8L821.9 238.2Q822.8 235.7 824.3 233.3Q825.8 231.0 828.2 229.2Q830.5 227.5 833.6 226.5Q836.7 225.4 840.7 225.4L840.7 225.4Q844.8 225.4 848.1 226.6Q851.3 227.7 853.5 229.8Q855.8 231.8 856.9 234.5Q858.1 237.3 858.1 240.6L858.1 240.6Q858.1 243.7 857.0 246.3Q856.0 249.0 854.2 251.3Q852.3 253.6 849.8 255.7Q847.4 257.9 844.5 260.1L844.5 260.1L835.0 267.5L859.2 267.5ZM904.2 276.6L869.2 276.6L869.2 267.8L882.7 267.8L882.7 234.1L882.1 234.1L871.8 247.5L864.9 242.1L876.9 226.3L893.5 226.3L893.5 267.8L904.2 267.8L904.2 276.6Z " clip-path="url(#satori_cp-id-1-0-0)" mask="url(#satori_om-id-1-0-0)"/><path fill="black" d="M130.7 520.3L130.7 499.6L132.9 499.6L132.9 508.2L133.0 508.2Q134.4 505.5 137.5 505.5L137.5 505.5Q140.1 505.5 141.6 507.5Q143.1 509.5 143.1 513.0L143.1 513.0Q143.1 516.6 141.6 518.6Q140.1 520.6 137.5 520.6L137.5 520.6Q134.4 520.6 133.0 517.9L133.0 517.9L132.9 517.9L132.9 520.3L130.7 520.3ZM136.6 518.6L136.6 518.6Q138.6 518.6 139.6 517.4Q140.7 516.2 140.7 514.3L140.7 514.3L140.7 511.8Q140.7 509.9 139.6 508.7Q138.6 507.5 136.6 507.5L136.6 507.5Q135.8 507.5 135.2 507.7Q134.5 507.9 134.0 508.2Q133.5 508.6 133.2 509.2Q132.9 509.7 132.9 510.4L132.9 510.4L132.9 515.7Q132.9 516.4 133.2 516.9Q133.5 517.5 134.0 517.8Q134.5 518.2 135.2 518.4Q135.8 518.6 136.6 518.6ZM155.4 511.9L157.9 505.8L160.1 505.8L152.9 523.4Q152.7 524.1 152.4 524.5Q152.1 525.0 151.7 525.3Q151.2 525.6 150.7 525.7Q150.1 525.9 149.3 525.9L149.3 525.9L147.1 525.9L147.1 524.0L150.5 524.0L152.1 520.0L146.3 505.8L148.6 505.8L151.0 511.9L153.2 517.4L153.3 517.4L155.4 511.9Z "/><clipPath id="satori_cp-id-1-0-1-0-2"><rect x="178" y="489" width="151" height="36"/></clipPath><mask id="satori_om-id-1-0-1-0-2"><rect x="178" y="489" width="151" height="36" fill="#fff"/></mask><path fill="black" d="M186.4 520.4L186.4 520.4Q182.5 520.4 180.6 517.8Q178.8 515.1 178.8 510.3L178.8 510.3Q178.8 505.5 180.6 502.9Q182.5 500.2 186.4 500.2L186.4 500.2Q190.3 500.2 192.2 502.9Q194.0 505.5 194.0 510.3L194.0 510.3Q194.0 515.1 192.2 517.8Q190.3 520.4 186.4 520.4ZM186.4 517.0L186.4 517.0Q188.2 517.0 188.9 515.7Q189.6 514.4 189.6 512.0L189.6 512.0L189.6 508.6Q189.6 506.3 188.9 504.9Q188.2 503.6 186.4 503.6L186.4 503.6Q184.6 503.6 183.9 504.9Q183.2 506.3 183.2 508.6L183.2 508.6L183.2 512.0Q183.2 514.4 183.9 515.7Q184.6 517.0 186.4 517.0ZM196.5 525.7L196.5 505.6L200.6 505.6L200.6 508.3L200.8 508.3Q201.3 507.0 202.3 506.1Q203.3 505.3 205.1 505.3L205.1 505.3Q206.3 505.3 207.3 505.8Q208.3 506.2 209.0 507.1Q209.7 508.1 210.1 509.5Q210.5 510.9 210.5 512.9L210.5 512.9Q210.5 514.8 210.1 516.3Q209.7 517.7 209.0 518.6Q208.3 519.5 207.3 520.0Q206.3 520.4 205.1 520.4L205.1 520.4Q203.3 520.4 202.3 519.6Q201.3 518.8 200.8 517.5L200.8 517.5L200.6 517.5L200.6 525.7L196.5 525.7ZM203.3 517.2L203.3 517.2Q204.7 517.2 205.4 516.4Q206.2 515.5 206.2 514.0L206.2 514.0L206.2 511.7Q206.2 510.2 205.4 509.4Q204.7 508.5 203.3 508.5L203.3 508.5Q202.2 508.5 201.4 509.1Q200.6 509.6 200.6 510.7L200.6 510.7L200.6 515.0Q200.6 516.1 201.4 516.7Q202.2 517.2 203.3 517.2ZM220.4 520.4L220.4 520.4Q216.8 520.4 214.9 518.4Q213.0 516.4 213.0 512.9L213.0 512.9Q213.0 511.2 213.5 509.7Q214.0 508.3 214.9 507.3Q215.8 506.3 217.1 505.8Q218.4 505.3 220.0 505.3L220.0 505.3Q221.7 505.3 222.9 505.8Q224.2 506.3 225.1 507.3Q226.0 508.2 226.5 509.6Q227.0 511.0 227.0 512.6L227.0 512.6L227.0 513.9L217.1 513.9L217.1 514.1Q217.1 515.5 218.0 516.4Q218.9 517.2 220.5 517.2L220.5 517.2Q221.8 517.2 222.7 516.7Q223.7 516.3 224.3 515.4L224.3 515.4L226.6 517.9Q225.7 518.9 224.2 519.7Q222.7 520.4 220.4 520.4ZM220.1 508.3L220.1 508.3Q218.7 508.3 217.9 509.1Q217.1 509.9 217.1 511.3L217.1 511.3L217.1 511.6L222.9 511.6L222.9 511.3Q222.9 509.9 222.2 509.1Q221.4 508.3 220.1 508.3ZM234.4 520.1L230.2 520.1L230.2 505.6L234.4 505.6L234.4 508.3L234.5 508.3Q234.8 507.7 235.1 507.1Q235.5 506.6 236.0 506.2Q236.5 505.8 237.2 505.5Q237.9 505.3 238.8 505.3L238.8 505.3Q239.8 505.3 240.7 505.7Q241.6 506.0 242.2 506.7Q242.8 507.4 243.1 508.4Q243.5 509.4 243.5 510.7L243.5 510.7L243.5 520.1L239.3 520.1L239.3 511.3Q239.3 508.5 236.9 508.5L236.9 508.5Q236.4 508.5 236.0 508.6Q235.5 508.8 235.1 509.0Q234.8 509.3 234.6 509.7Q234.4 510.1 234.4 510.6L234.4 510.6L234.4 520.1ZM247.4 520.1L247.4 500.5L254.2 500.5Q257.1 500.5 258.6 501.9Q260.2 503.3 260.2 505.8L260.2 505.8Q260.2 507.4 259.3 508.4Q258.5 509.4 257.0 509.9L257.0 509.9L257.0 510.0Q258.8 510.5 259.8 511.6Q260.8 512.7 260.8 514.7L260.8 514.7Q260.8 517.2 259.2 518.6Q257.7 520.1 254.9 520.1L254.9 520.1L247.4 520.1ZM251.4 517.2L253.6 517.2Q255.1 517.2 255.8 516.6Q256.5 516.1 256.5 514.8L256.5 514.8L256.5 514.0Q256.5 512.6 255.8 512.1Q255.1 511.6 253.6 511.6L253.6 511.6L251.4 511.6L251.4 517.2ZM251.4 508.8L253.0 508.8Q254.5 508.8 255.2 508.3Q255.9 507.9 255.9 506.6L255.9 506.6L255.9 505.7Q255.9 504.4 255.2 504.0Q254.5 503.5 253.0 503.5L253.0 503.5L251.4 503.5L251.4 508.8ZM271.9 511.7L274.0 505.6L278.3 505.6L271.5 522.4Q270.8 524.0 269.8 524.9Q268.7 525.7 266.8 525.7L266.8 525.7L264.0 525.7L264.0 522.5L267.5 522.5L268.4 520.0L262.5 505.6L267.0 505.6L269.1 511.7L270.4 515.9L270.6 515.9L271.9 511.7ZM293.7 520.1L288.3 520.1Q286.1 520.1 285.0 518.9Q283.9 517.7 283.9 515.9L283.9 515.9L283.9 508.9L280.0 508.9L280.0 505.6L282.5 505.6Q283.4 505.6 283.8 505.3Q284.2 504.9 284.2 503.9L284.2 503.9L284.2 500.5L288.0 500.5L288.0 505.6L293.7 505.6L293.7 508.9L288.0 508.9L288.0 516.9L293.7 516.9L293.7 520.1ZM304.4 520.4L304.4 520.4Q300.8 520.4 298.9 518.4Q297.0 516.4 297.0 512.9L297.0 512.9Q297.0 511.2 297.5 509.7Q298.0 508.3 298.9 507.3Q299.8 506.3 301.1 505.8Q302.4 505.3 304.0 505.3L304.0 505.3Q305.7 505.3 306.9 505.8Q308.2 506.3 309.1 507.3Q310.0 508.2 310.5 509.6Q311.0 511.0 311.0 512.6L311.0 512.6L311.0 513.9L301.1 513.9L301.1 514.1Q301.1 515.5 302.0 516.4Q302.9 517.2 304.5 517.2L304.5 517.2Q305.8 517.2 306.7 516.7Q307.7 516.3 308.3 515.4L308.3 515.4L310.6 517.9Q309.7 518.9 308.2 519.7Q306.7 520.4 304.4 520.4ZM304.1 508.3L304.1 508.3Q302.7 508.3 301.9 509.1Q301.1 509.9 301.1 511.3L301.1 511.3L301.1 511.6L306.9 511.6L306.9 511.3Q306.9 509.9 306.2 509.1Q305.4 508.3 304.1 508.3ZM320.6 520.4L320.6 520.4Q318.2 520.4 316.4 519.7Q314.7 519.0 313.8 517.7L313.8 517.7L316.1 515.6Q316.9 516.5 318.1 517.0Q319.2 517.5 320.7 517.5L320.7 517.5Q321.9 517.5 322.6 517.1Q323.3 516.8 323.3 516.0L323.3 516.0Q323.3 515.4 322.8 515.1Q322.3 514.9 321.5 514.7L321.5 514.7L319.2 514.4Q318.2 514.2 317.4 513.9Q316.5 513.7 315.9 513.1Q315.3 512.6 314.9 511.9Q314.6 511.2 314.6 510.2L314.6 510.2Q314.6 507.9 316.3 506.6Q318.0 505.3 321.2 505.3L321.2 505.3Q323.3 505.3 324.8 505.9Q326.3 506.5 327.2 507.5L327.2 507.5L325.1 509.9Q324.5 509.2 323.5 508.7Q322.5 508.2 321.0 508.2L321.0 508.2Q318.6 508.2 318.6 509.7L318.6 509.7Q318.6 510.3 319.1 510.6Q319.6 510.8 320.4 510.9L320.4 510.9L322.7 511.3Q323.7 511.4 324.5 511.7Q325.4 512.0 326.0 512.5Q326.6 513.0 327.0 513.8Q327.4 514.5 327.4 515.5L327.4 515.5Q327.4 517.8 325.6 519.1Q323.9 520.4 320.6 520.4Z " clip-path="url(#satori_cp-id-1-0-1-0-2)" mask="url(#satori_om-id-1-0-1-0-2)"/><clipPath id="satori_cp-id-1-0-1-1"><rect x="886" y="489" width="185" height="36"/></clipPath><mask id="satori_om-id-1-0-1-1"><rect x="886" y="489" width="185" height="36" fill="#fff"/></mask><path fill="black" d="M894.4 520.4L894.4 520.4Q890.5 520.4 888.6 517.8Q886.8 515.1 886.8 510.3L886.8 510.3Q886.8 505.5 888.6 502.9Q890.5 500.2 894.4 500.2L894.4 500.2Q898.3 500.2 900.2 502.9Q902.0 505.5 902.0 510.3L902.0 510.3Q902.0 515.1 900.2 517.8Q898.3 520.4 894.4 520.4ZM894.4 517.1L894.4 517.1Q896.3 517.1 897.0 515.8Q897.8 514.5 897.8 512.1L897.8 512.1L897.8 508.5Q897.8 506.1 897.0 504.8Q896.3 503.5 894.4 503.5L894.4 503.5Q892.5 503.5 891.8 504.8Q891.0 506.1 891.0 508.5L891.0 508.5L891.0 512.1Q891.0 514.5 891.8 515.8Q892.5 517.1 894.4 517.1ZM894.4 512.0L894.4 512.0Q893.4 512.0 893.0 511.6Q892.7 511.2 892.7 510.6L892.7 510.6L892.7 510.0Q892.7 509.5 893.0 509.1Q893.4 508.7 894.4 508.7L894.4 508.7Q895.4 508.7 895.8 509.1Q896.1 509.5 896.1 510.0L896.1 510.0L896.1 510.6Q896.1 511.2 895.8 511.6Q895.4 512.0 894.4 512.0ZM907.8 520.1L903.4 520.1L908.8 512.8L903.8 505.6L908.5 505.6L910.1 508.0L911.3 509.8L911.5 509.8L912.7 508.0L914.3 505.6L918.6 505.6L913.6 512.5L919.0 520.1L914.2 520.1L912.4 517.4L911.1 515.4L910.9 515.4L909.7 517.4L907.8 520.1ZM928.0 520.4L928.0 520.4Q924.1 520.4 922.2 517.8Q920.4 515.1 920.4 510.3L920.4 510.3Q920.4 505.5 922.2 502.9Q924.1 500.2 928.0 500.2L928.0 500.2Q931.9 500.2 933.8 502.9Q935.6 505.5 935.6 510.3L935.6 510.3Q935.6 515.1 933.8 517.8Q931.9 520.4 928.0 520.4ZM928.0 517.0L928.0 517.0Q929.8 517.0 930.5 515.7Q931.2 514.4 931.2 512.0L931.2 512.0L931.2 508.6Q931.2 506.3 930.5 504.9Q929.8 503.6 928.0 503.6L928.0 503.6Q926.2 503.6 925.5 504.9Q924.8 506.3 924.8 508.6L924.8 508.6L924.8 512.0Q924.8 514.4 925.5 515.7Q926.2 517.0 928.0 517.0ZM938.1 525.7L938.1 505.6L942.2 505.6L942.2 508.3L942.4 508.3Q942.9 507.0 943.9 506.1Q944.9 505.3 946.7 505.3L946.7 505.3Q947.9 505.3 948.9 505.8Q949.9 506.2 950.6 507.1Q951.3 508.1 951.7 509.5Q952.1 510.9 952.1 512.9L952.1 512.9Q952.1 514.8 951.7 516.3Q951.3 517.7 950.6 518.6Q949.9 519.5 948.9 520.0Q947.9 520.4 946.7 520.4L946.7 520.4Q944.9 520.4 943.9 519.6Q942.9 518.8 942.4 517.5L942.4 517.5L942.2 517.5L942.2 525.7L938.1 525.7ZM944.9 517.2L944.9 517.2Q946.3 517.2 947.0 516.4Q947.8 515.5 947.8 514.0L947.8 514.0L947.8 511.7Q947.8 510.2 947.0 509.4Q946.3 508.5 944.9 508.5L944.9 508.5Q943.8 508.5 943.0 509.1Q942.2 509.6 942.2 510.7L942.2 510.7L942.2 515.0Q942.2 516.1 943.0 516.7Q943.8 517.2 944.9 517.2ZM962.0 520.4L962.0 520.4Q958.4 520.4 956.5 518.4Q954.6 516.4 954.6 512.9L954.6 512.9Q954.6 511.2 955.1 509.7Q955.6 508.3 956.5 507.3Q957.4 506.3 958.7 505.8Q960.0 505.3 961.6 505.3L961.6 505.3Q963.3 505.3 964.5 505.8Q965.8 506.3 966.7 507.3Q967.6 508.2 968.1 509.6Q968.6 511.0 968.6 512.6L968.6 512.6L968.6 513.9L958.7 513.9L958.7 514.1Q958.7 515.5 959.6 516.4Q960.5 517.2 962.1 517.2L962.1 517.2Q963.4 517.2 964.3 516.7Q965.3 516.3 965.9 515.4L965.9 515.4L968.2 517.9Q967.3 518.9 965.8 519.7Q964.3 520.4 962.0 520.4ZM961.7 508.3L961.7 508.3Q960.3 508.3 959.5 509.1Q958.7 509.9 958.7 511.3L958.7 511.3L958.7 511.6L964.5 511.6L964.5 511.3Q964.5 509.9 963.8 509.1Q963.0 508.3 961.7 508.3ZM976.0 520.1L971.8 520.1L971.8 505.6L976.0 505.6L976.0 508.3L976.1 508.3Q976.4 507.7 976.7 507.1Q977.1 506.6 977.6 506.2Q978.1 505.8 978.8 505.5Q979.5 505.3 980.4 505.3L980.4 505.3Q981.4 505.3 982.3 505.7Q983.2 506.0 983.8 506.7Q984.4 507.4 984.7 508.4Q985.1 509.4 985.1 510.7L985.1 510.7L985.1 520.1L980.9 520.1L980.9 511.3Q980.9 508.5 978.5 508.5L978.5 508.5Q978.0 508.5 977.6 508.6Q977.1 508.8 976.7 509.0Q976.4 509.3 976.2 509.7Q976.0 510.1 976.0 510.6L976.0 510.6L976.0 520.1ZM989.0 520.1L989.0 500.5L995.8 500.5Q998.7 500.5 1000.2 501.9Q1001.8 503.3 1001.8 505.8L1001.8 505.8Q1001.8 507.4 1000.9 508.4Q1000.1 509.4 998.6 509.9L998.6 509.9L998.6 510.0Q1000.4 510.5 1001.4 511.6Q1002.4 512.7 1002.4 514.7L1002.4 514.7Q1002.4 517.2 1000.8 518.6Q999.3 520.1 996.5 520.1L996.5 520.1L989.0 520.1ZM993.0 517.2L995.2 517.2Q996.7 517.2 997.4 516.6Q998.1 516.1 998.1 514.8L998.1 514.8L998.1 514.0Q998.1 512.6 997.4 512.1Q996.7 511.6 995.2 511.6L995.2 511.6L993.0 511.6L993.0 517.2ZM993.0 508.8L994.6 508.8Q996.1 508.8 996.8 508.3Q997.5 507.9 997.5 506.6L997.5 506.6L997.5 505.7Q997.5 504.4 996.8 504.0Q996.1 503.5 994.6 503.5L994.6 503.5L993.0 503.5L993.0 508.8ZM1013.5 511.7L1015.6 505.6L1019.9 505.6L1013.1 522.4Q1012.4 524.0 1011.4 524.9Q1010.3 525.7 1008.4 525.7L1008.4 525.7L1005.6 525.7L1005.6 522.5L1009.1 522.5L1010.0 520.0L1004.1 505.6L1008.6 505.6L1010.7 511.7L1012.0 515.9L1012.2 515.9L1013.5 511.7ZM1035.3 520.1L1029.9 520.1Q1027.7 520.1 1026.6 518.9Q1025.5 517.7 1025.5 515.9L1025.5 515.9L1025.5 508.9L1021.6 508.9L1021.6 505.6L1024.1 505.6Q1025.0 505.6 1025.4 505.3Q1025.8 504.9 1025.8 503.9L1025.8 503.9L1025.8 500.5L1029.6 500.5L1029.6 505.6L1035.3 505.6L1035.3 508.9L1029.6 508.9L1029.6 516.9L1035.3 516.9L1035.3 520.1ZM1046.0 520.4L1046.0 520.4Q1042.4 520.4 1040.5 518.4Q1038.6 516.4 1038.6 512.9L1038.6 512.9Q1038.6 511.2 1039.1 509.7Q1039.6 508.3 1040.5 507.3Q1041.4 506.3 1042.7 505.8Q1044.0 505.3 1045.6 505.3L1045.6 505.3Q1047.3 505.3 1048.5 505.8Q1049.8 506.3 1050.7 507.3Q1051.6 508.2 1052.1 509.6Q1052.6 511.0 1052.6 512.6L1052.6 512.6L1052.6 513.9L1042.7 513.9L1042.7 514.1Q1042.7 515.5 1043.6 516.4Q1044.5 517.2 1046.1 517.2L1046.1 517.2Q1047.4 517.2 1048.3 516.7Q1049.3 516.3 1049.9 515.4L1049.9 515.4L1052.2 517.9Q1051.3 518.9 1049.8 519.7Q1048.3 520.4 1046.0 520.4ZM1045.7 508.3L1045.7 508.3Q1044.3 508.3 1043.5 509.1Q1042.7 509.9 1042.7 511.3L1042.7 511.3L1042.7 511.6L1048.5 511.6L1048.5 511.3Q1048.5 509.9 1047.8 509.1Q1047.0 508.3 1045.7 508.3ZM1062.2 520.4L1062.2 520.4Q1059.8 520.4 1058.0 519.7Q1056.3 519.0 1055.4 517.7L1055.4 517.7L1057.7 515.6Q1058.5 516.5 1059.7 517.0Q1060.8 517.5 1062.3 517.5L1062.3 517.5Q1063.5 517.5 1064.2 517.1Q1064.9 516.8 1064.9 516.0L1064.9 516.0Q1064.9 515.4 1064.4 515.1Q1063.9 514.9 1063.1 514.7L1063.1 514.7L1060.8 514.4Q1059.8 514.2 1059.0 513.9Q1058.1 513.7 1057.5 513.1Q1056.9 512.6 1056.5 511.9Q1056.2 511.2 1056.2 510.2L1056.2 510.2Q1056.2 507.9 1057.9 506.6Q1059.6 505.3 1062.8 505.3L1062.8 505.3Q1064.9 505.3 1066.4 505.9Q1067.9 506.5 1068.8 507.5L1068.8 507.5L1066.7 509.9Q1066.1 509.2 1065.1 508.7Q1064.1 508.2 1062.6 508.2L1062.6 508.2Q1060.2 508.2 1060.2 509.7L1060.2 509.7Q1060.2 510.3 1060.7 510.6Q1061.2 510.8 1062.0 510.9L1062.0 510.9L1064.3 511.3Q1065.3 511.4 1066.1 511.7Q1067.0 512.0 1067.6 512.5Q1068.2 513.0 1068.6 513.8Q1069.0 514.5 1069.0 515.5L1069.0 515.5Q1069.0 517.8 1067.2 519.1Q1065.5 520.4 1062.2 520.4Z " clip-path="url(#satori_cp-id-1-0-1-1)" mask="url(#satori_om-id-1-0-1-1)"/></svg>