<svg width="1200" height="630" viewBox="0 0 1200 630" xmlns="http://www.w3.org/2000/svg"><rect x="0" y="0" width="1200" height="630" fill="#fefbfb"/><defs><clipPath id="satori_bc-id-0"><path x="105" y="39" width="1056" height="504" d="M109,39 h1048 a4,4 0 0 1 4,4 v496 a4,4 0 0 1 -4,4 h-1048 a4,4 0 0 1 -4,-4 v-496 a4,4 0 0 1 4,-4"/></clipPath></defs><g opacity="0.9"><path x="105" y="39" width="1056" height="504" fill="#ecebeb" d="M109,39 h1048 a4,4 0 0 1 4,4 v496 a4,4 0 0 1 -4,4 h-1048 a4,4 0 0 1 -4,-4 v-496 a4,4 0 0 1 4,-4"/><path width="1056" height="504" clip-path="url(#satori_bc-id-0)" fill="none" stroke="#000" stroke-width="8" d="M106.172,40.172 A4,4 0 0 1 109,39 h1048 a4,4 0 0 1 4,4 v496 a4,4 0 0 1 -4,4 h-1048 a4,4 0 0 1 -4,-4 v-496 A4,4 0 0 1 106.172,40.172"/></g><defs><clipPath id="satori_bc-id-1"><path x="72" y="63" width="1056" height="504" d="M76,63 h1048 a4,4 0 0 1 4,4 v496 a4,4 0 0 1 -4,4 h-1048 a4,4 0 0 1 -4,-4 v-496 a4,4 0 0 1 4,-4"/></clipPath></defs><path x="72" y="63" width="1056" height="504" fill="#fefbfb" d="M76,63 h1048 a4,4 0 0 1 4,4 v496 a4,4 0 0 1 -4,4 h-1048 a4,4 0 0 1 -4,-4 v-496 a4,4 0 0 1 4,-4"/><path width="1056" height="504" clip-path="url(#satori_bc-id-1)" fill="none" stroke="#000" stroke-width="8" d="M73.172,64.172 A4,4 0 0 1 76,63 h1048 a4,4 0 0 1 4,4 v496 a4,4 0 0 1 -4,4 h-1048 a4,4 0 0 1 -4,-4 v-496 A4,4 0 0 1 73.172,64.172"/><clipPath id="satori_cp-id-1-0-0"><rect x="128" y="103" width="908" height="94"/></clipPath><mask id="satori_om-id-1-0-0"><rect x="128" y="103" width="908" height="94" fill="#fff"/></mask><path fill="black" d="M148.8 183.8L148.8 183.8Q142.5 183.8 137.8 181.7Q133.1 179.6 130.2 176.0L130.2 176.0L136.5 169.1Q139.2 172.2 142.5 173.6Q145.8 175.0 149.2 175.0L149.2 175.0Q153.1 175.0 155.1 173.3Q157.1 171.6 157.1 168.3L157.1 168.3Q157.1 165.7 155.5 164.3Q154.0 162.9 150.3 162.4L150.3 162.4L145.1 161.5Q138.3 160.3 135.3 156.5Q132.2 152.6 132.2 147.1L132.2 147.1Q132.2 139.8 137 135.8Q141.8 131.8 150.3 131.8L150.3 131.8Q156.2 131.8 160.5 133.6Q164.8 135.4 167.5 138.5L167.5 138.5L161.3 145.4Q159.3 143.1 156.6 141.9Q153.8 140.6 150.4 140.6L150.4 140.6Q143.1 140.6 143.1 146.6L143.1 146.6Q143.1 149.2 144.7 150.5Q146.4 151.8 150.0 152.4L150.0 152.4L155.3 153.4Q161.4 154.4 164.7 158.0Q168.0 161.5 168.0 167.5L168.0 167.5Q168.0 171.0 166.8 174.0Q165.6 177.0 163.1 179.2Q160.7 181.4 157.1 182.6Q153.6 183.8 148.8 183.8ZM176.1 183.0L171.7 145.8L180.6 145.8L183.2 175.9L183.9 175.9L188.3 145.8L197.7 145.8L202.0 175.9L202.7 175.9L205.5 145.8L213.9 145.8L209.5 183.0L196.8 183.0L193.2 157.3L192.4 157.3L188.8 183.0L176.1 183.0ZM238.3 141.0L238.3 141.0Q234.7 141.0 233.3 139.6Q231.9 138.1 231.9 136.0L231.9 136.0L231.9 133.9Q231.9 131.8 233.3 130.3Q234.7 128.9 238.3 128.9L238.3 128.9Q241.9 128.9 243.3 130.3Q244.7 131.8 244.7 133.9L244.7 133.9L244.7 136.0Q244.7 138.1 243.3 139.6Q241.9 141.0 238.3 141.0ZM221.2 183.0L221.2 174.7L233.0 174.7L233.0 154.1L221.2 154.1L221.2 145.8L243.6 145.8L243.6 174.7L254.6 174.7L254.6 183.0L221.2 183.0ZM262.7 183.0L262.7 174.7L273.7 174.7L273.7 154.1L262.0 154.1L262.0 145.8L273.7 145.8L273.7 140.4Q273.7 135.6 276.4 132.7Q279.2 129.7 285.0 129.7L285.0 129.7L297.6 129.7L297.6 138.0L284.3 138.0L284.3 145.8L297.6 145.8L297.6 154.1L284.3 154.1L284.3 174.7L296.0 174.7L296.0 183.0L262.7 183.0ZM339.0 183.0L325.3 183.0Q319.5 183.0 316.7 179.9Q313.9 176.9 313.9 172.2L313.9 172.2L313.9 154.1L303.8 154.1L303.8 145.8L310.4 145.8Q312.8 145.8 313.8 144.9Q314.8 143.9 314.8 141.4L314.8 141.4L314.8 132.7L324.6 132.7L324.6 145.8L339.0 145.8L339.0 154.1L324.6 154.1L324.6 174.7L339.0 174.7L339.0 183.0ZM383.1 183.0L350.6 183.0L350.6 132.7L361.5 132.7L361.5 174.1L383.1 174.1L383.1 183.0ZM409.8 183.8L409.8 183.8Q400.4 183.8 395.6 178.6Q390.8 173.4 390.8 164.5L390.8 164.5Q390.8 160.0 392.1 156.3Q393.3 152.7 395.7 150.2Q398.0 147.6 401.3 146.3Q404.7 144.9 408.9 144.9L408.9 144.9Q413.0 144.9 416.4 146.3Q419.7 147.6 422.0 150.0Q424.3 152.5 425.5 156.0Q426.8 159.5 426.8 163.8L426.8 163.8L426.8 167.0L401.4 167.0L401.4 167.6Q401.4 171.2 403.6 173.4Q405.8 175.6 410.2 175.6L410.2 175.6Q413.5 175.6 415.9 174.3Q418.2 173.1 420.0 171.0L420.0 171.0L425.7 177.3Q423.6 179.9 419.7 181.9Q415.8 183.8 409.8 183.8ZM408.9 152.6L408.9 152.6Q405.5 152.6 403.4 154.7Q401.4 156.8 401.4 160.4L401.4 160.4L401.4 161.0L416.4 161.0L416.4 160.4Q416.4 156.7 414.4 154.7Q412.4 152.6 408.9 152.6ZM468.6 183.0L454.9 183.0Q449.1 183.0 446.3 179.9Q443.5 176.9 443.5 172.2L443.5 172.2L443.5 154.1L433.4 154.1L433.4 145.8L440.0 145.8Q442.4 145.8 443.4 144.9Q444.4 143.9 444.4 141.4L444.4 141.4L444.4 132.7L454.2 132.7L454.2 145.8L468.6 145.8L468.6 154.1L454.2 154.1L454.2 174.7L468.6 174.7L468.6 183.0Z M538.4 183.8L538.4 183.8Q528.3 183.8 523.5 177.0Q518.7 170.1 518.7 157.8L518.7 157.8Q518.7 145.5 523.5 138.7Q528.3 131.8 538.4 131.8L538.4 131.8Q548.5 131.8 553.3 138.7Q558.1 145.5 558.1 157.8L558.1 157.8Q558.1 170.1 553.3 177.0Q548.5 183.8 538.4 183.8ZM538.4 175.3L538.4 175.3Q543.2 175.3 545.1 171.9Q547.0 168.6 547.0 162.5L547.0 162.5L547.0 153.1Q547.0 147.1 545.1 143.7Q543.2 140.3 538.4 140.3L538.4 140.3Q533.6 140.3 531.7 143.7Q529.8 147.1 529.8 153.1L529.8 153.1L529.8 162.5Q529.8 168.6 531.7 171.9Q533.6 175.3 538.4 175.3ZM538.4 162.1L538.4 162.1Q535.9 162.1 534.9 161.1Q533.9 160.1 533.9 158.6L533.9 158.6L533.9 157.0Q533.9 155.6 534.9 154.6Q535.9 153.6 538.4 153.6L538.4 153.6Q540.9 153.6 541.9 154.6Q542.9 155.6 542.9 157.0L542.9 157.0L542.9 158.6Q542.9 160.1 541.9 161.1Q540.9 162.1 538.4 162.1ZM597.8 132.7L597.8 142.1L574.5 142.1L573.4 158.0L574.0 158.0Q574.8 156.3 575.8 154.8Q576.8 153.4 578.2 152.3Q579.6 151.3 581.4 150.7Q583.2 150.1 585.5 150.1L585.5 150.1Q588.6 150.1 591.4 151.2Q594.1 152.3 596.3 154.3Q598.4 156.4 599.6 159.4Q600.8 162.4 600.8 166.1L600.8 166.1Q600.8 169.9 599.5 173.2Q598.2 176.4 595.7 178.8Q593.3 181.2 589.6 182.5Q585.9 183.8 581.2 183.8L581.2 183.8Q577.6 183.8 574.7 183.0Q571.8 182.2 569.6 180.9Q567.4 179.6 565.8 177.8Q564.2 176.0 563.0 174.2L563.0 174.2L570.9 168.0Q571.7 169.4 572.7 170.7Q573.7 172.0 574.9 173.0Q576.2 174.0 577.7 174.5Q579.3 175.0 581.3 175.0L581.3 175.0Q585.3 175.0 587.4 172.8Q589.4 170.6 589.4 167.0L589.4 167.0L589.4 166.4Q589.4 162.9 587.4 160.8Q585.3 158.8 581.6 158.8L581.6 158.8Q578.6 158.8 576.6 160.0Q574.6 161.2 573.6 162.4L573.6 162.4L564.8 161.1L566.6 132.7L597.8 132.7ZM624.8 183.8L624.8 183.8Q620.8 183.8 619.0 182.1Q617.2 180.3 617.2 177.8L617.2 177.8L617.2 175.3Q617.2 172.9 619.0 171.1Q620.8 169.3 624.8 169.3L624.8 169.3Q628.8 169.3 630.6 171.1Q632.4 172.9 632.4 175.3L632.4 175.3L632.4 177.8Q632.4 180.3 630.6 182.1Q628.8 183.8 624.8 183.8ZM624.8 159.4L624.8 159.4Q620.8 159.4 619.0 157.6Q617.2 155.9 617.2 153.4L617.2 153.4L617.2 150.9Q617.2 148.5 619.0 146.7Q620.8 144.9 624.8 144.9L624.8 144.9Q628.8 144.9 630.6 146.7Q632.4 148.5 632.4 150.9L632.4 150.9L632.4 153.4Q632.4 155.9 630.6 157.6Q628.8 159.4 624.8 159.4Z M712.4 183.8L712.4 183.8Q702.3 183.8 697.4 177.0Q692.6 170.2 692.6 157.8L692.6 157.8Q692.6 145.4 697.4 138.6Q702.3 131.8 712.4 131.8L712.4 131.8Q716.2 131.8 719.2 132.9Q722.2 133.9 724.4 135.8Q726.5 137.7 727.9 140.3Q729.3 143.0 730.1 146.3L730.1 146.3L720.1 148.8Q719.6 147.0 719.0 145.4Q718.5 143.9 717.6 142.8Q716.7 141.8 715.3 141.2Q714.0 140.5 712.1 140.5L712.1 140.5Q707.7 140.5 705.9 144.0Q704.1 147.4 704.1 153.4L704.1 153.4L704.1 162.2Q704.1 168.3 705.9 171.7Q707.7 175.1 712.1 175.1L712.1 175.1Q715.9 175.1 717.6 172.8Q719.3 170.5 720.1 166.9L720.1 166.9L730.1 169.3Q729.3 172.7 727.9 175.3Q726.5 178.0 724.4 179.9Q722.2 181.8 719.2 182.8Q716.2 183.8 712.4 183.8ZM737.7 183.0L737.7 174.7L749.1 174.7L749.1 138.0L737.7 138.0L737.7 129.7L759.7 129.7L759.7 174.7L771.1 174.7L771.1 183.0L737.7 183.0ZM797.6 183.8L797.6 183.8Q793.3 183.8 789.8 182.5Q786.4 181.2 784.0 178.6Q781.5 176.1 780.2 172.5Q779.0 168.9 779.0 164.4L779.0 164.4Q779.0 159.8 780.2 156.2Q781.5 152.6 784.0 150.1Q786.4 147.6 789.8 146.3Q793.3 144.9 797.6 144.9L797.6 144.9Q801.9 144.9 805.4 146.3Q808.8 147.6 811.2 150.1Q813.7 152.6 815.0 156.2Q816.2 159.8 816.2 164.4L816.2 164.4Q816.2 168.9 815.0 172.5Q813.7 176.1 811.2 178.6Q808.8 181.2 805.4 182.5Q801.9 183.8 797.6 183.8ZM797.6 175.9L797.6 175.9Q801.2 175.9 803.2 173.7Q805.2 171.4 805.2 167.3L805.2 167.3L805.2 161.4Q805.2 157.3 803.2 155.1Q801.2 152.9 797.6 152.9L797.6 152.9Q794 152.9 792.0 155.1Q790.0 157.3 790.0 161.4L790.0 161.4L790.0 167.3Q790.0 171.4 792.0 173.7Q794 175.9 797.6 175.9ZM840.4 183.8L840.4 183.8Q834.2 183.8 829.6 181.9Q825.0 180.1 822.7 176.8L822.7 176.8L828.7 171.3Q830.9 173.7 833.8 175.0Q836.7 176.3 840.4 176.3L840.4 176.3Q843.6 176.3 845.4 175.4Q847.2 174.4 847.2 172.4L847.2 172.4Q847.2 170.8 846.0 170.2Q844.8 169.6 842.6 169.2L842.6 169.2L836.6 168.3Q834.1 167.9 831.9 167.1Q829.8 166.4 828.2 165.1Q826.6 163.8 825.7 161.9Q824.7 160.1 824.7 157.4L824.7 157.4Q824.7 151.6 829.2 148.2Q833.7 144.9 841.7 144.9L841.7 144.9Q847.2 144.9 851.1 146.4Q854.9 147.9 857.2 150.6L857.2 150.6L851.9 156.7Q850.2 154.9 847.6 153.6Q845.0 152.4 841.4 152.4L841.4 152.4Q835.2 152.4 835.2 156.2L835.2 156.2Q835.2 157.8 836.4 158.4Q837.6 159.0 839.8 159.4L839.8 159.4L845.7 160.3Q848.2 160.7 850.4 161.5Q852.5 162.2 854.2 163.5Q855.8 164.8 856.7 166.7Q857.6 168.6 857.6 171.2L857.6 171.2Q857.6 177.0 853.1 180.4Q848.6 183.8 840.4 183.8ZM890.3 183.0L890.3 176.2L889.8 176.2Q888.6 179.4 886.0 181.6Q883.4 183.8 878.9 183.8L878.9 183.8Q876.2 183.8 874.0 182.9Q871.8 182.0 870.2 180.2Q868.6 178.4 867.7 175.8Q866.8 173.2 866.8 169.8L866.8 169.8L866.8 145.8L877.4 145.8L877.4 168.4Q877.4 175.6 883.7 175.6L883.7 175.6Q884.9 175.6 886.1 175.3Q887.3 175.0 888.2 174.3Q889.1 173.6 889.7 172.6Q890.3 171.6 890.3 170.2L890.3 170.2L890.3 145.8L900.9 145.8L900.9 183.0L890.3 183.0ZM910.9 183.0L910.9 174.7L919.5 174.7L919.5 154.1L910.9 154.1L910.9 145.8L930.2 145.8L930.2 156.3L930.7 156.3Q931.2 154.3 932.1 152.4Q933.0 150.5 934.4 149.0Q935.8 147.5 937.8 146.7Q939.8 145.8 942.5 145.8L942.5 145.8L946.1 145.8L946.1 155.6L938.1 155.6Q934.2 155.6 932.2 157.9Q930.2 160.3 930.2 163.7L930.2 163.7L930.2 174.7L942.4 174.7L942.4 183.0L910.9 183.0ZM971.4 183.8L971.4 183.8Q962.0 183.8 957.2 178.6Q952.4 173.4 952.4 164.5L952.4 164.5Q952.4 160.0 953.7 156.3Q954.9 152.7 957.3 150.2Q959.6 147.6 962.9 146.3Q966.3 144.9 970.5 144.9L970.5 144.9Q974.6 144.9 978.0 146.3Q981.3 147.6 983.6 150.0Q985.9 152.5 987.1 156.0Q988.4 159.5 988.4 163.8L988.4 163.8L988.4 167.0L963.0 167.0L963.0 167.6Q963.0 171.2 965.2 173.4Q967.4 175.6 971.8 175.6L971.8 175.6Q975.1 175.6 977.5 174.3Q979.8 173.1 981.6 171.0L981.6 171.0L987.3 177.3Q985.2 179.9 981.3 181.9Q977.4 183.8 971.4 183.8ZM970.5 152.6L970.5 152.6Q967.1 152.6 965.0 154.7Q963.0 156.8 963.0 160.4L963.0 160.4L963.0 161.0L978.0 161.0L978.0 160.4Q978.0 156.7 976.0 154.7Q974.0 152.6 970.5 152.6ZM1013.2 183.8L1013.2 183.8Q1007.0 183.8 1002.4 181.9Q997.8 180.1 995.5 176.8L995.5 176.8L1001.5 171.3Q1003.7 173.7 1006.6 175.0Q1009.5 176.3 1013.2 176.3L1013.2 176.3Q1016.4 176.3 1018.2 175.4Q1020.0 174.4 1020.0 172.4L1020.0 172.4Q1020.0 170.8 1018.8 170.2Q1017.6 169.6 1015.4 169.2L1015.4 169.2L1009.4 168.3Q1006.9 167.9 1004.7 167.1Q1002.6 166.4 1001.0 165.1Q999.4 163.8 998.5 161.9Q997.5 160.1 997.5 157.4L997.5 157.4Q997.5 151.6 1002.0 148.2Q1006.5 144.9 1014.5 144.9L1014.5 144.9Q1020.0 144.9 1023.9 146.4Q1027.7 147.9 1030.0 150.6L1030.0 150.6L1024.7 156.7Q1023.0 154.9 1020.4 153.6Q1017.8 152.4 1014.2 152.4L1014.2 152.4Q1008.0 152.4 1008.0 156.2L1008.0 156.2Q1008.0 157.8 1009.2 158.4Q1010.4 159.0 1012.6 159.4L1012.6 159.4L1018.5 160.3Q1021.0 160.7 1023.2 161.5Q1025.3 162.2 1027.0 163.5Q1028.6 164.8 1029.5 166.7Q1030.4 168.6 1030.4 171.2L1030.4 171.2Q1030.4 177.0 1025.9 180.4Q1021.4 183.8 1013.2 183.8Z " clip-path="url(#satori_cp-id-1-0-0)" mask="url(#satori_om-id-1-0-0)"/><path fill="black" d="M130.7 520.3L130.7 499.6L132.9 499.6L132.9 508.2L133.0 508.2Q134.4 505.5 137.5 505.5L137.5 505.5Q140.1 505.5 141.6 507.5Q143.1 509.5 143.1 513.0L143.1 513.0Q143.1 516.6 141.6 518.6Q140.1 520.6 137.5 520.6L137.5 520.6Q134.4 520.6 133.0 517.9L133.0 517.9L132.9 517.9L132.9 520.3L130.7 520.3ZM136.6 518.6L136.6 518.6Q138.6 518.6 139.6 517.4Q140.7 516.2 140.7 514.3L140.7 514.3L140.7 511.8Q140.7 509.9 139.6 508.7Q138.6 507.5 136.6 507.5L136.6 507.5Q135.8 507.5 135.2 507.7Q134.5 507.9 134.0 508.2Q133.5 508.6 133.2 509.2Q132.9 509.7 132.9 510.4L132.9 510.4L132.9 515.7Q132.9 516.4 133.2 516.9Q133.5 517.5 134.0 517.8Q134.5 518.2 135.2 518.4Q135.8 518.6 136.6 518.6ZM155.4 511.9L157.9 505.8L160.1 505.8L152.9 523.4Q152.7 524.1 152.4 524.5Q152.1 525.0 151.7 525.3Q151.2 525.6 150.7 525.7Q150.1 525.9 149.3 525.9L149.3 525.9L147.1 525.9L147.1 524.0L150.5 524.0L152.1 520.0L146.3 505.8L148.6 505.8L151.0 511.9L153.2 517.4L153.3 517.4L155.4 511.9Z "/><clipPath id="satori_cp-id-1-0-1-0-2"><rect x="178" y="489" width="151" height="36"/></clipPath><mask id="satori_om-id-1-0-1-0-2"><rect x="178" y="489" width="151" height="36" fill="#fff"/></mask><path fill="black" d="M186.4 520.4L186.4 520.4Q182.5 520.4 180.6 517.8Q178.8 515.1 178.8 510.3L178.8 510.3Q178.8 505.5 180.6 502.9Q182.5 500.2 186.4 500.2L186.4 500.2Q190.3 500.2 192.2 502.9Q194.0 505.5 194.0 510.3L194.0 510.3Q194.0 515.1 192.2 517.8Q190.3 520.4 186.4 520.4ZM186.4 517.0L186.4 517.0Q188.2 517.0 188.9 515.7Q189.6 514.4 189.6 512.0L189.6 512.0L189.6 508.6Q189.6 506.3 188.9 504.9Q188.2 503.6 186.4 503.6L186.4 503.6Q184.6 503.6 183.9 504.9Q183.2 506.3 183.2 508.6L183.2 508.6L183.2 512.0Q183.2 514.4 183.9 515.7Q184.6 517.0 186.4 517.0ZM196.5 525.7L196.5 505.6L200.6 505.6L200.6 508.3L200.8 508.3Q201.3 507.0 202.3 506.1Q203.3 505.3 205.1 505.3L205.1 505.3Q206.3 505.3 207.3 505.8Q208.3 506.2 209.0 507.1Q209.7 508.1 210.1 509.5Q210.5 510.9 210.5 512.9L210.5 512.9Q210.5 514.8 210.1 516.3Q209.7 517.7 209.0 518.6Q208.3 519.5 207.3 520.0Q206.3 520.4 205.1 520.4L205.1 520.4Q203.3 520.4 202.3 519.6Q201.3 518.8 200.8 517.5L200.8 517.5L200.6 517.5L200.6 525.7L196.5 525.7ZM203.3 517.2L203.3 517.2Q204.7 517.2 205.4 516.4Q206.2 515.5 206.2 514.0L206.2 514.0L206.2 511.7Q206.2 510.2 205.4 509.4Q204.7 508.5 203.3 508.5L203.3 508.5Q202.2 508.5 201.4 509.1Q200.6 509.6 200.6 510.7L200.6 510.7L200.6 515.0Q200.6 516.1 201.4 516.7Q202.2 517.2 203.3 517.2ZM220.4 520.4L220.4 520.4Q216.8 520.4 214.9 518.4Q213.0 516.4 213.0 512.9L213.0 512.9Q213.0 511.2 213.5 509.7Q214.0 508.3 214.9 507.3Q215.8 506.3 217.1 505.8Q218.4 505.3 220.0 505.3L220.0 505.3Q221.7 505.3 222.9 505.8Q224.2 506.3 225.1 507.3Q226.0 508.2 226.5 509.6Q227.0 511.0 227.0 512.6L227.0 512.6L227.0 513.9L217.1 513.9L217.1 514.1Q217.1 515.5 218.0 516.4Q218.9 517.2 220.5 517.2L220.5 517.2Q221.8 517.2 222.7 516.7Q223.7 516.3 224.3 515.4L224.3 515.4L226.6 517.9Q225.7 518.9 224.2 519.7Q222.7 520.4 220.4 520.4ZM220.1 508.3L220.1 508.3Q218.7 508.3 217.9 509.1Q217.1 509.9 217.1 511.3L217.1 511.3L217.1 511.6L222.9 511.6L222.9 511.3Q222.9 509.9 222.2 509.1Q221.4 508.3 220.1 508.3ZM234.4 520.1L230.2 520.1L230.2 505.6L234.4 505.6L234.4 508.3L234.5 508.3Q234.8 507.7 235.1 507.1Q235.5 506.6 236.0 506.2Q236.5 505.8 237.2 505.5Q237.9 505.3 238.8 505.3L238.8 505.3Q239.8 505.3 240.7 505.7Q241.6 506.0 242.2 506.7Q242.8 507.4 243.1 508.4Q243.5 509.4 243.5 510.7L243.5 510.7L243.5 520.1L239.3 520.1L239.3 511.3Q239.3 508.5 236.9 508.5L236.9 508.5Q236.4 508.5 236.0 508.6Q235.5 508.8 235.1 509.0Q234.8 509.3 234.6 509.7Q234.4 510.1 234.4 510.6L234.4 510.6L234.4 520.1ZM247.4 520.1L247.4 500.5L254.2 500.5Q257.1 500.5 258.6 501.9Q260.2 503.3 260.2 505.8L260.2 505.8Q260.2 507.4 259.3 508.4Q258.5 509.4 257.0 509.9L257.0 509.9L257.0 510.0Q258.8 510.5 259.8 511.6Q260.8 512.7 260.8 514.7L260.8 514.7Q260.8 517.2 259.2 518.6Q257.7 520.1 254.9 520.1L254.9 520.1L247.4 520.1ZM251.4 517.2L253.6 517.2Q255.1 517.2 255.8 516.6Q256.5 516.1 256.5 514.8L256.5 514.8L256.5 514.0Q256.5 512.6 255.8 512.1Q255.1 511.6 253.6 511.6L253.6 511.6L251.4 511.6L251.4 517.2ZM251.4 508.8L253.0 508.8Q254.5 508.8 255.2 508.3Q255.9 507.9 255.9 506.6L255.9 506.6L255.9 505.7Q255.9 504.4 255.2 504.0Q254.5 503.5 253.0 503.5L253.0 503.5L251.4 503.5L251.4 508.8ZM271.9 511.7L274.0 505.6L278.3 505.6L271.5 522.4Q270.8 524.0 269.8 524.9Q268.7 525.7 266.8 525.7L266.8 525.7L264.0 525.7L264.0 522.5L267.5 522.5L268.4 520.0L262.5 505.6L267.0 505.6L269.1 511.7L270.4 515.9L270.6 515.9L271.9 511.7ZM293.7 520.1L288.3 520.1Q286.1 520.1 285.0 518.9Q283.9 517.7 283.9 515.9L283.9 515.9L283.9 508.9L280.0 508.9L280.0 505.6L282.5 505.6Q283.4 505.6 283.8 505.3Q284.2 504.9 284.2 503.9L284.2 503.9L284.2 500.5L288.0 500.5L288.0 505.6L293.7 505.6L293.7 508.9L288.0 508.9L288.0 516.9L293.7 516.9L293.7 520.1ZM304.4 520.4L304.4 520.4Q300.8 520.4 298.9 518.4Q297.0 516.4 297.0 512.9L297.0 512.9Q297.0 511.2 297.5 509.7Q298.0 508.3 298.9 507.3Q299.8 506.3 301.1 505.8Q302.4 505.3 304.0 505.3L304.0 505.3Q305.7 505.3 306.9 505.8Q308.2 506.3 309.1 507.3Q310.0 508.2 310.5 509.6Q311.0 511.0 311.0 512.6L311.0 512.6L311.0 513.9L301.1 513.9L301.1 514.1Q301.1 515.5 302.0 516.4Q302.9 517.2 304.5 517.2L304.5 517.2Q305.8 517.2 306.7 516.7Q307.7 516.3 308.3 515.4L308.3 515.4L310.6 517.9Q309.7 518.9 308.2 519.7Q306.7 520.4 304.4 520.4ZM304.1 508.3L304.1 508.3Q302.7 508.3 301.9 509.1Q301.1 509.9 301.1 511.3L301.1 511.3L301.1 511.6L306.9 511.6L306.9 511.3Q306.9 509.9 306.2 509.1Q305.4 508.3 304.1 508.3ZM320.6 520.4L320.6 520.4Q318.2 520.4 316.4 519.7Q314.7 519.0 313.8 517.7L313.8 517.7L316.1 515.6Q316.9 516.5 318.1 517.0Q319.2 517.5 320.7 517.5L320.7 517.5Q321.9 517.5 322.6 517.1Q323.3 516.8 323.3 516.0L323.3 516.0Q323.3 515.4 322.8 515.1Q322.3 514.9 321.5 514.7L321.5 514.7L319.2 514.4Q318.2 514.2 317.4 513.9Q316.5 513.7 315.9 513.1Q315.3 512.6 314.9 511.9Q314.6 511.2 314.6 510.2L314.6 510.2Q314.6 507.9 316.3 506.6Q318.0 505.3 321.2 505.3L321.2 505.3Q323.3 505.3 324.8 505.9Q326.3 506.5 327.2 507.5L327.2 507.5L325.1 509.9Q324.5 509.2 323.5 508.7Q322.5 508.2 321.0 508.2L321.0 508.2Q318.6 508.2 318.6 509.7L318.6 509.7Q318.6 510.3 319.1 510.6Q319.6 510.8 320.4 510.9L320.4 510.9L322.7 511.3Q323.7 511.4 324.5 511.7Q325.4 512.0 326.0 512.5Q326.6 513.0 327.0 513.8Q327.4 514.5 327.4 515.5L327.4 515.5Q327.4 517.8 325.6 519.1Q323.9 520.4 320.6 520.4Z " clip-path="url(#satori_cp-id-1-0-1-0-2)" mask="url(#satori_om-id-1-0-1-0-2)"/><clipPath id="satori_cp-id-1-0-1-1"><rect x="886" y="489" width="185" height="36"/></clipPath><mask id="satori_om-id-1-0-1-1"><rect x="886" y="489" width="185" height="36" fill="#fff"/></mask><path fill="black" d="M894.4 520.4L894.4 520.4Q890.5 520.4 888.6 517.8Q886.8 515.1 886.8 510.3L886.8 510.3Q886.8 505.5 888.6 502.9Q890.5 500.2 894.4 500.2L894.4 500.2Q898.3 500.2 900.2 502.9Q902.0 505.5 902.0 510.3L902.0 510.3Q902.0 515.1 900.2 517.8Q898.3 520.4 894.4 520.4ZM894.4 517.1L894.4 517.1Q896.3 517.1 897.0 515.8Q897.8 514.5 897.8 512.1L897.8 512.1L897.8 508.5Q897.8 506.1 897.0 504.8Q896.3 503.5 894.4 503.5L894.4 503.5Q892.5 503.5 891.8 504.8Q891.0 506.1 891.0 508.5L891.0 508.5L891.0 512.1Q891.0 514.5 891.8 515.8Q892.5 517.1 894.4 517.1ZM894.4 512.0L894.4 512.0Q893.4 512.0 893.0 511.6Q892.7 511.2 892.7 510.6L892.7 510.6L892.7 510.0Q892.7 509.5 893.0 509.1Q893.4 508.7 894.4 508.7L894.4 508.7Q895.4 508.7 895.8 509.1Q896.1 509.5 896.1 510.0L896.1 510.0L896.1 510.6Q896.1 511.2 895.8 511.6Q895.4 512.0 894.4 512.0ZM907.8 520.1L903.4 520.1L908.8 512.8L903.8 505.6L908.5 505.6L910.1 508.0L911.3 509.8L911.5 509.8L912.7 508.0L914.3 505.6L918.6 505.6L913.6 512.5L919.0 520.1L914.2 520.1L912.4 517.4L911.1 515.4L910.9 515.4L909.7 517.4L907.8 520.1ZM928.0 520.4L928.0 520.4Q924.1 520.4 922.2 517.8Q920.4 515.1 920.4 510.3L920.4 510.3Q920.4 505.5 922.2 502.9Q924.1 500.2 928.0 500.2L928.0 500.2Q931.9 500.2 933.8 502.9Q935.6 505.5 935.6 510.3L935.6 510.3Q935.6 515.1 933.8 517.8Q931.9 520.4 928.0 520.4ZM928.0 517.0L928.0 517.0Q929.8 517.0 930.5 515.7Q931.2 514.4 931.2 512.0L931.2 512.0L931.2 508.6Q931.2 506.3 930.5 504.9Q929.8 503.6 928.0 503.6L928.0 503.6Q926.2 503.6 925.5 504.9Q924.8 506.3 924.8 508.6L924.8 508.6L924.8 512.0Q924.8 514.4 925.5 515.7Q926.2 517.0 928.0 517.0ZM938.1 525.7L938.1 505.6L942.2 505.6L942.2 508.3L942.4 508.3Q942.9 507.0 943.9 506.1Q944.9 505.3 946.7 505.3L946.7 505.3Q947.9 505.3 948.9 505.8Q949.9 506.2 950.6 507.1Q951.3 508.1 951.7 509.5Q952.1 510.9 952.1 512.9L952.1 512.9Q952.1 514.8 951.7 516.3Q951.3 517.7 950.6 518.6Q949.9 519.5 948.9 520.0Q947.9 520.4 946.7 520.4L946.7 520.4Q944.9 520.4 943.9 519.6Q942.9 518.8 942.4 517.5L942.4 517.5L942.2 517.5L942.2 525.7L938.1 525.7ZM944.9 517.2L944.9 517.2Q946.3 517.2 947.0 516.4Q947.8 515.5 947.8 514.0L947.8 514.0L947.8 511.7Q947.8 510.2 947.0 509.4Q946.3 508.5 944.9 508.5L944.9 508.5Q943.8 508.5 943.0 509.1Q942.2 509.6 942.2 510.7L942.2 510.7L942.2 515.0Q942.2 516.1 943.0 516.7Q943.8 517.2 944.9 517.2ZM962.0 520.4L962.0 520.4Q958.4 520.4 956.5 518.4Q954.6 516.4 954.6 512.9L954.6 512.9Q954.6 511.2 955.1 509.7Q955.6 508.3 956.5 507.3Q957.4 506.3 958.7 505.8Q960.0 505.3 961.6 505.3L961.6 505.3Q963.3 505.3 964.5 505.8Q965.8 506.3 966.7 507.3Q967.6 508.2 968.1 509.6Q968.6 511.0 968.6 512.6L968.6 512.6L968.6 513.9L958.7 513.9L958.7 514.1Q958.7 515.5 959.6 516.4Q960.5 517.2 962.1 517.2L962.1 517.2Q963.4 517.2 964.3 516.7Q965.3 516.3 965.9 515.4L965.9 515.4L968.2 517.9Q967.3 518.9 965.8 519.7Q964.3 520.4 962.0 520.4ZM961.7 508.3L961.7 508.3Q960.3 508.3 959.5 509.1Q958.7 509.9 958.7 511.3L958.7 511.3L958.7 511.6L964.5 511.6L964.5 511.3Q964.5 509.9 963.8 509.1Q963.0 508.3 961.7 508.3ZM976.0 520.1L971.8 520.1L971.8 505.6L976.0 505.6L976.0 508.3L976.1 508.3Q976.4 507.7 976.7 507.1Q977.1 506.6 977.6 506.2Q978.1 505.8 978.8 505.5Q979.5 505.3 980.4 505.3L980.4 505.3Q981.4 505.3 982.3 505.7Q983.2 506.0 983.8 506.7Q984.4 507.4 984.7 508.4Q985.1 509.4 985.1 510.7L985.1 510.7L985.1 520.1L980.9 520.1L980.9 511.3Q980.9 508.5 978.5 508.5L978.5 508.5Q978.0 508.5 977.6 508.6Q977.1 508.8 976.7 509.0Q976.4 509.3 976.2 509.7Q976.0 510.1 976.0 510.6L976.0 510.6L976.0 520.1ZM989.0 520.1L989.0 500.5L995.8 500.5Q998.7 500.5 1000.2 501.9Q1001.8 503.3 1001.8 505.8L1001.8 505.8Q1001.8 507.4 1000.9 508.4Q1000.1 509.4 998.6 509.9L998.6 509.9L998.6 510.0Q1000.4 510.5 1001.4 511.6Q1002.4 512.7 1002.4 514.7L1002.4 514.7Q1002.4 517.2 1000.8 518.6Q999.3 520.1 996.5 520.1L996.5 520.1L989.0 520.1ZM993.0 517.2L995.2 517.2Q996.7 517.2 997.4 516.6Q998.1 516.1 998.1 514.8L998.1 514.8L998.1 514.0Q998.1 512.6 997.4 512.1Q996.7 511.6 995.2 511.6L995.2 511.6L993.0 511.6L993.0 517.2ZM993.0 508.8L994.6 508.8Q996.1 508.8 996.8 508.3Q997.5 507.9 997.5 506.6L997.5 506.6L997.5 505.7Q997.5 504.4 996.8 504.0Q996.1 503.5 994.6 503.5L994.6 503.5L993.0 503.5L993.0 508.8ZM1013.5 511.7L1015.6 505.6L1019.9 505.6L1013.1 522.4Q1012.4 524.0 1011.4 524.9Q1010.3 525.7 1008.4 525.7L1008.4 525.7L1005.6 525.7L1005.6 522.5L1009.1 522.5L1010.0 520.0L1004.1 505.6L1008.6 505.6L1010.7 511.7L1012.0 515.9L1012.2 515.9L1013.5 511.7ZM1035.3 520.1L1029.9 520.1Q1027.7 520.1 1026.6 518.9Q1025.5 517.7 1025.5 515.9L1025.5 515.9L1025.5 508.9L1021.6 508.9L1021.6 505.6L1024.1 505.6Q1025.0 505.6 1025.4 505.3Q1025.8 504.9 1025.8 503.9L1025.8 503.9L1025.8 500.5L1029.6 500.5L1029.6 505.6L1035.3 505.6L1035.3 508.9L1029.6 508.9L1029.6 516.9L1035.3 516.9L1035.3 520.1ZM1046.0 520.4L1046.0 520.4Q1042.4 520.4 1040.5 518.4Q1038.6 516.4 1038.6 512.9L1038.6 512.9Q1038.6 511.2 1039.1 509.7Q1039.6 508.3 1040.5 507.3Q1041.4 506.3 1042.7 505.8Q1044.0 505.3 1045.6 505.3L1045.6 505.3Q1047.3 505.3 1048.5 505.8Q1049.8 506.3 1050.7 507.3Q1051.6 508.2 1052.1 509.6Q1052.6 511.0 1052.6 512.6L1052.6 512.6L1052.6 513.9L1042.7 513.9L1042.7 514.1Q1042.7 515.5 1043.6 516.4Q1044.5 517.2 1046.1 517.2L1046.1 517.2Q1047.4 517.2 1048.3 516.7Q1049.3 516.3 1049.9 515.4L1049.9 515.4L1052.2 517.9Q1051.3 518.9 1049.8 519.7Q1048.3 520.4 1046.0 520.4ZM1045.7 508.3L1045.7 508.3Q1044.3 508.3 1043.5 509.1Q1042.7 509.9 1042.7 511.3L1042.7 511.3L1042.7 511.6L1048.5 511.6L1048.5 511.3Q1048.5 509.9 1047.8 509.1Q1047.0 508.3 1045.7 508.3ZM1062.2 520.4L1062.2 520.4Q1059.8 520.4 1058.0 519.7Q1056.3 519.0 1055.4 517.7L1055.4 517.7L1057.7 515.6Q1058.5 516.5 1059.7 517.0Q1060.8 517.5 1062.3 517.5L1062.3 517.5Q1063.5 517.5 1064.2 517.1Q1064.9 516.8 1064.9 516.0L1064.9 516.0Q1064.9 515.4 1064.4 515.1Q1063.9 514.9 1063.1 514.7L1063.1 514.7L1060.8 514.4Q1059.8 514.2 1059.0 513.9Q1058.1 513.7 1057.5 513.1Q1056.9 512.6 1056.5 511.9Q1056.2 511.2 1056.2 510.2L1056.2 510.2Q1056.2 507.9 1057.9 506.6Q1059.6 505.3 1062.8 505.3L1062.8 505.3Q1064.9 505.3 1066.4 505.9Q1067.9 506.5 1068.8 507.5L1068.8 507.5L1066.7 509.9Q1066.1 509.2 1065.1 508.7Q1064.1 508.2 1062.6 508.2L1062.6 508.2Q1060.2 508.2 1060.2 509.7L1060.2 509.7Q1060.2 510.3 1060.7 510.6Q1061.2 510.8 1062.0 510.9L1062.0 510.9L1064.3 511.3Q1065.3 511.4 1066.1 511.7Q1067.0 512.0 1067.6 512.5Q1068.2 513.0 1068.6 513.8Q1069.0 514.5 1069.0 515.5L1069.0 515.5Q1069.0 517.8 1067.2 519.1Q1065.5 520.4 1062.2 520.4Z " clip-path="url(#satori_cp-id-1-0-1-1)" mask="url(#satori_om-id-1-0-1-1)"/></svg>