<?xml version="1.0" standalone="no"?>
<!DOCTYPE svg PUBLIC "-//W3C//DTD SVG 20010904//EN"
 "http://www.w3.org/TR/2001/REC-SVG-20010904/DTD/svg10.dtd">
<svg version="1.0" xmlns="http://www.w3.org/2000/svg"
 width="400.000000pt" height="400.000000pt" viewBox="0 0 400.000000 400.000000"
 preserveAspectRatio="xMidYMid meet">
<metadata>
Created by potrace 1.14, written by Peter Selinger 2001-2017
</metadata>
<g transform="translate(0.000000,400.000000) scale(0.100000,-0.100000)"
fill="#000000" stroke="none">
<path d="M1878 3875 c-2 -1 -41 -5 -88 -9 -84 -6 -129 -12 -162 -22 -9 -3 -25
-7 -35 -9 -10 -3 -38 -9 -63 -15 -213 -51 -512 -203 -689 -350 -239 -199 -413
-431 -534 -710 -28 -64 -77 -204 -83 -240 -3 -14 -9 -41 -14 -60 -59 -226 -60
-553 -3 -815 57 -263 198 -554 372 -765 109 -132 335 -333 429 -381 15 -8 29
-17 32 -21 9 -12 222 -117 291 -143 92 -36 253 -81 313 -89 27 -4 53 -9 58
-12 26 -16 348 -24 483 -12 57 5 211 34 285 53 203 52 487 197 665 340 156
125 335 332 428 495 44 78 100 186 108 210 4 14 22 61 38 105 35 88 68 210 76
276 3 23 8 46 11 51 23 37 22 550 -1 587 -3 5 -7 29 -10 52 -10 78 -59 245
-104 354 -54 133 -185 354 -269 455 -84 101 -267 274 -343 325 -41 28 -75 53
-77 58 -2 4 -8 7 -13 7 -6 0 -35 16 -64 35 -73 46 -222 116 -327 153 -97 35
-283 77 -378 88 -63 6 -326 14 -332 9z"/>
</g>
</svg>
